<svg id="Layer_1" data-name="Layer 1" xmlns="http://www.w3.org/2000/svg" viewBox="0 0 761.16 793"><defs><style>.cls-1{fill:#4e8769;}.cls-2{fill:#63aa85;}.cls-3,.cls-8{fill:#fff;}.cls-4{fill:#fff3e3;}.cls-5{fill:#3a3734;}.cls-6{fill:#efac9e;}.cls-7{fill:#232120;}.cls-8{opacity:0.22;}.cls-9{fill:#ed8a7a;}.cls-10{fill:#e3fffe;}.cls-11{fill:#39b4ea;}.cls-12{fill:#2d90b2;}.cls-13{fill:#288199;}.cls-14{fill:#34d399;}.cls-15{fill:#569677;}</style></defs><title>1 panda</title><path class="cls-1" d="M68.42,58.13c49.64,8.95,100.87,20,141.14,50.42,15.64,11.8,29.66,27,35.18,45.83,1.92,6.56,2.47,14.45-2.18,19.46-2.34,2.52-5.66,3.89-9,4.82a47.36,47.36,0,0,1-34.41-3.59c-8.74-4.58-16.39-12.14-20.2-21.31-3.41-8.23-5-13.12-12.29-19-20.61-16.6-41.77-32.56-62.65-48.83Z" transform="translate(-1.26)"/><path class="cls-2" d="M144.54,167c-11-6.91-21.21-15.15-31.82-22.74A325.27,325.27,0,0,0,34.37,103a1179.5,1179.5,0,0,1,145,13.21c16.61,2.55,33.59,5.62,48,14.25s25.93,24.06,25.22,40.85c-.37,8.58-4,17.75-12.91,19.5-10.08,2-22.39.23-32.45-1.17A160.63,160.63,0,0,1,144.54,167Z" transform="translate(-1.26)"/><path class="cls-1" d="M59,339.46q56.08-41.08,115.06-78c11.78-7.37,23.95-14.9,32.07-26.17,2-2.82,3.76-6.85,1.58-9.57a8.22,8.22,0,0,0-3.7-2.27c-12.21-4.65-29.82-8.61-42.12-3.31-11.59,5-22.75,12.93-32.71,20.59A207.9,207.9,0,0,0,77.41,299,199.93,199.93,0,0,0,59,339.46Z" transform="translate(-1.26)"/><path class="cls-2" d="M190.9,212.72c-8.32-3-17-4.69-25.73-6.35-13.69-2.61-27.45-5.14-41.38-5.57-21.66-.68-43.27,3.75-63.73,10.92s-39.84,17.07-58.8,27.59a159.56,159.56,0,0,1,16.8.74c7.54.86,14.92,2.79,22.38,4.17,15.64,2.92,31.62,3.46,47.53,3.86,14.28.37,28.63.62,42.77-1.36,18.18-2.54,35.62-8.7,52.91-14.83,4.52-1.6,20.12-5,22.3-9.56C208,218.06,194,213.83,190.9,212.72Z" transform="translate(-1.26)"/><path class="cls-2" d="M283.12,273.89c-5.78-7.11-12.79-13.13-20-18.74-26.2-20.29-57-36.17-90-38.75l.54-2.74a179.8,179.8,0,0,1,142.7,92.7c1.28,2.33,2.52,5.15,1.35,7.53-2.13,4.32-8.93,3.66-12.16,1.07-2.78-2.24-3.41-6.2-4.69-9.37C296.29,294.45,290.71,283.27,283.12,273.89Z" transform="translate(-1.26)"/><path class="cls-2" d="M289,242.82c-4-8.24-9.52-15.67-15.32-22.76-21-25.66-47.41-48-79-58l1.14-2.54A179.75,179.75,0,0,1,314,281.9c.72,2.56,1.3,5.59-.38,7.65-3.05,3.73-9.52,1.56-12.08-1.69-2.21-2.81-1.94-6.81-2.48-10.18C297.21,265.81,294.29,253.66,289,242.82Z" transform="translate(-1.26)"/><path class="cls-1" d="M572.48,0c-49.43,10-100.41,22.21-140,53.45C417.08,65.59,403.39,81.11,398.28,100c-1.78,6.6-2.16,14.49,2.6,19.4,2.39,2.47,5.74,3.77,9.07,4.63a47.28,47.28,0,0,0,34.32-4.33C452.91,115,460.4,107.24,464,98c3.23-8.31,4.68-13.22,11.88-19.29,20.24-17,41.06-33.45,61.58-50.17Z" transform="translate(-1.26)"/><path class="cls-2" d="M498.73,110.48c10.9-7.15,20.88-15.6,31.32-23.41A324.78,324.78,0,0,1,607.5,44.16,1180.74,1180.74,0,0,0,462.84,60.49c-16.55,2.92-33.46,6.35-47.69,15.28s-25.41,24.62-24.33,41.39c.55,8.57,4.4,17.66,13.32,19.22,10.12,1.78,22.39-.25,32.42-1.87A160.69,160.69,0,0,0,498.73,110.48Z" transform="translate(-1.26)"/><path class="cls-2" d="M356,189.4c3.85-8.32,9.17-15.87,14.82-23.09,20.42-26.1,46.36-49,77.75-59.66-.39-.84-.79-1.68-1.19-2.52A179.78,179.78,0,0,0,331.75,229c-.67,2.58-1.18,5.62.54,7.64,3.13,3.66,9.55,1.35,12-2,2.15-2.86,1.79-6.85,2.26-10.23C348.22,212.56,350.89,200.35,356,189.4Z" transform="translate(-1.26)"/><path class="cls-3" d="M643.75,596.55a29.11,29.11,0,0,1-.14,10.69,35,35,0,0,1-48.55,25.5c-7.82-3.45-14.48-10.24-16.24-18.6a34,34,0,0,1,.11-12.35c2.22-13.77,12.38-28.74,27.5-30C622,570.47,640.79,580.46,643.75,596.55Z" transform="translate(-1.26)"/><path class="cls-4" d="M644.23,596.66a25.61,25.61,0,0,0-5.43-11.51c0,.12.05.23.08.35a29.55,29.55,0,0,1-.14,10.69,35,35,0,0,1-48.56,25.5,30.71,30.71,0,0,1-11-8.19c0,.25.08.5.13.74,1.76,8.37,8.41,15.15,16.23,18.61a35,35,0,0,0,48.56-25.5A29.12,29.12,0,0,0,644.23,596.66Z" transform="translate(-1.26)"/><path class="cls-5" d="M690.94,494c4.08-.87,9-2,11.39,1.44,1.24,2.18-.48,3.81-1.65,5.17,3.37-2.83,8.84-3.5,12.05-.49s1.9,9.68-2.45,10.3c1.78.18,2.84,2.31,2.53,4.07a8.89,8.89,0,0,1-2.85,4.47c-14.68,14.64-38.29,24.7-59,25-31.33.37-68.06.16-86.22-25.37-5.91-8.3-4.51-34.79-2.21-44.71,2.64-11.38,13.73-19.46,25.29-21.19,11.83-1.77,20.71,3.13,23.7,14.65,2.54,9.81,7,12.91,16.41,17.82A95.06,95.06,0,0,0,690.94,494Z" transform="translate(-1.26)"/><path class="cls-6" d="M685.94,506.28a8.4,8.4,0,0,0-3.69,3.53,6,6,0,0,0-.29,5,6.94,6.94,0,0,0,3,3.14,8.18,8.18,0,0,0,2.2.93,10.08,10.08,0,0,0,6-.72,11.42,11.42,0,0,0,4.19-2.58,5.9,5.9,0,0,0-1-9.12C693.39,504.62,688.89,504.78,685.94,506.28Z" transform="translate(-1.26)"/><path class="cls-6" d="M692.26,498.41a2.35,2.35,0,0,0-.45,1,1.83,1.83,0,0,0,1,1.83,3,3,0,0,0,2.14.24,4.48,4.48,0,0,0,3.13-2.7,2.88,2.88,0,0,0,.07-2.12C697.05,494.08,693.17,497.11,692.26,498.41Z" transform="translate(-1.26)"/><path class="cls-6" d="M708.32,501.78a7,7,0,0,0-6.12,2.36,3.22,3.22,0,0,0-.78,2,2.85,2.85,0,0,0,2.29,2.45,5.92,5.92,0,0,0,3.5-.51,5.78,5.78,0,0,0,3-2.42A2.53,2.53,0,0,0,708.32,501.78Z" transform="translate(-1.26)"/><path class="cls-6" d="M702.46,514.49a1.89,1.89,0,0,0-.55.74,1.77,1.77,0,0,0,.24,1.44,3.65,3.65,0,0,0,2.87,1.78,6,6,0,0,0,2.7-.61,5,5,0,0,0,1.89-1.28,2.11,2.11,0,0,0,.42-2.14C708.84,511.65,704.07,513,702.46,514.49Z" transform="translate(-1.26)"/><path class="cls-5" d="M339.17,612.37c1.78,11.75,8.43,22.41,17.16,30.48,5.28,4.88,13.1,9,19.36,5.51,5.26-3,6.61-9.88,6.83-15.92a97.81,97.81,0,0,0-6.32-38.35c-2.22-5.85-5.21-11.72-10.28-15.39C346.63,564.74,337.13,598.89,339.17,612.37Z" transform="translate(-1.26)"/><path class="cls-3" d="M598.28,470.37l-89.35-21.21-114.36-66.8S388.78,514,386,550.44s7.47,62.38,36.67,78.28,65.53,20.58,65.53,20.58,36.52,2.87,68.36-6.71,47.19-32.8,51.94-69.09S598.28,470.37,598.28,470.37Z" transform="translate(-1.26)"/><path class="cls-4" d="M598.28,470.37l-29-6.89c4.1,22.19,10.13,61.51,6.87,86.43-4.76,36.29-20.1,59.53-51.94,69.1s-68.36,6.71-68.36,6.71-28.94-3.74-55.92-15.84a71.46,71.46,0,0,0,22.77,18.84c29.2,15.9,65.53,20.58,65.53,20.58s36.52,2.87,68.36-6.71,47.19-32.8,51.94-69.09S598.28,470.37,598.28,470.37Z" transform="translate(-1.26)"/><path class="cls-5" d="M589,549.32a60.5,60.5,0,0,0,20.38-6.9c-2.17-34.19-10.64-72-10.64-72l-89.35-21.21-114.36-66.8s-1.8,40.92-3.88,83.45a98.53,98.53,0,0,1,10.74.54c14.95,1.58,29.4,6.21,43.52,11.36,12.75,4.65,25.46,9.82,36.54,17.66,16.37,11.59,28.42,28.5,44.92,39.91A86.23,86.23,0,0,0,589,549.32Z" transform="translate(-1.26)"/><path class="cls-5" d="M392.25,277.2s-66.64-62.66,1-105.14c59.65-37.44,90.05,41.37,90.05,41.37Z" transform="translate(-1.26)"/><path class="cls-6" d="M407.54,254.14s-37.19-35,.57-58.66c33.28-20.9,50.24,23.08,50.24,23.08Z" transform="translate(-1.26)"/><path class="cls-7" d="M382.89,179.84c57.17-35.88,87.46,35,89.89,41l10.54-7.38s-30.4-78.81-90.05-41.37a89.91,89.91,0,0,0-11.58,8.55Z" transform="translate(-1.26)"/><path class="cls-8" d="M371.34,204.92a29.81,29.81,0,0,0-1.79,17.63c.63,2.7,2.06,5.56,4.67,6.22,2.35.6,4.92-.93,6.2-3.11a12.16,12.16,0,0,0,1.24-7.33c-.25-2.5-.9-4.92-1.2-7.41a27.07,27.07,0,0,1,4.2-17.84c.69-1.05,1.47-2.41.83-3.45C382.12,184.1,372.13,202.94,371.34,204.92Z" transform="translate(-1.26)"/><path class="cls-5" d="M653.11,286.75s72.37-56,103.67,17.54c27.6,64.8-55,82.42-55,82.42Z" transform="translate(-1.26)"/><path class="cls-6" d="M673.48,305.47s40.38-31.22,57.85,9.79c15.39,36.16-30.7,46-30.7,46Z" transform="translate(-1.26)"/><path class="cls-7" d="M750.73,292.82c26.45,62.09-48.31,80.87-54.59,82.32l5.63,11.57s82.61-17.62,55-82.42a89.47,89.47,0,0,0-6.62-12.78C750.35,291.94,750.54,292.37,750.73,292.82Z" transform="translate(-1.26)"/><path class="cls-8" d="M727.78,277.47a29.86,29.86,0,0,0-17.13-4.55c-2.76.2-5.81,1.16-6.87,3.64-1,2.23.14,5,2.09,6.61a12.12,12.12,0,0,0,7,2.37c2.5.15,5-.11,7.5,0a27,27,0,0,1,17,7c.93.84,2.14,1.84,3.28,1.37C746.65,291.38,729.61,278.56,727.78,277.47Z" transform="translate(-1.26)"/><path class="cls-3" d="M701.26,401.9c10.1-36.41,4-90.6-30.62-131.5C638.56,232.5,539.55,193.05,482,199.72c-47.73,5.52-90.09,44.85-106.41,78.93s-30.09,99.25,16.17,132,152,72.31,208.35,78.06S691.17,438.31,701.26,401.9Z" transform="translate(-1.26)"/><path class="cls-4" d="M701.51,402C711.2,367.06,706,315.78,675,275.56c11.7,31.19,12.28,63.82,5.47,88.38-10.1,36.4-44.81,92.51-101.17,86.76S417.16,405.33,370.9,372.63a74.26,74.26,0,0,1-8.15-6.65c3.81,17.12,12.67,33,29.24,44.71,46.26,32.7,152,72.31,208.35,78.06S691.42,438.4,701.51,402Z" transform="translate(-1.26)"/><path class="cls-5" d="M470.4,240.88c-12.68,3.05-24.55,8.79-35.85,15.27-14.32,8.21-28.41,18.21-36.36,32.67-1.39,2.54-7.16,14.4,1.57,29.38,3.64,6.23,9.75,10.74,16.51,13.28,33.93,12.71,54.44-2.42,59.26-6.07,14.93-11.28,27.18-25.86,42.4-36.73,4.7-3.36,9.21-7.06,12-12.1,5.13-9.15,2-33.19-30.75-37.07A82.31,82.31,0,0,0,470.4,240.88Z" transform="translate(-1.26)"/><path class="cls-5" d="M645.14,306.31c7.56,10.61,12.75,22.73,17,35,5.42,15.6,9.49,32.39,6,48.52-.61,2.83-4,15.56-20.46,21.13-6.84,2.32-14.41,1.71-21.17-.82-33.94-12.67-39.49-37.55-40.74-43.47-3.86-18.31-3.53-37.34-7.88-55.54-1.34-5.62-2.31-11.37-1.14-17,2.13-10.27,20.26-26.36,47.53-7.78A82.09,82.09,0,0,1,645.14,306.31Z" transform="translate(-1.26)"/><path class="cls-5" d="M562.06,335c-6.47-6.12-19.3-12.15-21.31-12.31-1.62-1.2-15.25-5.09-24.15-4.72a13.19,13.19,0,0,0-11.43,8.09c-2.78,7.41,1,10.68,3.19,12.8,4.83,4.71,10.83,8.63,13.57,14.78a30.74,30.74,0,0,0,2.14,4.7,5,5,0,0,0,5.83,2.18,30,30,0,0,0,4.7-2.13c6.11-2.84,13.21-1.85,19.94-2.22,3-.18,8.05-.15,10.82-7.56A13.23,13.23,0,0,0,562.06,335Z" transform="translate(-1.26)"/><path class="cls-8" d="M511.12,325.94a4.49,4.49,0,0,0,2.31,4.85c1.74.88,3.86.49,5.68-.22a32.36,32.36,0,0,1,5.46-2.1c4.2-.84,8.4,1.52,12.69,1.54a2.09,2.09,0,0,0,1.75-.61,1.53,1.53,0,0,0-.15-1.8,4.18,4.18,0,0,0-1.58-1.1C532.51,324.22,513.14,316.9,511.12,325.94Z" transform="translate(-1.26)"/><path class="cls-6" d="M501.17,390.6a21.46,21.46,0,0,0,6.86,6,28.73,28.73,0,0,0,14.09,4.16,20.61,20.61,0,0,0,13.51-4.53c-2.13-1.4-3.3-3.76-4.36-6-.94-2-1.87-4-2.64-6.1A44.57,44.57,0,0,1,526,364.4l-7.33,8.14a19.58,19.58,0,0,1-6.61,5.34,41.78,41.78,0,0,1-5.76,2.87,22.06,22.06,0,0,1-4.11,1.11c-1.17.2-2.8-.07-3.33,1.11C497.92,385,500,388.94,501.17,390.6Z" transform="translate(-1.26)"/><path class="cls-9" d="M513.64,386a18.41,18.41,0,0,0,8,2c2.29.1,4.74-.18,6.42-1.62a1,1,0,0,0,.4-1.12,44.83,44.83,0,0,0-1-4.87c-.39-1.34-.89-2.66-1.22-4-.9-3.75-.38-7.61-.56-11.42-1.21.27-1.82,1.5-2.45,2.52-1.86,3-5,4.89-7.95,6.81-1.83,1.2-7.41,4.27-6.41,7C509.53,383.23,511.78,385,513.64,386Z" transform="translate(-1.26)"/><path class="cls-5" d="M550.77,402.88a1.58,1.58,0,0,0-1.4-1.67,28.78,28.78,0,0,1-17.69-12.34c-4.42-6.67-5.14-14.71-4.14-22.48.25-1.95.6-3.87,1-5.79a120.19,120.19,0,0,0,4.36-11.76c.62-1.89-2.27-3-2.89-1.09-.3.93-.61,1.86-.92,2.79a1.49,1.49,0,0,0-1.48,1c-.73,2.69-1.43,5.42-2,8.17a43.19,43.19,0,0,1-6.82,11,28.45,28.45,0,0,1-19.45,9.42,27.72,27.72,0,0,1-11.89-1.79,1.54,1.54,0,0,0-1.08,2.89,31.86,31.86,0,0,0,23.29-.35,30.1,30.1,0,0,0,10-6.62,37.34,37.34,0,0,0,4.57-5.64,42.16,42.16,0,0,0,.2,9.39,31.54,31.54,0,0,0,24.69,26.32A1.56,1.56,0,0,0,550.77,402.88Z" transform="translate(-1.26)"/><path class="cls-7" d="M497.9,282.44A24.4,24.4,0,1,1,483.61,251,24.4,24.4,0,0,1,497.9,282.44Z" transform="translate(-1.26)"/><path class="cls-3" d="M497,284.83a24.4,24.4,0,1,1-14.28-31.41A24.39,24.39,0,0,1,497,284.83Z" transform="translate(-1.26)"/><path class="cls-10" d="M497.29,268.34A24.39,24.39,0,0,1,450,279a24.4,24.4,0,1,0,47.31-10.61Z" transform="translate(-1.26)"/><path class="cls-11" d="M488,282.64a15.92,15.92,0,1,1-9.32-20.49A15.92,15.92,0,0,1,488,282.64Z" transform="translate(-1.26)"/><path class="cls-12" d="M484.07,265.52a15.91,15.91,0,0,1-20.33,20.87,16,16,0,0,1-5.39-3.37,15.92,15.92,0,1,0,25.72-17.5Z" transform="translate(-1.26)"/><path class="cls-7" d="M482.85,280.71a9.7,9.7,0,1,1-5.68-12.48A9.7,9.7,0,0,1,482.85,280.71Z" transform="translate(-1.26)"/><path class="cls-3" d="M461.23,270.87a6.22,6.22,0,0,0-.53,2.27,2.82,2.82,0,0,0,.84,2.1,2.86,2.86,0,0,0,2.42.56,7,7,0,0,0,2.33-1,15.63,15.63,0,0,0,5.82-6,2.25,2.25,0,0,0,.23-2,2.07,2.07,0,0,0-.93-.8C467.39,263.84,462.73,267.13,461.23,270.87Z" transform="translate(-1.26)"/><path class="cls-13" d="M473.1,293.65a16.59,16.59,0,1,1,15.54-10.77A16.64,16.64,0,0,1,473.1,293.65Zm0-31.83a15.23,15.23,0,0,0-5.35,29.5,15.06,15.06,0,0,0,5.34,1,15.29,15.29,0,0,0,14.27-9.89,15.24,15.24,0,0,0-14.26-20.58Z" transform="translate(-1.26)"/><path class="cls-3" d="M476,264a2.36,2.36,0,0,0-1.11.23,1.08,1.08,0,0,0-.6.9,1.5,1.5,0,0,0,.9,1.19,5.29,5.29,0,0,0,2.48.67,2.29,2.29,0,0,0,1.31-.3,1.11,1.11,0,0,0,.51-1.16A1.44,1.44,0,0,0,479,265a3.68,3.68,0,0,0-2.95-.87Z" transform="translate(-1.26)"/><path class="cls-7" d="M641.06,334.68a24.4,24.4,0,1,1-14.29-31.41A24.39,24.39,0,0,1,641.06,334.68Z" transform="translate(-1.26)"/><path class="cls-3" d="M640.16,337.07a24.4,24.4,0,1,1-14.29-31.41A24.4,24.4,0,0,1,640.16,337.07Z" transform="translate(-1.26)"/><path class="cls-10" d="M640.45,320.57a24.4,24.4,0,0,1-47.32,10.62,24.4,24.4,0,1,0,47.32-10.62Z" transform="translate(-1.26)"/><path class="cls-11" d="M631.16,334.88a15.91,15.91,0,1,1-9.32-20.49A15.9,15.9,0,0,1,631.16,334.88Z" transform="translate(-1.26)"/><path class="cls-12" d="M627.23,317.76a15.92,15.92,0,0,1-25.72,17.5,15.91,15.91,0,1,0,25.72-17.5Z" transform="translate(-1.26)"/><path class="cls-7" d="M626,332.94a9.69,9.69,0,1,1-5.67-12.48A9.69,9.69,0,0,1,626,332.94Z" transform="translate(-1.26)"/><path class="cls-3" d="M604.39,323.11a6.12,6.12,0,0,0-.53,2.26,2.75,2.75,0,0,0,.84,2.11,2.83,2.83,0,0,0,2.41.55,6.65,6.65,0,0,0,2.34-1,15.58,15.58,0,0,0,5.81-6,2.27,2.27,0,0,0,.24-2,2.12,2.12,0,0,0-.93-.79C610.55,316.08,605.89,319.37,604.39,323.11Z" transform="translate(-1.26)"/><path class="cls-13" d="M616.26,345.89a16.6,16.6,0,0,1,0-33.19,16.6,16.6,0,0,1,15.54,22.41A16.68,16.68,0,0,1,616.26,345.89Zm0-31.84a15.24,15.24,0,1,0,14.27,20.59A15.24,15.24,0,0,0,621.61,315,15.34,15.34,0,0,0,616.26,314.05Z" transform="translate(-1.26)"/><path class="cls-3" d="M619.13,316.28a2.29,2.29,0,0,0-1.1.23,1.09,1.09,0,0,0-.61.9,1.51,1.51,0,0,0,.91,1.19,5.34,5.34,0,0,0,2.47.67,2.27,2.27,0,0,0,1.31-.3,1.1,1.1,0,0,0,.51-1.17,1.39,1.39,0,0,0-.44-.61,3.64,3.64,0,0,0-2.94-.88Z" transform="translate(-1.26)"/><path class="cls-14" d="M548.63,219.12a14.88,14.88,0,0,0,10.78-25.33,24.78,24.78,0,0,1,15.11,11.72c2.75-5,7.46-8.68,12.62-11.11s10.77-3.69,16.36-4.78a33.7,33.7,0,0,0-11.37,23,12.63,12.63,0,0,1,7.19-.77,11.46,11.46,0,0,0-4.73,9.28c0,3.47,1.65,6.74,2,10.19a7,7,0,0,1-.82,4.53c-1.41,2.18-4.31,2.77-6.91,3-11.56.85-23-2.35-33.92-6.36-3.37-1.24-7.37-3.63-6.79-7.17.39-2.43,2.83-3.9,5.06-5Z" transform="translate(-1.26)"/><path class="cls-15" d="M278.24,162c.18,2.86,30.46,288,79.56,453.61s55.63,168.56,55.63,168.56,25.33,18.08,70,2.59C516.25,775.38,511,755.35,511,755.35s4.07-.67-45.37-118C402.9,488.39,357.52,162,357.52,162s1-15.43-33.51-15.11S278.24,162,278.24,162Z" transform="translate(-1.26)"/><path class="cls-1" d="M511,755.35s4.07-.68-45.37-118C402.9,488.39,357.52,162,357.52,162s1-14.77-31.33-15.11c4.32,3.89,4.07,7.9,4.07,7.9S375.63,481.19,438.4,630.15c49.43,117.32,45.36,118,45.36,118s5.23,20-27.56,31.38c-16,5.54-29.52,6.78-40.28,6.09,7.38,4,31,13.77,67.55,1.11C516.25,775.37,511,755.35,511,755.35Z" transform="translate(-1.26)"/><path class="cls-5" d="M469.06,587.81c-7.35,6.65-13.49,14.5-20.38,21.61-8.34,8.61-17.74,16.11-27.32,23.3-2.73,2-5.6,4.22-7,7.34a14.27,14.27,0,0,0-.69,8c1.6,9.86,9.14,18,18.06,22.51s19.1,5.8,29.07,6.2A179.87,179.87,0,0,0,569.89,645c7.13-5,14-10.56,18.88-17.75s7.61-16.19,5.81-24.69c-2.23-10.47-10.87-18.52-20.36-23.46-16.87-8.77-36.48-15.08-55.54-13.1A87.84,87.84,0,0,0,469.06,587.81Z" transform="translate(-1.26)"/><path class="cls-5" d="M418.45,610.16c-3.77-1.6-8.27-1.93-11.86,0s-5.82,6.56-4.31,10.36c-2.91.94-4.3,4.34-4.4,7.4-.15,4.89,2,9.53,4.19,13.88,4.62,9,10,17.74,16.72,25.29,3.07,3.42,6.57,6.68,10.92,8.19,3.83,1.33,8,1.18,12,.86,7.55-.6,15.61-2,21-7.36,6-6,7.06-15.68,4.61-23.82s-7.83-15-13.38-21.46c-3.48-4-2.27-16.34-6.47-12.9-3.14,2.57-7.07,3.42-10.8,4.48C429.21,617.23,425.22,613,418.45,610.16Z" transform="translate(-1.26)"/><path class="cls-5" d="M341.74,493.72c3-1.59,4.59-5.67,2.89-8.58a7.6,7.6,0,0,0,4.72-14.44c3.26.35,5.69-3.58,5-6.79s-3.37-5.58-6.1-7.39c-6.11-4-13.13-6.48-19.52-10s-12.45-8.74-14.47-15.78c-3.63,6.85-6.55,17.32-6.5,30.46C307.91,499.92,338.76,495.31,341.74,493.72Z" transform="translate(-1.26)"/><path class="cls-2" d="M400.59,766.7c2.06,1.63,7.76,5.46,10.88,7.43.82.52,2.47-3.31,13-7.26,28.34-10.63,53.78-13.7,81.12-13.28a7.89,7.89,0,0,0,3.83-.57,5,5,0,0,0,2-2.58c6.41-14.76.38-30.91-7.15-45-1.54-2.88-10.91-13.05-16.16-13.86-24.94-3.85-73.63.85-93.26,18.2C378.61,724.15,385.91,755,400.59,766.7Z" transform="translate(-1.26)"/><path class="cls-1" d="M314.17,357.45c13.42-.92,26.72,2.85,39.35,7.5,6.86,2.51,13.73,5.37,19.33,10.05s9.66,11,13.47,17.22c-2.07-18.43-4.19-37-10.33-54.54-2.4-6.83-5.74-13.85-11.92-17.63-5.44-3.32-12.18-3.56-18.54-3.16-13.34.85-27.68,4.89-35.37,15.82-3.57,5.07-5.48,11.26-6.6,17.31C302.2,357.33,308.06,357.87,314.17,357.45Z" transform="translate(-1.26)"/><path class="cls-2" d="M295,346.77c1.65,1.77,6.27,6,8.8,8.19.67.57,2.31-3.13,11.51-6.32,24.76-8.59,46.61-9.83,69.86-7.46a5.72,5.72,0,0,0,3.29-.3,4.82,4.82,0,0,0,1.88-2.43c6.35-14.26,1-30.6-4.5-45.17-1.14-3-2.37-6.09-4.78-8.26-3.26-2.93-8.16-7.3-12.59-7.82-21.43-2.48-57.12-3.5-74.89,12.4C278.89,302.76,283.22,334.08,295,346.77Z" transform="translate(-1.26)"/><path class="cls-8" d="M293.23,316.39a7.73,7.73,0,0,0,2.69,4.43c2.39,1.65,5.8.68,8-1.23s3.54-4.57,5.27-6.9c7.39-10,20.55-13.13,32.15-17.49a6.73,6.73,0,0,0,3.3-2.09c1.22-1.76.45-4.35-1.16-5.76a11.45,11.45,0,0,0-5.94-2.24C319.19,282.31,286.21,291.44,293.23,316.39Z" transform="translate(-1.26)"/><path class="cls-8" d="M398.42,716.52c-3.06,3.48-5.86,7.34-7.18,11.78s-1,9.58,1.83,13.28,8.35,5.36,12.36,3c4.79-2.79,5.46-9.25,7.15-14.54A29.5,29.5,0,0,1,427.2,713c6.13-3.1,13.11-3.93,19.69-5.9,2.26-.68,5-2.82,3.7-4.8a3.87,3.87,0,0,0-3-1.28C430.86,699.2,410,703.38,398.42,716.52Z" transform="translate(-1.26)"/><path class="cls-8" d="M399.93,108.08c-.23,5.35,2.91,11.65,8.26,11.81,5.74.18,9-6.27,11.65-11.35,7.07-13.44,19.6-23.36,33.25-30s28.52-10.33,43.26-14c-9.36,2.3-21.56,0-31.41,1.3a170.13,170.13,0,0,0-32.1,7.52C419.45,78,400.58,92.67,399.93,108.08Z" transform="translate(-1.26)"/><path class="cls-8" d="M68.55,223.6c35-5.15,70.92.69,106.06-3.64,1-.12,2.09-.38,2.4-1.29.45-1.28-1.14-2.29-2.43-2.71-19.49-6.38-40.43-7.39-60.83-5.4s-40.41,6.89-60.23,12.13c-11.09,2.93-22.3,6-32.16,11.91C37,230.65,52.53,226,68.55,223.6Z" transform="translate(-1.26)"/><path class="cls-8" d="M516.16,590.6c5.92,1,12-.55,18-.51,7.14,0,14,2.35,20.83,4.48,1.89.59,3.92,1.18,5.82.65,2.88-.8,4.58-4.05,4.31-7a11.73,11.73,0,0,0-4.42-7.51c-5.55-4.74-13.21-6-20.48-6.64s-18.64-1.91-25.45,1.49C508.13,578.84,508.28,589.21,516.16,590.6Z" transform="translate(-1.26)"/></svg>