<svg id="Layer_2" data-name="Layer 2" xmlns="http://www.w3.org/2000/svg" viewBox="0 0 623.67 816.37"><defs><style>.cls-1{fill:#8dc4c6;}.cls-2{fill:#3a3734;}.cls-3{fill:#efac9e;}.cls-4,.cls-7{fill:#fff;}.cls-5{fill:#fff3e3;}.cls-6{fill:#232120;}.cls-7{opacity:0.22;}.cls-8{fill:#e3fffe;}.cls-9{fill:#39b4ea;}.cls-10{fill:#2d90b2;}.cls-11{fill:#288199;}.cls-12{fill:#34d399;}</style></defs><title>2 panda</title><path class="cls-1" d="M657,780.23c0,10.9-110.54,19.73-246.9,19.73s-246.9-8.83-246.9-19.73S273.7,760.5,410.06,760.5,657,769.34,657,780.23Z" transform="translate(-102.8 16.41)"/><path class="cls-2" d="M148.57,313.4c-5.48-3.91-12-8.65-17.8-5.19-3.22,2.43-1.72,6-.86,8.72-3.17-6.35-10.85-10.87-17.53-8.47s-9,13.11-3,16.83c-2.76-.87-5.7,1.59-6.37,4.4s.28,5.76,1.35,8.45c12.34,31.11,40.91,53.24,71.45,66.92,46.15,20.68,102.57,24.33,145.86-1.81,14.08-8.5,27.07-21.06,30-37.24,3.39-18.54-7.84-37.64-23.83-47.62-16.39-10.22-32.69-8.67-44.51,6.48-10.06,12.89-18.63,14.63-35.75,15.84C212.8,343.18,177.07,333.67,148.57,313.4Z" transform="translate(-102.8 16.41)"/><path class="cls-3" d="M148.06,334.84a13.59,13.59,0,0,1,3.21,7.6,9.65,9.65,0,0,1-2.79,7.61,11.36,11.36,0,0,1-6.43,2.75,13.42,13.42,0,0,1-3.85,0c-3.25-.56-6.07-2.6-8.41-4.91a18.47,18.47,0,0,1-4.54-6.51,9.52,9.52,0,0,1,7.41-12.84C138.11,327.59,144.67,330.72,148.06,334.84Z" transform="translate(-102.8 16.41)"/><path class="cls-3" d="M143.77,319.12a3.8,3.8,0,0,1,0,1.71,3,3,0,0,1-2.59,2.11,4.86,4.86,0,0,1-3.32-1,7.22,7.22,0,0,1-2.9-6,4.66,4.66,0,0,1,1.26-3.18C139.45,309.63,143.25,316.61,143.77,319.12Z" transform="translate(-102.8 16.41)"/><path class="cls-3" d="M117.83,313.79c3.48,1.18,6.59,3.87,7.53,7.42a5.1,5.1,0,0,1-.14,3.49,4.58,4.58,0,0,1-5,2.16,9.46,9.46,0,0,1-4.86-3,9.29,9.29,0,0,1-2.89-5.51C112.29,315.27,114.8,312.78,117.83,313.79Z" transform="translate(-102.8 16.41)"/><path class="cls-4" d="M645.59,528.16a48.09,48.09,0,0,1,10.29,14.28,57.67,57.67,0,0,1-39.28,81.32c-13.73,3.09-29.19.63-39.72-8.72-5.09-4.52-8.81-10.39-12-16.44-10.56-20.4-11.78-50.17,7-66.68C591.19,515,625.9,509.76,645.59,528.16Z" transform="translate(-102.8 16.41)"/><path class="cls-5" d="M646.32,527.83a42.17,42.17,0,0,0-18.45-9.91l.44.39a47.88,47.88,0,0,1,10.28,14.28,57.65,57.65,0,0,1-39.28,81.32,50.42,50.42,0,0,1-22.6-.06c.3.29.59.59.9.86,10.53,9.35,26,11.81,39.72,8.72a57.65,57.65,0,0,0,39.27-81.32A48,48,0,0,0,646.32,527.83Z" transform="translate(-102.8 16.41)"/><path class="cls-2" d="M208.21,697.66c-4.77-.4-9.9.88-13.18,4.36s-4.09,9.42-1,13.1c-2.9,2.09-3.21,6.39-2.21,9.82,1.61,5.49,5.65,9.89,9.71,13.92,8.42,8.34,17.53,16.1,27.79,22,4.66,2.69,9.73,5.05,15.11,5.14,4.75.09,9.33-1.59,13.71-3.42,8.18-3.41,18.73-11.14,29.81-14.58,9.49-2.94-7-21.24-12.69-29.39s-30.34-12.67-22.68-19c3.66-3,.77-10.08-6.09-4.39C235.12,704.67,216.77,698.39,208.21,697.66Z" transform="translate(-102.8 16.41)"/><path class="cls-2" d="M324.06,600.76a74,74,0,0,0-41.6,25.51c-7,8.6-11.91,18.65-16.78,28.6q-16.27,33.28-32.57,66.58c-4.83,9.88-9.08,23.3-.82,30.57,5.42,4.76,13.57,4.09,20.69,3A453.78,453.78,0,0,0,385.2,712.52c8.92-4.48,17.94-9.44,24.25-17.19C449.85,645.66,369.42,591.05,324.06,600.76Z" transform="translate(-102.8 16.41)"/><path class="cls-4" d="M514.85,404.34,404,332,292.33,280.92S223,456.75,266.23,589.81C282,638.39,329.5,699.11,375.68,703.59s95.42-9.32,95.42-9.32,48.47-16.26,84.15-45.93,42.7-67.9,29-117.11S514.85,404.34,514.85,404.34Z" transform="translate(-102.8 16.41)"/><path class="cls-5" d="M514.85,404.34,465,386.92c17.38,26.27,55.43,97.9,64.83,131.69,13.7,49.21,6.67,87.43-29,117.11s-84.15,45.92-84.15,45.92-34.4,9.57-106.08-17.3c7.78,10.83,22.27,35.23,65.13,39.25,46.2,4.34,95.42-9.32,95.42-9.32s48.47-16.26,84.15-45.93,42.7-67.9,29-117.11S514.85,404.34,514.85,404.34Z" transform="translate(-102.8 16.41)"/><path class="cls-2" d="M515.23,397.09l-110.9-72.35L292.71,273.67s-29.1,73.84-37.83,162a66.58,66.58,0,0,0,7.46-4.08c30-17.86,68.43-20.8,100.81-7.73,21,8.48,39,23,58.88,33.84a186.36,186.36,0,0,0,84.26,22.58c18.47.45,35.23-.61,49.88-11A682.33,682.33,0,0,0,515.23,397.09Z" transform="translate(-102.8 16.41)"/><path class="cls-2" d="M556.68,754.15c-1.7,4.47-1.89,9.75.56,13.86s7.93,6.52,12.31,4.59c1.22,3.37,5.26,4.84,8.84,4.82,5.72,0,11.06-2.71,16.05-5.5,10.34-5.79,20.3-12.41,28.83-20.65,3.87-3.74,7.53-8,9.1-13.11,1.39-4.54,1-9.41.49-14.13-1-8.79-9.79-36.48-16.33-49-4.6-8.81-11.83,17.24-21.24,20.46s-17.23,9.81-24.51,16.58c-6.22,5.78-13.3,3.27-10.72,11.8C563.72,735.92,559.73,746.11,556.68,754.15Z" transform="translate(-102.8 16.41)"/><path class="cls-2" d="M204.19,149.43S100.53,74.89,186.4,3.76c75.7-62.7,132.15,40.8,132.15,40.8Z" transform="translate(-102.8 16.41)"/><path class="cls-3" d="M221.13,114.73s-57.84-41.59-9.93-81.28c42.24-35,73.74,22.77,73.74,22.77Z" transform="translate(-102.8 16.41)"/><path class="cls-6" d="M173.46,16.43C246-43.66,300.86,48.87,305.31,56.7l13.24-12.14S262.1-58.94,186.4,3.76a126.8,126.8,0,0,0-14.47,14C172.44,17.28,172.94,16.85,173.46,16.43Z" transform="translate(-102.8 16.41)"/><path class="cls-7" d="M162.06,53.23c-2.08,8.15-2.19,17,.73,24.72,1.36,3.62,3.87,7.32,7.6,7.76,3.36.4,6.64-2.19,8-5.43s1.17-7,.38-10.38-2.15-6.64-3-10a37.81,37.81,0,0,1,2.56-25.45c.76-1.58,1.6-3.6.53-4.93C173.17,22.46,162.79,50.35,162.06,53.23Z" transform="translate(-102.8 16.41)"/><path class="cls-2" d="M566.87,115s89.92-90.64,146.65,5.34c50,84.63-61.07,124.09-61.07,124.09Z" transform="translate(-102.8 16.41)"/><path class="cls-3" d="M598.48,137.21s50.17-50.58,81.82,3c27.91,47.22-34.08,69.24-34.08,69.24Z" transform="translate(-102.8 16.41)"/><path class="cls-6" d="M703.06,105.59C751,186.69,651,226.31,642.54,229.47l9.91,15S763.54,205,713.52,120.36A125.74,125.74,0,0,0,702,103.89Z" transform="translate(-102.8 16.41)"/><path class="cls-7" d="M668.5,88.55c-7.72-3.34-16.4-4.84-24.53-3.17-3.79.78-7.83,2.67-8.85,6.29-.92,3.26,1.11,6.9,4.1,8.76s6.7,2.25,10.19,2,6.9-1.07,10.38-1.39a37.76,37.76,0,0,1,24.73,6.52c1.44,1,3.3,2.15,4.79,1.3C697.15,104.36,671.23,89.72,668.5,88.55Z" transform="translate(-102.8 16.41)"/><path class="cls-4" d="M654.52,265.56c7.32-52.22-11-126.09-66.38-176.36C536.83,42.62,392.64,6.1,314.19,25.83c-65,16.37-116.47,78.51-132.82,128.65S157.85,297.3,227.83,334.1s223.51,72.31,302.54,70S647.2,317.78,654.52,265.56Z" transform="translate(-102.8 16.41)"/><path class="cls-5" d="M654.88,265.64c7-50.09-9.58-120.1-59.83-170.1,21.89,41,28.64,86.08,23.7,121.29C611.43,269.05,573.63,353,494.6,355.35s-232.56-33.17-302.54-70a105.29,105.29,0,0,1-12.49-7.72c8.39,23,23.56,43.34,48.62,56.52,70,36.8,223.51,72.32,302.54,70S647.56,317.86,654.88,265.64Z" transform="translate(-102.8 16.41)"/><path class="cls-2" d="M305.68,84.91c-17,6.52-32.35,16.64-46.81,27.67-18.31,14-36,30.38-44.34,51.85-1.47,3.77-7.29,21.23,7.53,40.36,6.17,8,15.45,13.09,25.26,15.35,49.27,11.4,74.9-13.28,80.9-19.2,18.6-18.34,32.88-40.74,52-58.57,5.89-5.51,11.45-11.46,14.45-19,5.43-13.58-3.28-46.28-49.32-45.67A114.91,114.91,0,0,0,305.68,84.91Z" transform="translate(-102.8 16.41)"/><path class="cls-2" d="M559.41,143.54c12.4,13.3,21.79,29.13,30,45.38,10.33,20.59,19,43.08,17.14,66-.33,4-2.76,22.27-24.46,33-9,4.46-19.62,5-29.43,2.74-49.29-11.34-61.51-44.76-64.31-52.71-8.68-24.63-11.7-51-21-75.42-2.89-7.53-5.27-15.31-4.69-23.35,1.07-14.6,23.22-40.18,64.34-19.45A114.88,114.88,0,0,1,559.41,143.54Z" transform="translate(-102.8 16.41)"/><path class="cls-2" d="M449.7,198.4c-10.07-7.28-28.93-13.28-31.73-13.14-2.47-1.36-22-4.25-34.29-2.13-6.66,1.16-12.8,6.7-14.33,13.29-2.5,10.76,3.34,14.59,6.75,17.13,7.53,5.64,16.55,10,21.48,18,1.26,2.05,2.22,4.3,3.81,6.11a7.94,7.94,0,0,0,3.89,2.46,7.86,7.86,0,0,0,4.58-.51c2.22-.92,4.08-2.52,6.11-3.81,7.94-5,17.94-5,27.18-6.72,4.18-.79,11.11-1.66,13.59-12.42C458.26,210,455.18,202.37,449.7,198.4Z" transform="translate(-102.8 16.41)"/><path class="cls-7" d="M377.56,195.17a6.27,6.27,0,0,0,4.07,6.29c2.58.89,5.44,0,7.83-1.34s4.58-3,7.17-3.91c5.66-1.92,11.9.58,17.84-.18a3,3,0,0,0,2.32-1.16,2.17,2.17,0,0,0-.54-2.48,6,6,0,0,0-2.4-1.23C406.84,188.89,378.7,182.29,377.56,195.17Z" transform="translate(-102.8 16.41)"/><path class="cls-6" d="M351.32,137.39a34.05,34.05,0,1,1-25.5-40.85A34,34,0,0,1,351.32,137.39Z" transform="translate(-102.8 16.41)"/><path class="cls-4" d="M350.52,140.86A34.05,34.05,0,1,1,325,100,34.05,34.05,0,0,1,350.52,140.86Z" transform="translate(-102.8 16.41)"/><path class="cls-8" d="M347.91,118a34.05,34.05,0,0,1-63.53,23.33A34.05,34.05,0,1,0,347.91,118Z" transform="translate(-102.8 16.41)"/><path class="cls-9" d="M337.67,139.47A22.21,22.21,0,1,1,321,112.83,22.21,22.21,0,0,1,337.67,139.47Z" transform="translate(-102.8 16.41)"/><path class="cls-10" d="M329.1,116.5a22.21,22.21,0,0,1-32.39,28.91A22.21,22.21,0,1,0,329.1,116.5Z" transform="translate(-102.8 16.41)"/><path class="cls-6" d="M330.18,137.74a13.53,13.53,0,1,1-10.13-16.23A13.52,13.52,0,0,1,330.18,137.74Z" transform="translate(-102.8 16.41)"/><path class="cls-4" d="M298.48,128.08a8.86,8.86,0,0,0-.33,3.23,3.91,3.91,0,0,0,1.55,2.76,4,4,0,0,0,3.45.33,9.87,9.87,0,0,0,3-1.87,21.83,21.83,0,0,0,6.94-9.41,3.13,3.13,0,0,0-.05-2.86,2.84,2.84,0,0,0-1.43-.93C305.72,117.23,299.87,122.63,298.48,128.08Z" transform="translate(-102.8 16.41)"/><path class="cls-11" d="M316.05,157.63a23.17,23.17,0,1,1,22.54-17.95A23.12,23.12,0,0,1,316.05,157.63Zm0-44.43a21.27,21.27,0,1,0,4.82.55A21.14,21.14,0,0,0,316,113.2Z" transform="translate(-102.8 16.41)"/><path class="cls-4" d="M317.63,115.94a3.17,3.17,0,0,0-1.49.52,1.53,1.53,0,0,0-.67,1.36c.09.72.79,1.2,1.47,1.47a7.3,7.3,0,0,0,3.55.48,3.17,3.17,0,0,0,1.76-.66,1.53,1.53,0,0,0,.49-1.7,1.93,1.93,0,0,0-.73-.77,5.1,5.1,0,0,0-4.23-.67Z" transform="translate(-102.8 16.41)"/><path class="cls-6" d="M558.94,183.54a34.05,34.05,0,1,1-25.5-40.85A34.05,34.05,0,0,1,558.94,183.54Z" transform="translate(-102.8 16.41)"/><path class="cls-4" d="M558.14,187a34.05,34.05,0,1,1-25.5-40.85A34.05,34.05,0,0,1,558.14,187Z" transform="translate(-102.8 16.41)"/><path class="cls-8" d="M555.53,164.13A34.05,34.05,0,0,1,492,187.46a34,34,0,1,0,63.53-23.33Z" transform="translate(-102.8 16.41)"/><path class="cls-9" d="M545.29,185.62A22.21,22.21,0,1,1,528.66,159,22.21,22.21,0,0,1,545.29,185.62Z" transform="translate(-102.8 16.41)"/><path class="cls-10" d="M536.72,162.65a22.22,22.22,0,0,1-32.39,28.91,22.21,22.21,0,1,0,32.39-28.91Z" transform="translate(-102.8 16.41)"/><path class="cls-6" d="M537.8,183.88a13.53,13.53,0,1,1-10.14-16.23A13.54,13.54,0,0,1,537.8,183.88Z" transform="translate(-102.8 16.41)"/><path class="cls-4" d="M506.1,174.23a8.58,8.58,0,0,0-.33,3.22,3.58,3.58,0,0,0,5,3.09,9.46,9.46,0,0,0,3-1.87,21.74,21.74,0,0,0,7-9.4,3.21,3.21,0,0,0,0-2.87,3,3,0,0,0-1.43-.93C513.34,163.37,507.49,168.77,506.1,174.23Z" transform="translate(-102.8 16.41)"/><path class="cls-11" d="M523.67,203.77a23.27,23.27,0,0,1-5.24-.6,23.16,23.16,0,0,1,5.2-45.72,23.21,23.21,0,0,1,5.24.6,23.16,23.16,0,0,1-5.2,45.72Zm0-44.43a21.27,21.27,0,0,0-4.77,42,21.71,21.71,0,0,0,4.81.55,21.27,21.27,0,0,0,4.77-42A21.71,21.71,0,0,0,523.63,159.34Z" transform="translate(-102.8 16.41)"/><path class="cls-4" d="M525.25,162.08a3.25,3.25,0,0,0-1.49.52,1.53,1.53,0,0,0-.67,1.36c.08.73.79,1.2,1.47,1.47a7.3,7.3,0,0,0,3.55.48,3.2,3.2,0,0,0,1.75-.65,1.54,1.54,0,0,0,.49-1.71,1.9,1.9,0,0,0-.72-.77,5.1,5.1,0,0,0-4.23-.67Z" transform="translate(-102.8 16.41)"/><path class="cls-12" d="M410,40.52a21.29,21.29,0,0,0,17.55-15.06,21.28,21.28,0,0,0-7.26-22A34.56,34.56,0,0,1,443.3,17C446.19,9.55,452,3.58,458.73-.72S473-7.79,480.5-10.32A47,47,0,0,0,469,23.56a17.71,17.71,0,0,1,9.8-2.38,16,16,0,0,0-4.84,13.71c.68,4.79,3.51,9,4.62,13.74a9.83,9.83,0,0,1-.31,6.41c-1.56,3.28-5.47,4.63-9,5.37-15.84,3.28-32.31,1-48.1-2.61-4.88-1.1-10.85-3.68-10.7-8.68.1-3.44,3.21-5.92,6.1-7.78Z" transform="translate(-102.8 16.41)"/><path class="cls-2" d="M473.25,643.79A74,74,0,0,0,497,686.44c8.3,7.34,18.13,12.69,27.86,18L590,739.78c9.67,5.26,22.89,10.07,30.51,2.12,5-5.21,4.65-13.38,3.83-20.54a453.45,453.45,0,0,0-36.81-133.9c-4.09-9.11-8.67-18.33-16.14-25C523.45,520,465.47,598.06,473.25,643.79Z" transform="translate(-102.8 16.41)"/><path class="cls-6" d="M437.76,449.4c-5.37,11.18-7.51,23.89-14.27,34.29-10.25,15.77-29,23.34-46.7,29.79-4.09,1.49-8.56,3.29-10.54,7.17s.93,10,5.18,9.08c-3.85,2.6-7.82,5.31-10.33,9.22s-3.21,9.39-.4,13.1c3.66,4.83,10.89,4.48,16.89,3.65-3.3,2.81-.86,8.78,3.21,10.26s8.56,0,12.61-1.57a611.71,611.71,0,0,0,79.81-37.13c16.13-9,32.17-18.94,43.88-33.21s18.57-33.63,13.87-51.48C517.76,392.5,454.2,415.15,437.76,449.4Z" transform="translate(-102.8 16.41)"/><path class="cls-7" d="M461.87,439.58A86.25,86.25,0,0,0,454.38,452q-4.62,8.66-9.22,17.32a6.24,6.24,0,0,0-1,3.25c.13,2.17,2.6,3.62,4.76,3.38s4-1.68,5.54-3.23c8.47-8.59,12.27-22.42,23.49-26.85,4.17-1.65,8.77-1.68,13.24-2s9.15-1,12.71-3.77,5.49-8.05,3.12-11.86c-3.94-6.34-17.75-5.88-24.12-4.13C474.86,426.25,466.8,433.17,461.87,439.58Z" transform="translate(-102.8 16.41)"/><path class="cls-2" d="M351.32,252.52s18.14,19.76,44.89,27c28.23,7.62,55.29-6.35,55.29-6.35s-17.48,64-62.42,54.72S351.32,252.52,351.32,252.52Z" transform="translate(-102.8 16.41)"/><path class="cls-3" d="M399.35,302.72c-5.15-4.52-12.94-6-19.64-4.49a27.66,27.66,0,0,0-16.06,10.9c-.28.39-.52.79-.77,1.18a40.61,40.61,0,0,0,26.17,17.55c18.43,3.83,32.24-4.69,42.12-16.07a26.81,26.81,0,0,0-7.3-7.09C416.69,300,406.71,298.94,399.35,302.72Z" transform="translate(-102.8 16.41)"/></svg>