<svg id="Layer_3" data-name="Layer 3" xmlns="http://www.w3.org/2000/svg" viewBox="0 0 652.13 762.91"><defs><style>.cls-1{fill:#8dc4c6;}.cls-2,.cls-7{fill:#fff;}.cls-3{fill:#fff3e3;}.cls-4{fill:#3a3734;}.cls-5{fill:#232120;}.cls-6{fill:#efac9e;}.cls-7{opacity:0.22;}.cls-8{fill:#e3fffe;}.cls-9{fill:#39b4ea;}.cls-10{fill:#2d90b2;}.cls-11{fill:#288199;}.cls-12{fill:#db587a;}.cls-13{fill:#f76692;}</style></defs><title>3 panda</title><ellipse class="cls-1" cx="323.24" cy="729.59" rx="323.24" ry="33.32"/><path class="cls-2" d="M512.44,443.61,385.34,427.9,258.25,443.61s-30.39,85.8-29,134.14,19.34,81,62.17,97.88,93.93,18.13,93.93,18.13,51.12-1.21,93.94-18.13,60.78-49.55,62.16-97.88S512.44,443.61,512.44,443.61Z" transform="translate(-60.73 10.87)"/><path class="cls-3" d="M512.44,443.61l-41.32-5.11C480,467.11,494,518,493.09,551.16c-1.38,48.34-19.34,81-62.16,97.88S337,667.17,337,667.17s-40.71-1-79.91-13.19c9,8.89,20.31,16.12,34.32,21.65,42.82,16.92,93.93,18.13,93.93,18.13s51.12-1.21,93.94-18.13,60.78-49.55,62.16-97.88S512.44,443.61,512.44,443.61Z" transform="translate(-60.73 10.87)"/><path class="cls-4" d="M534,524.33c0-41.13-21.87-85.23-21.87-85.23L385.32,427.8,258.23,444.39s-20,44.07-23.38,89a194.36,194.36,0,0,1,74.63-44.77c34.34-11,71.4-13.36,107.65-10.78C507.53,484.24,533.21,523.65,534,524.33Z" transform="translate(-60.73 10.87)"/><path class="cls-4" d="M612,620.17c18.81,25.88,39.69,27.72,50,44.75,9.1,15,7.27,30.49-3.79,43.45-8.68,10.17-10,14-22.08,14.09-21.71.16-55.11-6-76.45-10.81-26.8-6-53.5-12.61-80.19-19.21-7.59-1.88-16.41-5-18.95-13.78-3.06-10.53,5.07-20.58,12.36-27.49l64.61-61.26C556,572.39,577.14,572.16,612,620.17Z" transform="translate(-60.73 10.87)"/><path class="cls-5" d="M672.51,710.31c20-21.37,27.78-59,28.74-71.41.24-3,1.11-8.77-1.62-12.53a9.35,9.35,0,0,0-10-3.67,13.48,13.48,0,0,0-3-11.42,22.44,22.44,0,0,0-10.11-6.62,23.09,23.09,0,0,0-11.68-1.28,14.3,14.3,0,0,0-9.73,6.21c-5.63-5.66-15.43-5.13-22.08-.72s-10.74,11.75-13.92,19.07a136.49,136.49,0,0,0-11.25,56.25c.13,8.56,1.17,17.4,5.44,24.83,3.51,6.1,10.32,12,17.69,12.32C633.81,721.46,656.43,727.48,672.51,710.31Z" transform="translate(-60.73 10.87)"/><path class="cls-6" d="M678.29,656.4c.48,7.4-1.85,14.68-4.62,21.56A79.47,79.47,0,0,1,667,691.39c-3.11,4.84-7.21,9.31-12.56,11.44s-12.1,1.41-16-2.84c-2.44-2.68-3.48-6.33-4.23-9.88a97.12,97.12,0,0,1-1.17-33.87,30.87,30.87,0,0,1,2.7-9.78,20.8,20.8,0,0,1,13.3-10.28C663.45,632.46,677.31,641.31,678.29,656.4Z" transform="translate(-60.73 10.87)"/><path class="cls-6" d="M674,618a14.12,14.12,0,0,1-1.42,6,13.48,13.48,0,0,1-3.06,4.85,5,5,0,0,1-8.64-2.19,13,13,0,0,1-.38-5c.24-3.05.91-6.25,3-8.49C668,608.23,673.75,612.28,674,618Z" transform="translate(-60.73 10.87)"/><path class="cls-6" d="M690.42,642c-1.14,1.73-3.07,3.23-5.1,2.86a4.52,4.52,0,0,1-3.32-3.51,12.11,12.11,0,0,1,3.44-10.11C692.68,625.62,692.93,638.14,690.42,642Z" transform="translate(-60.73 10.87)"/><path class="cls-6" d="M646.25,628.71c-.43,1.75-1.2,3.62-2.83,4.37a4.49,4.49,0,0,1-4.66-1,9.89,9.89,0,0,1-2.52-4.28,14.43,14.43,0,0,1-.56-8.63c1-3.29,5.13-7.61,8.67-5.06C648.16,616.88,647.19,624.89,646.25,628.71Z" transform="translate(-60.73 10.87)"/><path class="cls-4" d="M173.18,624.46c-19,25.78-39.84,27.51-50.25,44.48-9.18,15-7.43,30.45,3.56,43.47,8.62,10.21,9.88,14.05,22,14.21,21.71.28,55.14-5.73,76.51-10.4,26.83-5.86,53.56-12.32,80.29-18.78,7.6-1.84,16.43-4.91,19-13.68,3.11-10.52-5-20.6-12.22-27.55L247.82,594.6C229.43,577,208.32,576.64,173.18,624.46Z" transform="translate(-60.73 10.87)"/><path class="cls-5" d="M112.21,714.28c-19.89-21.49-27.46-59.14-28.37-71.57-.21-3-1-8.77,1.7-12.52a9.34,9.34,0,0,1,10-3.62,13.47,13.47,0,0,1,3.07-11.4,22.49,22.49,0,0,1,10.14-6.57,23.22,23.22,0,0,1,11.69-1.22,14.35,14.35,0,0,1,9.7,6.27c5.65-5.63,15.46-5,22.08-.6s10.68,11.8,13.82,19.14A136.45,136.45,0,0,1,177,688.5c-.17,8.57-1.25,17.4-5.56,24.8-3.55,6.08-10.39,12-17.76,12.23C150.84,725.63,128.19,731.54,112.21,714.28Z" transform="translate(-60.73 10.87)"/><path class="cls-6" d="M106.72,660.34c-.52,7.39,1.77,14.69,4.5,21.58a80.19,80.19,0,0,0,6.57,13.46c3.08,4.87,7.16,9.36,12.5,11.51s12.09,1.48,16-2.76c2.46-2.66,3.51-6.31,4.29-9.85a97.08,97.08,0,0,0,1.35-33.86,30.91,30.91,0,0,0-2.65-9.8A20.8,20.8,0,0,0,136,640.28C121.68,636.48,107.77,645.25,106.72,660.34Z" transform="translate(-60.73 10.87)"/><path class="cls-6" d="M111.26,622a14.16,14.16,0,0,0,1.39,6,13.62,13.62,0,0,0,3,4.86,5.6,5.6,0,0,0,5.31,1.47,5.52,5.52,0,0,0,3.34-3.61,13,13,0,0,0,.41-5c-.22-3.05-.87-6.26-2.95-8.51C117.29,612.22,111.49,616.24,111.26,622Z" transform="translate(-60.73 10.87)"/><path class="cls-6" d="M94.66,645.84c1.13,1.73,3,3.25,5.09,2.89a4.53,4.53,0,0,0,3.34-3.49,9.85,9.85,0,0,0-.39-5,9.75,9.75,0,0,0-3-5.09C92.49,629.48,92.17,642,94.66,645.84Z" transform="translate(-60.73 10.87)"/><path class="cls-6" d="M138.9,632.82c.42,1.75,1.18,3.62,2.81,4.38a4.47,4.47,0,0,0,4.66-.94,9.76,9.76,0,0,0,2.55-4.26,14.43,14.43,0,0,0,.6-8.63c-1-3.29-5.08-7.63-8.64-5.11C137.06,621,138,629,138.9,632.82Z" transform="translate(-60.73 10.87)"/><path class="cls-5" d="M199.28,594.85c15,52.16,39.67,105.32,85.73,134,4.55,2.84,9.67,5.49,15,4.85s10.3-6.05,8.51-11.1a14.06,14.06,0,0,0,27.55-4.49c-2.35,6.22,10,8.42,12.72,2.36s-1.12-12.9-4.69-18.51c-13.65-21.46-25.19-44.7-29.94-69.69s-2.25-52,10.66-73.9c16.79-28.52,50.64-49.23,52.6-82.27,1.27-21.45-12.66-41.71-30.95-53s-40.26-14.9-61.71-16c-39.75-2.08-70,4.5-86.63,42.06C177.69,495.38,185.78,547.94,199.28,594.85Z" transform="translate(-60.73 10.87)"/><path class="cls-5" d="M574.89,592.76C560.25,645,536,698.36,490.11,727.39c-4.52,2.86-9.62,5.55-14.94,5s-10.35-6-8.59-11A14.06,14.06,0,0,1,439,717c2.4,6.2-9.92,8.49-12.7,2.44s1-12.9,4.56-18.54C444.35,679.35,455.72,656,460.3,631s1.88-52-11.18-73.82c-17-28.41-51-48.87-53.19-81.9-1.42-21.43,12.37-41.79,30.57-53.19s40.16-15.19,61.6-16.46c39.73-2.36,70,4,86.92,41.44C595.78,493.14,588.05,545.75,574.89,592.76Z" transform="translate(-60.73 10.87)"/><path class="cls-5" d="M378.39,524.42c20.07-3.55,41.74.12,58.38,11.9,8,5.69,16,13.54,25.84,12.76,11.12-.89,18.12-12.65,20.31-23.58,5.5-27.36-7.92-56.56-30.09-73.51s-51.67-22.53-79.36-19c-19.13,2.4-38.35,9.28-51.94,23-14.15,14.26-20.77,34.32-24.66,54-3.53,17.94,5.58,39.26,27.41,36.61,8.47-1,16-7.1,23.33-11A102.53,102.53,0,0,1,378.39,524.42Z" transform="translate(-60.73 10.87)"/><path class="cls-4" d="M190.41,243.69S85,171.65,169.13,98.49c74.18-64.5,133.09,37.62,133.09,37.62Z" transform="translate(-60.73 10.87)"/><path class="cls-6" d="M206.51,208.59s-58.82-40.19-11.87-81c41.39-36,74.26,21,74.26,21Z" transform="translate(-60.73 10.87)"/><path class="cls-5" d="M156.5,111.46c71.08-61.81,128.14,29.38,132.78,37.1l12.94-12.45S243.31,34,169.13,98.49A124.4,124.4,0,0,0,155,112.78C155.5,112.34,156,111.9,156.5,111.46Z" transform="translate(-60.73 10.87)"/><path class="cls-7" d="M146,148.53c-1.88,8.19-1.78,17,1.33,24.69,1.45,3.59,4,7.22,7.78,7.57,3.37.32,6.59-2.34,7.88-5.62s1-7,.12-10.38-2.3-6.59-3.25-10a37.78,37.78,0,0,1,1.95-25.49c.72-1.61,1.51-3.65.41-5C156.35,117.49,146.65,145.63,146,148.53Z" transform="translate(-60.73 10.87)"/><path class="cls-4" d="M552.16,200.6s87.72-92.77,146.74,1.83c52,83.4-58.09,125.51-58.09,125.51Z" transform="translate(-60.73 10.87)"/><path class="cls-6" d="M584.29,222s48.94-51.76,81.87,1c29,46.54-32.41,70-32.41,70Z" transform="translate(-60.73 10.87)"/><path class="cls-5" d="M688.08,187.91c49.86,79.92-49.17,121.93-57.53,125.3l10.26,14.73s110.12-42.11,58.09-125.51A125.94,125.94,0,0,0,687,186.23Z" transform="translate(-60.73 10.87)"/><path class="cls-7" d="M653.13,171.7c-7.8-3.15-16.52-4.44-24.6-2.58-3.77.87-7.77,2.85-8.7,6.5-.85,3.28,1.27,6.87,4.31,8.66s6.75,2.09,10.23,1.76,6.87-1.24,10.35-1.65a37.82,37.82,0,0,1,24.87,5.93c1.47,1,3.36,2.07,4.83,1.18C682.14,186.82,655.88,172.81,653.13,171.7Z" transform="translate(-60.73 10.87)"/><path class="cls-2" d="M643.39,349c6.07-52.38-14-125.78-70.59-174.72-52.41-45.33-197.43-78.39-275.38-56.78-64.62,17.92-114.56,81.28-129.71,131.79s-20.09,143.34,50.75,178.46,225.18,66.93,304.13,62.71S637.32,401.37,643.39,349Z" transform="translate(-60.73 10.87)"/><path class="cls-3" d="M643.76,349.07c5.82-50.25-12.46-119.84-63.89-168.62,22.86,40.49,30.68,85.37,26.59,120.69-6.07,52.38-41.84,137.23-120.79,141.45S252.38,415,181.54,379.88a103.23,103.23,0,0,1-12.67-7.41c8.94,22.79,24.59,42.77,50,55.34C289.67,462.93,444,494.75,523,490.52S637.69,401.45,643.76,349.07Z" transform="translate(-60.73 10.87)"/><path class="cls-4" d="M290.32,176.76c-16.82,6.92-31.94,17.4-46.13,28.78-18,14.41-35.25,31.23-43.09,52.89-1.38,3.81-6.77,21.4,8.5,40.17,6.35,7.81,15.76,12.71,25.62,14.75,49.53,10.21,74.56-15.08,80.42-21.14,18.15-18.78,31.89-41.52,50.54-59.8,5.76-5.65,11.17-11.72,14-19.28,5.11-13.72-4.38-46.2-50.39-44.48A114.57,114.57,0,0,0,290.32,176.76Z" transform="translate(-60.73 10.87)"/><path class="cls-4" d="M545.38,229.29c12.72,13,22.49,28.6,31,44.65,10.83,20.33,20.06,42.61,18.72,65.6-.24,4-2.22,22.34-23.66,33.56-8.92,4.67-19.5,5.46-29.36,3.44-49.54-10.16-62.56-43.28-65.55-51.16-9.27-24.41-12.92-50.73-22.85-74.89-3.06-7.46-5.63-15.18-5.24-23.23.72-14.62,22.25-40.72,63.85-21A114.7,114.7,0,0,1,545.38,229.29Z" transform="translate(-60.73 10.87)"/><path class="cls-4" d="M437,286.76c-10.24-7-29.24-12.58-32-12.38-2.49-1.29-22.13-3.72-34.32-1.3-6.64,1.32-12.64,7-14,13.63-2.23,10.81,3.7,14.5,7.16,17,7.67,5.46,16.79,9.56,21.91,17.46,1.3,2,2.32,4.25,4,6a7.87,7.87,0,0,0,3.95,2.37,8,8,0,0,0,4.57-.61c2.2-1,4-2.63,6-4,7.82-5.23,17.82-5.39,27-7.37,4.16-.89,11.07-1.93,13.29-12.74C445.86,298.2,442.59,290.6,437,286.76Z" transform="translate(-60.73 10.87)"/><path class="cls-7" d="M364.82,285.26a6.27,6.27,0,0,0,4.23,6.19c2.59.83,5.43-.16,7.79-1.53s4.51-3.14,7.07-4.08c5.62-2.06,11.91.29,17.83-.61A2.93,2.93,0,0,0,404,284a2.16,2.16,0,0,0-.6-2.46,5.87,5.87,0,0,0-2.42-1.17C393.94,278.28,365.65,272.35,364.82,285.26Z" transform="translate(-60.73 10.87)"/><path class="cls-4" d="M436.09,382.8a2.23,2.23,0,0,0-2.3-2,40.1,40.1,0,0,1-27-13.19c-7.54-8.25-10.27-19.18-10.57-30.11-.07-2.73,0-5.46.14-8.19a170,170,0,0,0,3.48-17.17c.44-2.73-3.78-3.61-4.22-.87-.22,1.35-.44,2.69-.67,4a2.1,2.1,0,0,0-1.84,1.68c-.41,3.87-.8,7.79-1,11.72a60.5,60.5,0,0,1-7,16.58,39.81,39.81,0,0,1-24.79,17.19,38.61,38.61,0,0,1-16.78.08c-2.71-.59-3.58,3.63-.87,4.22a44.47,44.47,0,0,0,32-5.5A42,42,0,0,0,387,350a52.58,52.58,0,0,0,5.09-8.76,58.21,58.21,0,0,0,2.29,12.91,44.07,44.07,0,0,0,39.73,31A2.18,2.18,0,0,0,436.09,382.8Z" transform="translate(-60.73 10.87)"/><circle class="cls-5" cx="303.86" cy="221.25" r="34.05" transform="translate(-61.24 452.67) rotate(-71.99)"/><circle class="cls-2" cx="303.14" cy="224.74" r="34.05" transform="translate(-38.24 487.87) rotate(-78.5)"/><path class="cls-8" d="M333.33,208.81a34,34,0,0,1-62.95,24.84,34,34,0,1,0,62.95-24.84Z" transform="translate(-60.73 10.87)"/><path class="cls-9" d="M323.61,230.53a22.21,22.21,0,1,1-17.26-26.23A22.2,22.2,0,0,1,323.61,230.53Z" transform="translate(-60.73 10.87)"/><path class="cls-10" d="M314.5,207.78a22.21,22.21,0,0,1-31.69,29.68,22.21,22.21,0,1,0,31.69-29.68Z" transform="translate(-60.73 10.87)"/><path class="cls-5" d="M316.08,229a13.53,13.53,0,1,1-10.52-16A13.52,13.52,0,0,1,316.08,229Z" transform="translate(-60.73 10.87)"/><path class="cls-2" d="M284.16,220.09a8.6,8.6,0,0,0-.25,3.23,3.91,3.91,0,0,0,1.61,2.72,4,4,0,0,0,3.46.25,9.56,9.56,0,0,0,3-1.94,21.86,21.86,0,0,0,6.72-9.57,3.18,3.18,0,0,0-.12-2.86,2.89,2.89,0,0,0-1.45-.9C291.13,209.06,285.42,214.6,284.16,220.09Z" transform="translate(-60.73 10.87)"/><path class="cls-11" d="M301.88,249.21a23.28,23.28,0,0,1-4.7-.48,23.17,23.17,0,0,1-18-27.36,23.15,23.15,0,0,1,27.36-18,23.17,23.17,0,0,1,18,27.36A23.23,23.23,0,0,1,301.88,249.21Zm0-44.43a21.26,21.26,0,0,0-17.74,33,21.39,21.39,0,0,0,17.78,9.58,21.26,21.26,0,0,0,17.74-33,21.1,21.1,0,0,0-13.47-9.14A21.59,21.59,0,0,0,301.84,204.78Z" transform="translate(-60.73 10.87)"/><path class="cls-2" d="M303,207.49a3.21,3.21,0,0,0-1.47.55,1.52,1.52,0,0,0-.64,1.38c.1.72.82,1.18,1.5,1.44a7.44,7.44,0,0,0,3.56.39,3.2,3.2,0,0,0,1.74-.7,1.53,1.53,0,0,0,.45-1.72,1.91,1.91,0,0,0-.74-.75,5.11,5.11,0,0,0-4.24-.57Z" transform="translate(-60.73 10.87)"/><path class="cls-5" d="M545.87,269.28a34.05,34.05,0,1,1-26.47-40.22A34,34,0,0,1,545.87,269.28Z" transform="translate(-60.73 10.87)"/><circle class="cls-2" cx="511.8" cy="265.89" r="34.05" transform="translate(-45.22 570.59) rotate(-58.08)"/><path class="cls-8" d="M542,250a34.05,34.05,0,0,1-63,24.84A34.05,34.05,0,1,0,542,250Z" transform="translate(-60.73 10.87)"/><path class="cls-9" d="M532.28,271.69A22.21,22.21,0,1,1,515,245.45,22.22,22.22,0,0,1,532.28,271.69Z" transform="translate(-60.73 10.87)"/><path class="cls-10" d="M523.16,248.94a22.21,22.21,0,0,1-31.69,29.67,22.21,22.21,0,1,0,31.69-29.67Z" transform="translate(-60.73 10.87)"/><path class="cls-5" d="M524.74,270.14a13.53,13.53,0,1,1-10.52-16A13.52,13.52,0,0,1,524.74,270.14Z" transform="translate(-60.73 10.87)"/><path class="cls-2" d="M492.82,261.24a8.87,8.87,0,0,0-.25,3.24,3.94,3.94,0,0,0,1.61,2.72,4,4,0,0,0,3.46.25,9.8,9.8,0,0,0,3-1.94,21.76,21.76,0,0,0,6.72-9.58,3.18,3.18,0,0,0-.12-2.86,2.87,2.87,0,0,0-1.45-.89C499.8,250.22,494.08,255.76,492.82,261.24Z" transform="translate(-60.73 10.87)"/><path class="cls-11" d="M510.55,290.37a23.16,23.16,0,1,1,22.65-18.49A23.3,23.3,0,0,1,510.55,290.37Zm-.05-44.43A21.26,21.26,0,0,0,506.23,288a21,21,0,0,0,4.32.44,21.26,21.26,0,0,0,4.27-42.09A21.76,21.76,0,0,0,510.5,245.94Z" transform="translate(-60.73 10.87)"/><path class="cls-2" d="M511.68,248.64a3.33,3.33,0,0,0-1.48.56,1.54,1.54,0,0,0-.64,1.37c.1.73.82,1.19,1.51,1.44a7.43,7.43,0,0,0,3.56.4,3.31,3.31,0,0,0,1.74-.7,1.56,1.56,0,0,0,.45-1.72,2,2,0,0,0-.74-.75,5.1,5.1,0,0,0-4.25-.57Z" transform="translate(-60.73 10.87)"/><path class="cls-2" d="M393.51,129.88a20.77,20.77,0,0,0,9.4-37.25,34.53,34.53,0,0,1,23.37,12.9c2.7-7.48,8.41-13.59,15-18s14.05-7.41,21.53-10.12a47,47,0,0,0-10.73,34.15,17.74,17.74,0,0,1,9.75-2.61,16,16,0,0,0-4.51,13.82c.79,4.78,3.72,8.94,4.94,13.63a9.77,9.77,0,0,1-.16,6.41c-1.47,3.32-5.35,4.76-8.89,5.58-15.76,3.67-32.28,1.72-48.15-1.45-4.9-1-10.93-3.43-10.91-8.43,0-3.43,3.07-6,5.92-7.92Z" transform="translate(-60.73 10.87)"/><path class="cls-12" d="M420.37,28.33C411.43,14.87,401.76.75,387.08-6,377-10.7,365.44-11.36,354.32-10.6c-7.88.54-16.44,2.14-21.54,8.17-3,3.54-4.35,8.13-5.49,12.61-2.41,9.45-4.17,19.06-5.93,28.66l-4.11,22.44C316,68.09,314.75,75,315.4,81.9s3.46,13.88,9,18.07c4.14,3.15,9.35,4.45,14.42,5.61a629.86,629.86,0,0,0,93.34,14.17,32.76,32.76,0,0,0,9.64-.24c9.45-2.12,15.29-12,16.82-21.57,2.15-13.49-6.08-21.2-13-31.65Z" transform="translate(-60.73 10.87)"/><path class="cls-12" d="M519.76,53.93c14.23-7.66,29.42-15.55,45.55-14.62,11.13.65,21.61,5.5,31.05,11.41,6.7,4.19,13.5,9.63,15.15,17.36,1,4.52,0,9.21-1.1,13.7-2.32,9.48-5.3,18.78-8.27,28.07q-3.48,10.88-6.95,21.74c-2.11,6.59-4.26,13.28-8.09,19s-9.59,10.61-16.42,11.72c-5.13.83-10.34-.48-15.36-1.84a631.72,631.72,0,0,1-89-31.49,32.82,32.82,0,0,1-8.39-4.77c-7.34-6.32-7.83-17.79-4.67-26.95,4.46-12.9,15.35-15.82,26.39-21.77Z" transform="translate(-60.73 10.87)"/><path class="cls-12" d="M414.7,73.25c-8.3,14-3.73,34.41,10.31,42.59,4.82,2.81,10.32,4.17,15.74,5.5L479,130.72a15.14,15.14,0,0,0,4.81.65c3.26-.27,6-2.6,8.12-5.07,10.65-12.27,12.76-31.24,5.05-45.54C488,64.13,473,62,456.42,59,440.56,56.05,423.93,57.72,414.7,73.25Z" transform="translate(-60.73 10.87)"/><path class="cls-13" d="M343.32,7.46a10.4,10.4,0,0,0,4.88,8.07A18.34,18.34,0,0,0,355,17.65c6.12,1,12.35,1.25,18.41,2.58,15.79,3.46,29.41,13.83,39.65,26.34,2.31,2.83,4.53,5.82,7.51,7.93,1.23-1.12.62-3.14-.1-4.64A143.81,143.81,0,0,0,395.93,14c-5.23-5.58-11-10.83-18-14a37.87,37.87,0,0,0-22-2.88C349.62-1.83,342.77-.68,343.32,7.46Z" transform="translate(-60.73 10.87)"/><path class="cls-13" d="M429.79,71.37c-4.48,6.41-5.89,14.51-6,22.33,0,3.59.4,7.64,3.18,9.92,2.54,2.09,6.43,2,9.26.27a14.68,14.68,0,0,0,5.86-7.71,76,76,0,0,0,2.41-9.56c.82-3.49,2-7.09,4.62-9.54,3.79-3.55,9.59-3.83,14.71-3a45.38,45.38,0,0,1,12.26,3.77c1.84.86,4.08,1.83,5.76.69a3.69,3.69,0,0,0,1-4.42,8.7,8.7,0,0,0-3.31-3.53c-8.35-5.77-18.8-7-28.63-8.25C442.51,61.27,434.75,64.27,429.79,71.37Z" transform="translate(-60.73 10.87)"/><path class="cls-13" d="M377.45,47.73c-2-.74-4.19-1.47-6.33-1.14-3.93.59-6.54,4.5-7.54,8.35a8.39,8.39,0,0,0-.11,4.81c1.22,3.6,5.65,4.74,9.41,5.33l34.35,5.39c2.92.46,5.84.92,8.78,1.2,1.44.13,3.31,0,3.75-1.42,1.19-3.76-15.62-10.8-18.41-12.2A218.52,218.52,0,0,0,377.45,47.73Z" transform="translate(-60.73 10.87)"/><path class="cls-13" d="M363.93,88.37a17.42,17.42,0,0,0-6.41,1.25,7.22,7.22,0,0,0-4.21,4.74c-.64,2.91,1.25,5.93,3.83,7.41s5.68,1.73,8.65,1.66c14.58-.34,28.29-7.19,42.8-8.64a10.65,10.65,0,0,0,3.59-.74c1.76-.83,3-3.43.9-4.65-1.45-.83-4.5.48-6.11.68a75.16,75.16,0,0,1-14.15.15C383.19,89.58,373.6,87.88,363.93,88.37Z" transform="translate(-60.73 10.87)"/><path class="cls-13" d="M505.73,77.86c2.18.37,4.34-.58,6.34-1.51,11.26-5.23,22.58-10.58,34.66-13.45s25.16-3.1,36.58,1.77c2.32,1,4.88,2.19,7.24,1.3a5.67,5.67,0,0,0,3.28-5.54,10.67,10.67,0,0,0-2.73-6.19c-5.93-7.17-16.34-9.19-25.53-7.71s-17.6,5.85-26.12,9.6a202.9,202.9,0,0,1-19.5,7.4c-4.53,1.46-9.22,2.8-13.32,5.3-1.54.94-4.34,2.49-4.65,4.46S503.82,77.53,505.73,77.86Z" transform="translate(-60.73 10.87)"/><path class="cls-13" d="M495.52,96.72a13.46,13.46,0,0,0,5.78,1.64A292.49,292.49,0,0,1,535.87,105c4.9,1.26,9.87,2.66,14.93,2.46,4.43-.17,9.36-2.13,10.75-6.33,1.2-3.61-.78-7.71-3.86-9.94s-7-2.93-10.8-3.11c-8.9-.43-17.71,1.61-26.6,2.23a83,83,0,0,1-14.79-.28c-2.5-.27-5.06-.65-7.52-.09C494.24,90.82,491,93.75,495.52,96.72Z" transform="translate(-60.73 10.87)"/><path class="cls-13" d="M486.49,117.91a11.89,11.89,0,0,0,4.6,3.34l32.3,16.29c5.18,2.61,10.37,5.22,15.77,7.33a91.54,91.54,0,0,0,11.19,3.57,21,21,0,0,0,7.71.83,8.42,8.42,0,0,0,6.41-3.89,8.18,8.18,0,0,0-.44-7.95c-2.81-4.84-8.75-6.77-14.23-7.93-17.86-3.77-37-3.7-53-12.54-2.56-1.42-5.59-3.62-8.64-3.68C485.35,113.22,484.83,115.56,486.49,117.91Z" transform="translate(-60.73 10.87)"/></svg>