<svg id="Layer_4" data-name="Layer 4" xmlns="http://www.w3.org/2000/svg" viewBox="0 0 635.75 702.76"><defs><style>.cls-1{fill:#8dc4c6;}.cls-2{fill:#3a3734;}.cls-3,.cls-7{fill:#fff;}.cls-4{fill:#fff3e3;}.cls-5{fill:#efac9e;}.cls-6{fill:#232120;}.cls-7{opacity:0.22;}.cls-8{fill:#ed8a7a;}.cls-9{fill:#e3fffe;}.cls-10{fill:#39b4ea;}.cls-11{fill:#2d90b2;}.cls-12{fill:#288199;}.cls-13{fill:#34d399;}.cls-14{fill:#ed8080;}.cls-15{fill:#eaa29b;}.cls-16{fill:#bc6868;}.cls-17{fill:#db587a;}.cls-18{fill:#f76692;}</style></defs><title>4 panda</title><ellipse class="cls-1" cx="337.99" cy="672.61" rx="297.76" ry="30.16"/><path class="cls-2" d="M591.12,201.77c3.22-4.85,7-10.7,12.77-9.69,3.35,1,3.23,4.27,3.4,6.77.59-6.11,5.39-12.14,11.53-12.27s11.35,7.79,7.62,12.67c2-1.57,5.09-.49,6.5,1.58s1.56,4.73,1.53,7.23c-.33,28.94-14,62-34.46,82.54-30.86,31-67.66,66.65-110.71,59-14-2.51-38.49-30.27-45.88-42.41-8.49-13.92-5.33-32.82,4.49-45.83,10.06-13.32,23.7-17.12,37.94-8.55,12.11,7.29,19.57,6,33.77,1.72C548.49,245.71,574.39,227,591.12,201.77Z" transform="translate(-38.18 111.41)"/><path class="cls-3" d="M504.27,274.76,377.18,258.17,250.09,274.76s-30.39,90.63-29,141.69,19.34,85.53,62.16,103.4S377.18,539,377.18,539s51.11-1.28,93.94-19.15,60.78-52.34,62.16-103.4S504.27,274.76,504.27,274.76Z" transform="translate(-38.18 111.41)"/><path class="cls-4" d="M504.27,274.76,463,269.37c8.89,30.22,22.92,83.94,22,119-1.38,51.06-19.34,85.52-62.16,103.4s-93.94,19.14-93.94,19.14-40.7-1-79.9-13.93c9,9.39,20.31,17,34.31,22.87C326.07,537.72,377.18,539,377.18,539s51.11-1.28,93.94-19.15,60.78-52.34,62.16-103.4S504.27,274.76,504.27,274.76Z" transform="translate(-38.18 111.41)"/><path class="cls-2" d="M525.87,354.6c0-41.14-21.87-85.23-21.87-85.23L377.15,258.06l-127.09,16.6s-20,44.06-23.38,89a194.31,194.31,0,0,1,74.63-44.77c34.35-11,71.4-13.36,107.65-10.78C499.36,314.51,525,353.92,525.87,354.6Z" transform="translate(-38.18 111.41)"/><path class="cls-2" d="M122.41,140.22s-124-30.29-71.07-128.4C98.05-74.68,189.15.14,189.15.14Z" transform="translate(-38.18 111.41)"/><path class="cls-5" d="M125.11,101.7S55.91,84.8,85.46,30.06c26.06-48.27,76.9-6.52,76.9-6.52Z" transform="translate(-38.18 111.41)"/><path class="cls-6" d="M44.09,28.41C88.84-54.48,174.37,10.76,181.43,16.35L189.15.14S98.05-74.68,51.34,11.82a125.86,125.86,0,0,0-8.18,18.35C43.46,29.58,43.77,29,44.09,28.41Z" transform="translate(-38.18 111.41)"/><path class="cls-7" d="M47.3,66.8c1.13,8.33,4.33,16.55,10,22.65,2.62,2.84,6.32,5.33,10,4.34,3.26-.89,5.34-4.51,5.39-8s-1.53-6.9-3.54-9.76-4.48-5.36-6.55-8.18a37.8,37.8,0,0,1-7.16-24.54c.11-1.76.13-4-1.37-4.78C46.07,34.11,46.91,63.86,47.3,66.8Z" transform="translate(-38.18 111.41)"/><path class="cls-2" d="M445.79-27.55s49.42-117.73,138-50C661.84-17.81,573.62,60.4,573.62,60.4Z" transform="translate(-38.18 111.41)"/><path class="cls-5" d="M483.4-18.82s27.58-65.69,77-27.89c43.56,33.33-5.66,77-5.66,77Z" transform="translate(-38.18 111.41)"/><path class="cls-6" d="M568.52-87.31c74.82,57.23-3.06,131.43-9.69,137.53L573.62,60.4s88.22-78.21,10.14-137.94a126.59,126.59,0,0,0-16.83-11C567.46-88.11,568-87.72,568.52-87.31Z" transform="translate(-38.18 111.41)"/><path class="cls-7" d="M530.1-90.17c-8.4-.2-17,1.66-23.93,6.25-3.22,2.14-6.26,5.41-5.85,9.15.36,3.36,3.61,6,7.08,6.59s7.06-.42,10.2-2,6-3.58,9.1-5.19a37.84,37.84,0,0,1,25.37-3.21c1.72.39,3.87.75,4.93-.59C562.58-86.25,533.07-90.1,530.1-90.17Z" transform="translate(-38.18 111.41)"/><path class="cls-3" d="M583.45,79.19C570.67,28,526-33.59,455.83-59.46c-65-24-212.39-3.82-277.73,43.87-54.16,39.53-78.58,116.42-75,169S134.83,294.68,213.5,302.58s234.32-16.68,306.73-48.45S596.22,130.35,583.45,79.19Z" transform="translate(-38.18 111.41)"/><path class="cls-4" d="M583.82,79.13c-12.26-49.08-53.88-107.77-119.2-135.3C500.28-26.33,523.42,12.91,532,47.41c12.77,51.16,9.18,143.17-63.22,174.94s-228.06,56.36-306.73,48.46a106.23,106.23,0,0,1-14.47-2.48c16.4,18.17,38.09,31.36,66.26,34.19,78.67,7.91,234.32-16.68,306.73-48.45S596.59,130.29,583.82,79.13Z" transform="translate(-38.18 111.41)"/><path class="cls-2" d="M192.34,42.38c-13.3,12.4-23.77,27.54-33,43.19-11.74,19.81-22,41.64-21.69,64.68,0,4,1.2,22.41,22.1,34.6,8.7,5.07,19.24,6.34,29.18,4.77,50-7.89,64.46-40.38,67.81-48.11,10.37-24,15.22-50.09,26.24-73.77,3.4-7.32,6.32-14.91,6.29-23-.05-14.63-20.37-41.69-62.83-23.87A114.7,114.7,0,0,0,192.34,42.38Z" transform="translate(-38.18 111.41)"/><path class="cls-2" d="M449.55,1.68C466,9.37,480.67,20.53,494.33,32.54c17.3,15.21,33.78,32.81,40.63,54.8,1.2,3.87,5.79,21.69-10.32,39.74-6.71,7.51-16.33,12-26.27,13.56-49.94,8-73.79-18.46-79.37-24.78-17.28-19.58-30-42.93-47.76-62-5.5-5.9-10.62-12.22-13.09-19.9C353.67,20,364.63-12,410.51-8.22A114.92,114.92,0,0,1,449.55,1.68Z" transform="translate(-38.18 111.41)"/><path class="cls-2" d="M368.38,93.65c-12.06-3-31.79-1.48-34.34-.3-2.79-.33-22,4.31-32.58,10.87-5.75,3.57-9.37,11-8.32,17.7,1.72,10.9,8.57,12.26,12.68,13.35,9.1,2.4,19.08,3,26.65,8.62,1.93,1.43,3.67,3.16,5.82,4.23a6.95,6.95,0,0,0,8.58-1.35c1.72-1.69,2.84-3.87,4.24-5.83,5.48-7.65,14.78-11.32,22.69-16.41,3.58-2.3,9.68-5.71,7.95-16.61C380.68,101.24,375,95.28,368.38,93.65Z" transform="translate(-38.18 111.41)"/><path class="cls-7" d="M300.29,117.68a6.26,6.26,0,0,0,6.13,4.3c2.72-.13,5-2.06,6.75-4.17s3.12-4.53,5.18-6.31c4.54-3.91,11.26-3.93,16.48-6.86a2.93,2.93,0,0,0,1.71-1.94,2.16,2.16,0,0,0-1.42-2.09,5.94,5.94,0,0,0-2.69-.24C325.08,100.88,296.51,105.3,300.29,117.68Z" transform="translate(-38.18 111.41)"/><path class="cls-5" d="M332.66,203.05a30.15,30.15,0,0,0,12.49,2.62,40.23,40.23,0,0,0,20-4.63,28.79,28.79,0,0,0,13.29-14.8c-3.55-.23-6.6-2.29-9.43-4.3-2.52-1.8-5-3.61-7.4-5.59a62.21,62.21,0,0,1-16.8-22.18q-1.66,7.46-3.31,14.93a36.25,36.25,0,0,1-1.8,6.3,37.25,37.25,0,0,1-2.55,4.73,59.12,59.12,0,0,1-5,7.44,30.87,30.87,0,0,1-4.23,4.17c-1.29,1-3.45,1.85-3.29,3.64C324.86,198.48,330.11,201.83,332.66,203.05Z" transform="translate(-38.18 111.41)"/><path class="cls-8" d="M344.64,188.87a25.72,25.72,0,0,0,11-3c2.85-1.46,5.64-3.48,6.69-6.38a1.6,1.6,0,0,0,.12-1,1.93,1.93,0,0,0-.4-.67,66.65,66.65,0,0,0-4.61-5.2c-1.39-1.36-2.91-2.61-4.24-4-3.66-3.93-5.68-9-8.53-13.48-1.29,1.16-1.17,3.08-1.24,4.75-.19,4.91-2.73,9.39-5,13.73-1.4,2.71-6.07,10.29-3,12.85C337.75,188.35,341.69,188.94,344.64,188.87Z" transform="translate(-38.18 111.41)"/><path class="cls-2" d="M401.35,183.86a2.22,2.22,0,0,0-2.86-1.07,40.15,40.15,0,0,1-30-2.82c-10-5.07-16.36-14.34-20.49-24.46-1-2.53-1.94-5.11-2.77-7.71a168.17,168.17,0,0,0-2.78-17.29c-.55-2.71-4.81-2-4.26.67.27,1.33.54,2.67.79,4a2.08,2.08,0,0,0-1.12,2.22c1,3.76,2,7.57,3.16,11.32a60.08,60.08,0,0,1-.75,18,39.74,39.74,0,0,1-17.14,24.82,38.51,38.51,0,0,1-15.67,6c-2.75.41-2.08,4.67.67,4.26a44.49,44.49,0,0,0,28.05-16.43,41.86,41.86,0,0,0,7.59-14.92,52.54,52.54,0,0,0,1.68-10,58.64,58.64,0,0,0,6.69,11.27A44.1,44.1,0,0,0,381.3,188.4a43.52,43.52,0,0,0,19-1.69A2.17,2.17,0,0,0,401.35,183.86Z" transform="translate(-38.18 111.41)"/><path class="cls-6" d="M254.32,73.93a34.05,34.05,0,1,1-38.95-28.32A34.06,34.06,0,0,1,254.32,73.93Z" transform="translate(-38.18 111.41)"/><path class="cls-3" d="M254.87,77.45a34.05,34.05,0,1,1-39-28.32A34,34,0,0,1,254.87,77.45Z" transform="translate(-38.18 111.41)"/><path class="cls-9" d="M243.88,57.22a34,34,0,0,1-50.16,45.43,34,34,0,1,0,50.16-45.43Z" transform="translate(-38.18 111.41)"/><path class="cls-10" d="M242.44,81A22.21,22.21,0,1,1,217,62.5,22.21,22.21,0,0,1,242.44,81Z" transform="translate(-38.18 111.41)"/><path class="cls-11" d="M225.89,62.89a22.21,22.21,0,0,1-19.2,38.94,22.21,22.21,0,1,0,19.2-38.94Z" transform="translate(-38.18 111.41)"/><path class="cls-6" d="M234.84,82.18a13.53,13.53,0,1,1-15.47-11.26A13.52,13.52,0,0,1,234.84,82.18Z" transform="translate(-38.18 111.41)"/><path class="cls-3" d="M201.83,85.1a8.8,8.8,0,0,0,.91,3.11,3.88,3.88,0,0,0,2.47,2,4,4,0,0,0,3.32-1,9.78,9.78,0,0,0,2.12-2.88A21.86,21.86,0,0,0,213.56,75a3.19,3.19,0,0,0-1.12-2.64,2.91,2.91,0,0,0-1.67-.32C204.48,72.32,201.08,79.52,201.83,85.1Z" transform="translate(-38.18 111.41)"/><path class="cls-12" d="M220.47,107.6a23.16,23.16,0,0,1-3.58-46,23.4,23.4,0,0,1,3.64-.29,23.16,23.16,0,0,1,3.58,46A23.4,23.4,0,0,1,220.47,107.6Zm.06-44.42a21,21,0,0,0-3.35.26,21.27,21.27,0,0,0,3.29,42.27,22.24,22.24,0,0,0,3.35-.26,21.27,21.27,0,0,0-3.29-42.27Z" transform="translate(-38.18 111.41)"/><path class="cls-3" d="M215,66.67a3.18,3.18,0,0,0-1.18,1,1.56,1.56,0,0,0-.12,1.52,2.1,2.1,0,0,0,1.92.81,7.28,7.28,0,0,0,3.47-.89,3.24,3.24,0,0,0,1.38-1.26,1.52,1.52,0,0,0-.19-1.76,2,2,0,0,0-.95-.45,5.12,5.12,0,0,0-4.18,1Z" transform="translate(-38.18 111.41)"/><path class="cls-6" d="M464.1,38.94a34.05,34.05,0,1,1-39-28.32A34,34,0,0,1,464.1,38.94Z" transform="translate(-38.18 111.41)"/><path class="cls-3" d="M464.66,42.46a34.05,34.05,0,1,1-39-28.32A34.06,34.06,0,0,1,464.66,42.46Z" transform="translate(-38.18 111.41)"/><path class="cls-9" d="M453.67,22.23A34.05,34.05,0,0,1,403.5,67.66a34.05,34.05,0,1,0,50.17-45.43Z" transform="translate(-38.18 111.41)"/><path class="cls-10" d="M452.22,46a22.21,22.21,0,1,1-25.4-18.48A22.2,22.2,0,0,1,452.22,46Z" transform="translate(-38.18 111.41)"/><path class="cls-11" d="M435.68,27.9a22.21,22.21,0,0,1-19.21,38.94A22.21,22.21,0,1,0,435.68,27.9Z" transform="translate(-38.18 111.41)"/><path class="cls-6" d="M444.63,47.19a13.53,13.53,0,1,1-15.48-11.26A13.52,13.52,0,0,1,444.63,47.19Z" transform="translate(-38.18 111.41)"/><path class="cls-3" d="M411.62,50.11a8.58,8.58,0,0,0,.9,3.11,3.57,3.57,0,0,0,5.79,1,9.27,9.27,0,0,0,2.12-2.87A21.77,21.77,0,0,0,423.35,40a3.22,3.22,0,0,0-1.12-2.64,2.92,2.92,0,0,0-1.68-.32C414.26,37.33,410.87,44.53,411.62,50.11Z" transform="translate(-38.18 111.41)"/><path class="cls-12" d="M430.26,72.61a23.16,23.16,0,0,1-3.59-46,23.5,23.5,0,0,1,3.64-.29,23.16,23.16,0,0,1,3.59,46A23.5,23.5,0,0,1,430.26,72.61Zm.05-44.43A21.38,21.38,0,0,0,413.09,37a21.26,21.26,0,0,0,17.17,33.77,20.8,20.8,0,0,0,3.34-.27,21.26,21.26,0,0,0-3.29-42.27Z" transform="translate(-38.18 111.41)"/><path class="cls-3" d="M424.83,31.67a3.33,3.33,0,0,0-1.19,1,1.52,1.52,0,0,0-.11,1.51,2.09,2.09,0,0,0,1.91.82,7.25,7.25,0,0,0,3.47-.89,3.18,3.18,0,0,0,1.38-1.26,1.55,1.55,0,0,0-.18-1.77,1.89,1.89,0,0,0-1-.44,5.11,5.11,0,0,0-4.17,1Z" transform="translate(-38.18 111.41)"/><path class="cls-13" d="M272.39-37.85A21.29,21.29,0,0,0,283-58.39a21.31,21.31,0,0,0-15-17.64,34.57,34.57,0,0,1,26.41,3.85c-.1-7.95,3.09-15.68,7.68-22.17s10.55-11.9,16.59-17.06a47,47,0,0,0,2,35.74,17.76,17.76,0,0,1,8.2-5.88A16,16,0,0,0,329.59-67C332-62.84,336.22-60,339-56A9.77,9.77,0,0,1,341.13-50c-.21,3.63-3.33,6.34-6.36,8.36-13.46,9-29.6,13-45.57,15.6-4.94.81-11.44.65-13.18-4-1.19-3.22.76-6.69,2.75-9.5Z" transform="translate(-38.18 111.41)"/><path class="cls-5" d="M598.17,218.93a11.71,11.71,0,0,0-.23,7.12,8.33,8.33,0,0,0,4.61,5.29,9.78,9.78,0,0,0,6,.22,11.07,11.07,0,0,0,3.1-1.22,14.22,14.22,0,0,0,5.28-6.57,16.16,16.16,0,0,0,1.65-6.66,8.24,8.24,0,0,0-10-8.07C604,210,599.63,214.55,598.17,218.93Z" transform="translate(-38.18 111.41)"/><path class="cls-5" d="M596.77,204.91a3.45,3.45,0,0,0,.49,1.4,2.58,2.58,0,0,0,2.74.89,4.21,4.21,0,0,0,2.37-1.86,6.24,6.24,0,0,0,.48-5.74,4.07,4.07,0,0,0-2-2.18C597.32,195.91,596.41,202.72,596.77,204.91Z" transform="translate(-38.18 111.41)"/><path class="cls-5" d="M616.07,192.58a9.82,9.82,0,0,0-3.79,8.32,4.45,4.45,0,0,0,1.19,2.77,4,4,0,0,0,4.67.21,8.22,8.22,0,0,0,3-3.93,8,8,0,0,0,.63-5.35C621,192.05,618.19,190.82,616.07,192.58Z" transform="translate(-38.18 111.41)"/><path class="cls-5" d="M622.65,211a2.61,2.61,0,0,0,.18,1.27,2.45,2.45,0,0,0,1.64,1.2,5.1,5.1,0,0,0,4.6-1,8.27,8.27,0,0,0,2.09-3.25,6.94,6.94,0,0,0,.64-3.12,3,3,0,0,0-1.67-2.55C626.24,201.9,622.79,207.89,622.65,211Z" transform="translate(-38.18 111.41)"/><path class="cls-2" d="M183.36,466.68c-18.81,25.88-39.69,27.72-50,44.75-9.09,15-7.26,30.49,3.8,43.45,8.68,10.16,10,14,22.07,14.09,21.71.16,55.11-6,76.46-10.81,26.79-6,53.49-12.61,80.19-19.21,7.58-1.88,16.4-5,18.95-13.78,3.06-10.54-5.08-20.58-12.37-27.49l-64.61-61.26C239.35,418.89,218.24,418.67,183.36,466.68Z" transform="translate(-38.18 111.41)"/><path class="cls-6" d="M122.87,556.82c-20-21.37-27.78-59-28.75-71.41-.23-3-1.1-8.77,1.63-12.53a9.35,9.35,0,0,1,10-3.68,13.49,13.49,0,0,1,3-11.41,22.6,22.6,0,0,1,10.11-6.63,23.36,23.36,0,0,1,11.69-1.28,14.39,14.39,0,0,1,9.73,6.22c5.63-5.66,15.43-5.13,22.08-.72s10.74,11.75,13.92,19.07a136.32,136.32,0,0,1,11.24,56.25c-.13,8.56-1.16,17.4-5.43,24.83-3.51,6.1-10.33,12-17.69,12.32C161.56,568,138.94,574,122.87,556.82Z" transform="translate(-38.18 111.41)"/><path class="cls-5" d="M117.09,502.91c-.48,7.4,1.85,14.68,4.61,21.56a80.27,80.27,0,0,0,6.65,13.43c3.11,4.84,7.21,9.31,12.56,11.44s12.1,1.41,16-2.84c2.45-2.68,3.48-6.33,4.24-9.88a97.13,97.13,0,0,0,1.17-33.87,30.79,30.79,0,0,0-2.7-9.78,20.82,20.82,0,0,0-13.31-10.28C131.92,479,118.06,487.82,117.09,502.91Z" transform="translate(-38.18 111.41)"/><path class="cls-5" d="M121.42,464.5a14.42,14.42,0,0,0,1.42,6,13.45,13.45,0,0,0,3.07,4.85,5.59,5.59,0,0,0,5.31,1.44,5.53,5.53,0,0,0,3.32-3.63,12.61,12.61,0,0,0,.38-5.05c-.23-3-.9-6.25-3-8.49C127.4,454.74,121.63,458.79,121.42,464.5Z" transform="translate(-38.18 111.41)"/><path class="cls-5" d="M105,488.48c1.13,1.73,3.07,3.23,5.1,2.86a4.52,4.52,0,0,0,3.32-3.51,10,10,0,0,0-.41-5,9.79,9.79,0,0,0-3-5.07C102.7,472.13,102.44,484.65,105,488.48Z" transform="translate(-38.18 111.41)"/><path class="cls-5" d="M149.12,475.22c.43,1.75,1.21,3.62,2.84,4.37a4.47,4.47,0,0,0,4.65-1,9.67,9.67,0,0,0,2.52-4.29,14.32,14.32,0,0,0,.57-8.62c-1-3.29-5.13-7.61-8.67-5.07C147.22,463.39,148.19,471.4,149.12,475.22Z" transform="translate(-38.18 111.41)"/><path class="cls-2" d="M580.07,466.68c18.8,25.88,39.69,27.72,50,44.75,9.1,15,7.27,30.49-3.79,43.45-8.68,10.16-10,14-22.08,14.09-21.71.16-55.11-6-76.45-10.81-26.8-6-53.5-12.61-80.19-19.21-7.59-1.88-16.41-5-19-13.78-3.05-10.54,5.08-20.58,12.37-27.49l64.61-61.26C524.07,418.89,545.19,418.67,580.07,466.68Z" transform="translate(-38.18 111.41)"/><path class="cls-6" d="M640.55,556.82c20-21.37,27.78-59,28.75-71.41.24-3,1.11-8.77-1.63-12.53a9.34,9.34,0,0,0-9.95-3.68,13.5,13.5,0,0,0-3-11.41,22.54,22.54,0,0,0-10.11-6.63,23.35,23.35,0,0,0-11.69-1.28,14.35,14.35,0,0,0-9.72,6.22c-5.63-5.66-15.44-5.13-22.09-.72s-10.74,11.75-13.92,19.07a136.32,136.32,0,0,0-11.24,56.25c.13,8.56,1.16,17.4,5.44,24.83,3.51,6.1,10.32,12,17.68,12.32C601.86,568,624.48,574,640.55,556.82Z" transform="translate(-38.18 111.41)"/><path class="cls-5" d="M646.34,502.91c.47,7.4-1.86,14.68-4.62,21.56a79.52,79.52,0,0,1-6.65,13.43c-3.1,4.84-7.2,9.31-12.55,11.44s-12.11,1.41-16-2.84c-2.44-2.68-3.48-6.33-4.24-9.88a97.13,97.13,0,0,1-1.16-33.87,30.54,30.54,0,0,1,2.7-9.78,20.8,20.8,0,0,1,13.3-10.28C631.5,479,645.36,487.82,646.34,502.91Z" transform="translate(-38.18 111.41)"/><path class="cls-5" d="M642,464.5a14.27,14.27,0,0,1-1.42,6,13.56,13.56,0,0,1-3.06,4.85,5.6,5.6,0,0,1-5.32,1.44,5.53,5.53,0,0,1-3.32-3.63,13,13,0,0,1-.38-5.05c.24-3,.91-6.25,3-8.49C636,454.74,641.79,458.79,642,464.5Z" transform="translate(-38.18 111.41)"/><path class="cls-5" d="M658.47,488.48c-1.14,1.73-3.07,3.23-5.11,2.86a4.55,4.55,0,0,1-3.32-3.51,12.17,12.17,0,0,1,3.44-10.11C660.73,472.13,661,484.65,658.47,488.48Z" transform="translate(-38.18 111.41)"/><path class="cls-5" d="M614.3,475.22c-.43,1.75-1.2,3.62-2.84,4.37a4.47,4.47,0,0,1-4.65-1,9.86,9.86,0,0,1-2.52-4.29,14.39,14.39,0,0,1-.56-8.62c1-3.29,5.13-7.61,8.67-5.07C616.21,463.39,615.24,471.4,614.3,475.22Z" transform="translate(-38.18 111.41)"/><polygon class="cls-14" points="427.01 671.79 261.76 671.79 241.16 510 451.25 510 427.01 671.79"/><polygon class="cls-15" points="241.16 510 451.25 510 422.7 458.06 267.56 462.03 241.16 510"/><polygon class="cls-16" points="444.8 553.04 261.09 553.04 442.43 568.85 444.8 553.04"/><polygon class="cls-17" points="320.45 510 332.84 671.79 365.27 671.79 372.28 510 320.45 510"/><polygon class="cls-18" points="320.45 510 327.95 460.49 369.34 459.43 372.28 510 320.45 510"/><polygon class="cls-18" points="260.41 475.03 431.04 473.23 439.04 487.8 253.38 487.8 260.41 475.03"/><path class="cls-17" d="M373.47,339.62c-4.34-3.93-9-8-14.75-9.09-4-.74-8.07.05-11.91,1.31-2.71.89-5.58,2.22-6.83,4.79a11.32,11.32,0,0,0-.81,4.91c0,3.54.24,7.07.48,10.59.18,2.75.37,5.5.55,8.25a27.52,27.52,0,0,0,1.19,7.4,9.22,9.22,0,0,0,4.76,5.55,13.35,13.35,0,0,0,5.56.69,228.45,228.45,0,0,0,34-3.35,11.9,11.9,0,0,0,3.37-.94c3.13-1.59,4.3-5.58,4-9.07-.45-4.93-4-6.9-7.39-10Z" transform="translate(-38.18 111.41)"/><path class="cls-17" d="M410.65,339.75c4.31-4,8.94-8.08,14.69-9.19,4-.76,8.08,0,11.92,1.24,2.72.87,5.6,2.18,6.87,4.74a11.23,11.23,0,0,1,.83,4.92c0,3.53-.19,7.06-.4,10.59l-.51,8.25a27.21,27.21,0,0,1-1.14,7.41,9.21,9.21,0,0,1-4.72,5.58,13.34,13.34,0,0,1-5.56.72,228.57,228.57,0,0,1-34.05-3.13,11.87,11.87,0,0,1-3.37-.92c-3.14-1.57-4.34-5.55-4-9,.41-4.93,4-6.92,7.32-10Z" transform="translate(-38.18 111.41)"/><path class="cls-17" d="M375.48,355.9c-1.66,5.64,1.76,12.41,7.42,14a20.93,20.93,0,0,0,6,.53l14.25-.11a5.33,5.33,0,0,0,1.74-.2,4.63,4.63,0,0,0,2.4-2.5A15,15,0,0,0,405,351.21c-4.63-5-10.08-4.45-16.17-4C383,347.55,377.34,349.63,375.48,355.9Z" transform="translate(-38.18 111.41)"/><path class="cls-18" d="M344.56,339.16a3.77,3.77,0,0,0,2.43,2.4,6.63,6.63,0,0,0,2.59.14c2.24-.21,4.45-.67,6.69-.74,5.86-.19,11.56,2.23,16.27,5.71a15.08,15.08,0,0,0,3.34,2.12c.34-.5-.06-1.16-.44-1.62a52.29,52.29,0,0,0-11.82-10.39,21.67,21.67,0,0,0-7.56-3.33,13.74,13.74,0,0,0-8,.95C346,335.34,343.64,336.35,344.56,339.16Z" transform="translate(-38.18 111.41)"/><path class="cls-18" d="M380.62,353.89a14.24,14.24,0,0,0-.11,8.38c.31,1.26.82,2.64,2,3.2a3,3,0,0,0,3.28-.73,5.39,5.39,0,0,0,1.37-3.23,26.74,26.74,0,0,0,0-3.58,6.73,6.73,0,0,1,.78-3.76c1-1.58,3-2.2,4.89-2.37a16.77,16.77,0,0,1,4.64.23c.72.14,1.6.28,2.08-.27a1.32,1.32,0,0,0-.05-1.64,3.14,3.14,0,0,0-1.47-.94c-3.45-1.28-7.23-.79-10.79-.35A7.8,7.8,0,0,0,380.62,353.89Z" transform="translate(-38.18 111.41)"/><path class="cls-18" d="M360.13,350.26a4.78,4.78,0,0,0-2.32.16c-1.33.56-1.9,2.16-1.91,3.6a3.08,3.08,0,0,0,.39,1.7c.75,1.16,2.41,1.16,3.78,1l12.55-1.17c1.06-.1,2.13-.2,3.18-.36.52-.08,1.16-.31,1.19-.84.09-1.42-6.44-2.4-7.55-2.64A79.12,79.12,0,0,0,360.13,350.26Z" transform="translate(-38.18 111.41)"/><path class="cls-18" d="M359,365.73a6.39,6.39,0,0,0-2.14,1,2.36,2.36,0,0,0,.95,4.3,6,6,0,0,0,3.18-.19c5.09-1.41,9.29-5,14.26-6.84a3.87,3.87,0,0,0,1.19-.58c.55-.45.76-1.48-.1-1.72-.58-.16-1.53.57-2.08.79a26.46,26.46,0,0,1-5,1.31C365.88,364.44,362.36,364.7,359,365.73Z" transform="translate(-38.18 111.41)"/><path class="cls-18" d="M407.86,349.4a4,4,0,0,0,2.09-1.09,66.24,66.24,0,0,1,11-7.81c4-2.08,8.55-3.33,13-2.64a3.62,3.62,0,0,0,2.66-.19,2,2,0,0,0,.65-2.23,3.77,3.77,0,0,0-1.51-1.93c-2.72-2-6.55-1.78-9.65-.44s-5.65,3.63-8.31,5.7a73.87,73.87,0,0,1-6.19,4.34,21.36,21.36,0,0,0-4.2,3.05c-.46.46-1.3,1.26-1.24,2A1.69,1.69,0,0,0,407.86,349.4Z" transform="translate(-38.18 111.41)"/><path class="cls-18" d="M406,356.94a4.85,4.85,0,0,0,2.18.06,106.19,106.19,0,0,1,12.73-.74,18.81,18.81,0,0,0,5.46-.46c1.54-.46,3.1-1.58,3.21-3.18a3.36,3.36,0,0,0-2.24-3.15,7.22,7.22,0,0,0-4.07-.13c-3.16.64-6.07,2.14-9.14,3.15a30.09,30.09,0,0,1-5.21,1.22,8.43,8.43,0,0,0-2.65.64C405,355,404.1,356.3,406,356.94Z" transform="translate(-38.18 111.41)"/><path class="cls-18" d="M404.67,365.18a4.46,4.46,0,0,0,1.91.77l12.79,2.84c2.06.45,4.11.91,6.2,1.17a33.28,33.28,0,0,0,4.24.25,7.65,7.65,0,0,0,2.78-.39,3.07,3.07,0,0,0,1.91-1.94,3,3,0,0,0-.87-2.75c-1.41-1.45-3.67-1.6-5.7-1.52-6.61.27-13.34,2-19.73.32a7.53,7.53,0,0,0-3.37-.52C403.85,363.64,403.88,364.5,404.67,365.18Z" transform="translate(-38.18 111.41)"/><path class="cls-6" d="M191.72,394.94c-2.2,13.21-2.91,27.3,2.64,39.49C200.54,448,213.83,457.35,228,462s29.36,5.17,44.28,5.3c10.36.1,21.14-.07,30.42-4.68,2-1,4-2.33,4.74-4.43s-.7-5-2.92-4.84c4.77-2.86,9.55-6.84,10.42-12.33s-4.75-11.75-9.82-9.45c2.45-.73,2.27-4.63.25-6.2s-4.79-1.53-7.33-1.66c-16.93-.84-39.26-7.41-51.11-19.52-14.49-14.81-18.57-63.17-7.87-100.11C214.88,331,197.73,358.72,191.72,394.94Z" transform="translate(-38.18 111.41)"/></svg>