<svg id="Layer_7" data-name="Layer 7" xmlns="http://www.w3.org/2000/svg" viewBox="0 0 584.47 744"><defs><style>.cls-1{fill:#8dc4c6;}.cls-2{fill:#3a3734;}.cls-3,.cls-7{fill:#fff;}.cls-4{fill:#fff3e3;}.cls-5{fill:#efac9e;}.cls-6{fill:#232120;}.cls-7{opacity:0.22;}.cls-8{fill:#ed8a7a;}.cls-9{fill:#e3fffe;}.cls-10{fill:#39b4ea;}.cls-11{fill:#2d90b2;}.cls-12{fill:#288199;}.cls-13{fill:#34d399;}</style></defs><title>5 panda</title><ellipse class="cls-1" cx="287.46" cy="724.27" rx="178.47" ry="19.73"/><path class="cls-2" d="M564.91,228.69c4.59-3.58,10.06-7.93,15.18-5.15,2.87,2,1.71,5.07,1.08,7.49,2.5-5.61,9-9.8,14.82-8s8.3,11,3.22,14.43c2.35-.87,5,1.15,5.67,3.56s0,5-.85,7.34c-9.47,27.35-33.31,47.55-59.17,60.53-39.08,19.62-87.68,24.91-126.07,4-12.48-6.81-24.18-17.17-27.36-31-3.63-15.89,5.34-32.81,18.78-42,13.77-9.46,27.91-8.74,38.69,3.9,9.18,10.75,16.65,11.93,31.49,12.33C510.55,256.86,541.06,247.28,564.91,228.69Z" transform="translate(-45.89 145.89)"/><path class="cls-2" d="M103.45,383.44c-.69,3.21-1.27,6.7.18,9.65s5.79,4.6,8.1,2.27c-3.4,4.84-.53,12.7,5.19,14.21s12.1-3.89,11.54-9.78c.78,4,6.6,4.95,9.91,2.59s4.68-6.5,6-10.34c5-14.52,11.84-28.55,21.74-40.27,18.4-21.8,46-34.23,64.69-55.75,6.75-7.76,12.43-17.21,12.46-27.49.07-16-9.18-36.9-25-36.22-12.4.54-26.92,6.88-36.21,14.3-24.64,19.69-46.35,57.59-60.52,85.76A212.34,212.34,0,0,0,103.45,383.44Z" transform="translate(-45.89 145.89)"/><path class="cls-3" d="M457.9,248.91l-127.09-16.6-127.1,16.6s-30.39,90.63-29,141.69S194,476.12,236.87,494s93.94,19.15,93.94,19.15,51.11-1.27,93.93-19.15,60.78-52.33,62.17-103.39S457.9,248.91,457.9,248.91Z" transform="translate(-45.89 145.89)"/><path class="cls-4" d="M457.9,248.91l-41.32-5.4c8.89,30.23,22.92,83.94,22,119-1.39,51.06-19.34,85.52-62.17,103.39s-93.93,19.15-93.93,19.15-40.71-1-79.9-13.94c9,9.4,20.3,17,34.31,22.87,42.82,17.88,93.94,19.15,93.94,19.15s51.11-1.27,93.93-19.15,60.78-52.33,62.17-103.39S457.9,248.91,457.9,248.91Z" transform="translate(-45.89 145.89)"/><path class="cls-2" d="M479.5,328.74c0-41.13-21.63-79.94-21.63-79.94L330.78,232.21,203.69,248.8s-20,44.07-23.38,89A194.22,194.22,0,0,1,254.94,293c34.35-11.05,71.4-13.37,107.65-10.78C453,288.66,478.67,328.07,479.5,328.74Z" transform="translate(-45.89 145.89)"/><path class="cls-2" d="M117,72S-.8,22.75,66.83-65.89c59.63-78.15,138,10,138,10Z" transform="translate(-45.89 145.89)"/><path class="cls-5" d="M125.68,34.4S60,6.91,97.69-42.55c33.27-43.61,77,5.56,77,5.56Z" transform="translate(-45.89 145.89)"/><path class="cls-6" d="M57.08-50.64c57.14-74.89,131.44,2.9,137.54,9.53l10.16-14.81S126.46-144,66.83-65.89A125.85,125.85,0,0,0,55.88-49Z" transform="translate(-45.89 145.89)"/><path class="cls-7" d="M54.27-12.21c-.19,8.4,1.68,17,6.28,23.92C62.7,14.93,66,18,69.7,17.55c3.37-.37,6-3.62,6.59-7.09s-.44-7-2-10.2-3.58-6-5.19-9.09A37.79,37.79,0,0,1,65.87-34.2c.38-1.71.75-3.87-.6-4.93C58.15-44.7,54.33-15.18,54.27-12.21Z" transform="translate(-45.89 145.89)"/><path class="cls-2" d="M462.59-43.24s67.18-108.57,144.09-27.84C674.48.1,575.13,63.58,575.13,63.58Z" transform="translate(-45.89 145.89)"/><path class="cls-5" d="M498.38-28.74s37.49-60.58,80.4-15.54c37.83,39.72-17.6,75.14-17.6,75.14Z" transform="translate(-45.89 145.89)"/><path class="cls-6" d="M593.15-83.11c65,68.21-23.54,129.35-31,134.33l13,12.36S674.48.1,606.68-71.08a125.89,125.89,0,0,0-14.92-13.46C592.22-84.07,592.69-83.6,593.15-83.11Z" transform="translate(-45.89 145.89)"/><path class="cls-7" d="M555.64-91.93c-8.27-1.51-17.07-1-24.61,2.44-3.52,1.61-7,4.36-7.21,8.12-.16,3.38,2.64,6.47,6,7.62s7,.68,10.38-.35,6.48-2.6,9.8-3.7a37.8,37.8,0,0,1,25.56.78c1.63.65,3.71,1.36,5,.19C587.11-83,558.56-91.4,555.64-91.93Z" transform="translate(-45.89 145.89)"/><path class="cls-3" d="M581.91,83.68C577.27,31.15,542.77-36.68,477.49-73.19,417-107,268.29-110.1,196.32-73.19,136.65-42.59,100.53,29.55,95.9,82.08s9.27,144.45,85.74,164.53,234.05,20.09,310.53,0S586.54,136.21,581.91,83.68Z" transform="translate(-45.89 145.89)"/><path class="cls-4" d="M582.28,83.68c-4.44-50.39-36.4-114.85-96.62-152.24,30.57,35,47.29,77.41,50.42,112.83,4.63,52.53-13.27,142.85-89.74,162.93s-234.06,20.09-310.53,0a104.16,104.16,0,0,1-13.91-4.7C135.26,223,154.62,239.42,182,246.61c76.48,20.09,234.06,20.09,310.53,0S586.92,136.21,582.28,83.68Z" transform="translate(-45.89 145.89)"/><path class="cls-2" d="M201.33-13.71C186.26-3.53,173.56,9.79,162,23.8c-14.69,17.74-28.21,37.7-31.52,60.5-.58,4-2.31,22.33,16.44,37.63,7.8,6.36,18,9.26,28.07,9.26,50.57,0,70-29.82,74.49-36.94,14-22.06,22.85-47.1,37.43-68.77,4.5-6.7,8.57-13.74,9.8-21.71,2.24-14.47-13.62-44.36-58.34-33.39A114.77,114.77,0,0,0,201.33-13.71Z" transform="translate(-45.89 145.89)"/><path class="cls-2" d="M461.75-13.77C476.83-3.61,489.55,9.7,501.16,23.7c14.71,17.72,28.25,37.67,31.58,60.47.59,4,2.34,22.32-16.39,37.64-7.8,6.37-18,9.29-28.06,9.3-50.57,0-70-29.75-74.53-36.87-14-22-22.9-47.07-37.5-68.73-4.51-6.69-8.59-13.73-9.83-21.7-2.25-14.46,13.57-44.37,58.3-33.45A114.91,114.91,0,0,1,461.75-13.77Z" transform="translate(-45.89 145.89)"/><path class="cls-2" d="M367.22,64.41c-11.45-4.83-31.17-6.42-33.88-5.66-2.7-.76-22.42.83-33.88,5.66-6.23,2.63-11,9.41-11,16.18,0,11,6.55,13.45,10.44,15.16,8.61,3.79,18.37,6,25,12.67,1.69,1.72,3.13,3.7,5.09,5.1a7,7,0,0,0,8.69,0c2-1.4,3.4-3.38,5.09-5.1,6.6-6.7,16.37-8.88,25-12.67,3.89-1.71,10.45-4.12,10.44-15.16C378.19,73.82,373.46,67,367.22,64.41Z" transform="translate(-45.89 145.89)"/><path class="cls-7" d="M296.21,77.51a6.27,6.27,0,0,0,5.39,5.21c2.71.29,5.29-1.25,7.32-3.07s3.78-4,6.1-5.42c5.09-3.15,11.73-2.12,17.35-4.2a2.93,2.93,0,0,0,2-1.65,2.16,2.16,0,0,0-1.08-2.29,6,6,0,0,0-2.61-.66C323.32,64.79,294.42,64.7,296.21,77.51Z" transform="translate(-45.89 145.89)"/><path class="cls-5" d="M314.87,166.9a30.12,30.12,0,0,0,11.93,4.52A40.08,40.08,0,0,0,347.25,170a28.78,28.78,0,0,0,15.43-12.54c-3.47-.79-6.16-3.3-8.64-5.72-2.21-2.17-4.41-4.36-6.44-6.68a62.17,62.17,0,0,1-13.14-24.53l-5.59,14.23a37.34,37.34,0,0,1-2.76,6,37,37,0,0,1-3.26,4.26,58.62,58.62,0,0,1-6.13,6.58A30.66,30.66,0,0,1,311.9,155c-1.44.83-3.7,1.28-3.82,3.08C307.88,161.16,312.54,165.29,314.87,166.9Z" transform="translate(-45.89 145.89)"/><path class="cls-8" d="M328.91,154.76a25.67,25.67,0,0,0,11.36-1.28c3-1,6.11-2.56,7.61-5.25a1.67,1.67,0,0,0,.27-1,1.88,1.88,0,0,0-.3-.72,65,65,0,0,0-3.73-5.85c-1.17-1.57-2.47-3-3.56-4.65-3-4.45-4.22-9.75-6.33-14.64-1.45.94-1.63,2.85-2,4.49-1,4.83-4.16,8.85-7,12.79-1.81,2.46-7.6,9.21-5,12.22C322.19,153.16,326,154.36,328.91,154.76Z" transform="translate(-45.89 145.89)"/><path class="cls-2" d="M385.71,158.66a2.21,2.21,0,0,0-2.65-1.51,40.14,40.14,0,0,1-29.16-7.46c-9-6.56-13.93-16.71-16.43-27.35-.62-2.67-1.11-5.36-1.52-8.06a167.67,167.67,0,0,0-.06-17.51c-.12-2.76-4.43-2.78-4.31,0,.06,1.36.12,2.72.16,4.09a2.08,2.08,0,0,0-1.45,2c.37,3.87.78,7.79,1.35,11.68a60.35,60.35,0,0,1-3.55,17.66,39.74,39.74,0,0,1-20.81,21.84,38.53,38.53,0,0,1-16.41,3.47c-2.77,0-2.77,4.28,0,4.31A44.51,44.51,0,0,0,321.14,150,42,42,0,0,0,331,136.43a53.2,53.2,0,0,0,3.22-9.61A58.28,58.28,0,0,0,339,139a44.08,44.08,0,0,0,26.16,21,43.6,43.6,0,0,0,19,1.3A2.18,2.18,0,0,0,385.71,158.66Z" transform="translate(-45.89 145.89)"/><path class="cls-6" d="M257.63,27.13a34.05,34.05,0,1,1-34-34A34.06,34.06,0,0,1,257.63,27.13Z" transform="translate(-45.89 145.89)"/><path class="cls-3" d="M257.63,30.69a34.05,34.05,0,1,1-34-34.05A34.06,34.06,0,0,1,257.63,30.69Z" transform="translate(-45.89 145.89)"/><path class="cls-9" d="M249.93,9a34,34,0,0,1-56.64,37A34.05,34.05,0,1,0,249.93,9Z" transform="translate(-45.89 145.89)"/><path class="cls-10" d="M244.8,32.24A22.21,22.21,0,1,1,222.59,10,22.22,22.22,0,0,1,244.8,32.24Z" transform="translate(-45.89 145.89)"/><path class="cls-11" d="M231.28,11.79a22.22,22.22,0,0,1-25.05,35.47,22.21,22.21,0,1,0,25.05-35.47Z" transform="translate(-45.89 145.89)"/><path class="cls-6" d="M237.11,32.24a13.53,13.53,0,1,1-13.53-13.53A13.53,13.53,0,0,1,237.11,32.24Z" transform="translate(-45.89 145.89)"/><path class="cls-3" d="M204.05,30a8.53,8.53,0,0,0,.41,3.22,3.87,3.87,0,0,0,2.12,2.34,4,4,0,0,0,3.44-.46,9.73,9.73,0,0,0,2.54-2.5,21.87,21.87,0,0,0,4.65-10.73,3.19,3.19,0,0,0-.7-2.78,2.84,2.84,0,0,0-1.6-.58C208.65,17.77,204.17,24.35,204.05,30Z" transform="translate(-45.89 145.89)"/><path class="cls-12" d="M222.59,55.39a23.16,23.16,0,1,1,23.16-23.15A23.18,23.18,0,0,1,222.59,55.39Zm0-44.42a21.27,21.27,0,1,0,21.26,21.27A21.28,21.28,0,0,0,222.59,11Z" transform="translate(-45.89 145.89)"/><path class="cls-3" d="M220,13.83a3.07,3.07,0,0,0-1.33.83,1.54,1.54,0,0,0-.35,1.48,2.09,2.09,0,0,0,1.76,1.11,7.35,7.35,0,0,0,3.57-.34,3.16,3.16,0,0,0,1.56-1,1.54,1.54,0,0,0,.09-1.77,1.88,1.88,0,0,0-.87-.59,5.07,5.07,0,0,0-4.27.3Z" transform="translate(-45.89 145.89)"/><path class="cls-6" d="M470.31,25.3a34.06,34.06,0,1,1-34.06-34A34.06,34.06,0,0,1,470.31,25.3Z" transform="translate(-45.89 145.89)"/><path class="cls-3" d="M470.31,28.86a34.06,34.06,0,1,1-34.06-34A34.06,34.06,0,0,1,470.31,28.86Z" transform="translate(-45.89 145.89)"/><path class="cls-9" d="M462.61,7.17a34,34,0,0,1-56.64,37,34,34,0,1,0,56.64-37Z" transform="translate(-45.89 145.89)"/><path class="cls-10" d="M457.47,30.41A22.21,22.21,0,1,1,435.26,8.2,22.21,22.21,0,0,1,457.47,30.41Z" transform="translate(-45.89 145.89)"/><path class="cls-11" d="M444,10a22.22,22.22,0,0,1-25,35.47A22.21,22.21,0,1,0,444,10Z" transform="translate(-45.89 145.89)"/><path class="cls-6" d="M449.78,30.41a13.53,13.53,0,1,1-13.53-13.53A13.53,13.53,0,0,1,449.78,30.41Z" transform="translate(-45.89 145.89)"/><path class="cls-3" d="M416.72,28.14a8.73,8.73,0,0,0,.41,3.22,3.57,3.57,0,0,0,5.56,1.88,9.44,9.44,0,0,0,2.54-2.5A21.78,21.78,0,0,0,429.88,20a3.18,3.18,0,0,0-.69-2.78,2.87,2.87,0,0,0-1.61-.58C421.33,15.94,416.85,22.52,416.72,28.14Z" transform="translate(-45.89 145.89)"/><path class="cls-12" d="M435.26,53.56a23.16,23.16,0,1,1,23.16-23.15A23.18,23.18,0,0,1,435.26,53.56Zm0-44.42a21.27,21.27,0,1,0,21.27,21.27A21.29,21.29,0,0,0,435.26,9.14Z" transform="translate(-45.89 145.89)"/><path class="cls-3" d="M432.65,12a3.16,3.16,0,0,0-1.34.83,1.56,1.56,0,0,0-.35,1.48,2.12,2.12,0,0,0,1.77,1.11,7.3,7.3,0,0,0,3.56-.34,3.23,3.23,0,0,0,1.57-1,1.54,1.54,0,0,0,.09-1.77,1.86,1.86,0,0,0-.88-.59,5.07,5.07,0,0,0-4.27.3Z" transform="translate(-45.89 145.89)"/><path class="cls-13" d="M292.92-80.46a21.26,21.26,0,0,0,13.71-18.63,21.27,21.27,0,0,0-12-19.75,34.53,34.53,0,0,1,25.49,7.91c1.14-7.87,5.5-15,11-20.7s12.27-10.1,19.05-14.26a47,47,0,0,0-3.62,35.61,17.82,17.82,0,0,1,9-4.53A16.06,16.06,0,0,0,354-100.36c1.74,4.52,5.46,8,7.6,12.35a9.74,9.74,0,0,1,1.14,6.31c-.77,3.55-4.28,5.75-7.58,7.27-14.7,6.77-31.27,8.2-47.45,8.29-5,0-11.4-1.14-12.39-6-.67-3.37,1.8-6.49,4.2-8.95Z" transform="translate(-45.89 145.89)"/><path class="cls-2" d="M214.25,533.5c3.75,7.34,7.63,14.69,12.79,21.13s11.71,12,19.5,14.69,16.24,2.51,24.43,1.73c3.84-.37,7.87-.94,10.94-3.27a18.31,18.31,0,0,0,4.89-6.47c6.49-12.69,7.48-27.39,8.2-41.63.45-8.87-3.12-17.36-17.58-22.16-9-3-40.41-20.39-54.58-41.66-4.52-6.78-9.9-12.91-14.54-19.61-4-5.7-31.35-26.66-31.46-17.46C176.63,436.15,210.57,526.31,214.25,533.5Z" transform="translate(-45.89 145.89)"/><path class="cls-2" d="M207,554.84c-3.39,3.38-5.74,8.11-5.2,12.87s4.55,9.2,9.34,9.24c-.28,3.57,2.8,6.58,6.07,8,5.22,2.32,11.19,2.08,16.89,1.58,11.81-1,23.61-3,34.77-7,5.07-1.82,10.15-4.17,13.7-8.21,3.13-3.56,4.81-8.15,6.25-12.67,2.68-8.44,4.69-17.8,1.28-26-3.83-9.18-13.87-14.58-23.77-15.52s-19.74,1.85-29.16,5c-8.05,2.71-14.62,6.35-16.75,15C218.23,546.1,213.06,548.77,207,554.84Z" transform="translate(-45.89 145.89)"/><path class="cls-2" d="M447,533.48c-3.74,7.35-7.61,14.7-12.75,21.14s-11.69,12-19.47,14.74-16.24,2.54-24.44,1.77c-3.83-.37-7.86-.92-10.93-3.25a18.12,18.12,0,0,1-4.91-6.46c-6.51-12.68-7.54-27.37-8.28-41.61-.46-8.88,3.09-17.37,17.54-22.19,9-3,40.37-20.47,54.5-41.77,4.5-6.79,9.87-12.92,14.5-19.63,3.95-5.71,31.31-26.72,31.43-17.52C484.47,436.06,450.71,526.28,447,533.48Z" transform="translate(-45.89 145.89)"/><path class="cls-2" d="M454.35,554.8c3.4,3.37,5.75,8.1,5.22,12.86s-4.53,9.21-9.32,9.26c.29,3.57-2.78,6.59-6.05,8.05-5.22,2.33-11.19,2.1-16.89,1.62-11.81-1-23.62-2.92-34.79-6.89-5.07-1.81-10.15-4.15-13.71-8.19-3.14-3.56-4.83-8.14-6.27-12.66-2.7-8.43-4.73-17.79-1.33-26,3.81-9.18,13.84-14.6,23.73-15.56s19.75,1.82,29.18,5c8.05,2.7,14.63,6.32,16.77,15C443.08,546.08,448.25,548.75,454.35,554.8Z" transform="translate(-45.89 145.89)"/><path class="cls-5" d="M566.17,247.19a11.73,11.73,0,0,0-2.49,6.69,8.39,8.39,0,0,0,2.7,6.47,9.85,9.85,0,0,0,5.66,2.13,11.53,11.53,0,0,0,3.32-.18,14.17,14.17,0,0,0,7.09-4.57,16,16,0,0,0,3.67-5.79,8.23,8.23,0,0,0-6.89-10.81C574.48,240.55,568.94,243.5,566.17,247.19Z" transform="translate(-45.89 145.89)"/><path class="cls-5" d="M569.27,233.45a3.51,3.51,0,0,0,0,1.48,2.59,2.59,0,0,0,2.33,1.72,4.21,4.21,0,0,0,2.83-1,6.28,6.28,0,0,0,2.27-5.29,4.09,4.09,0,0,0-1.2-2.71C572.64,225.09,569.63,231.26,569.27,233.45Z" transform="translate(-45.89 145.89)"/><path class="cls-5" d="M591.48,227.87a9.82,9.82,0,0,0-6.22,6.69,4.44,4.44,0,0,0,.25,3,4,4,0,0,0,4.36,1.67,8.11,8.11,0,0,0,4.08-2.78,8,8,0,0,0,2.29-4.87C596.32,228.93,594.06,226.87,591.48,227.87Z" transform="translate(-45.89 145.89)"/><path class="cls-5" d="M591.9,247.39a2.68,2.68,0,0,0-.23,1.27,2.46,2.46,0,0,0,1.18,1.66,5.1,5.1,0,0,0,4.69.48,8.16,8.16,0,0,0,3-2.42,6.9,6.9,0,0,0,1.6-2.75,3,3,0,0,0-.77-2.95C598.18,239.93,593,244.52,591.9,247.39Z" transform="translate(-45.89 145.89)"/></svg>