<svg id="Layer_5" data-name="Layer 5" xmlns="http://www.w3.org/2000/svg" viewBox="0 0 658.95 774.52"><defs><style>.cls-1{fill:#8dc4c6;}.cls-2{fill:#3a3734;}.cls-3,.cls-7{fill:#fff;}.cls-4{fill:#fff3e3;}.cls-5{fill:#efac9e;}.cls-6{fill:#232120;}.cls-7{opacity:0.22;}.cls-8{fill:#ed8a7a;}.cls-9{fill:#e3fffe;}.cls-10{fill:#39b4ea;}.cls-11{fill:#2d90b2;}.cls-12{fill:#288199;}.cls-13{fill:#34d399;}</style></defs><title>6 panda</title><path class="cls-1" d="M362.77,596c0,10.89-79.9,19.73-178.47,19.73S5.83,606.91,5.83,596s79.91-19.73,178.47-19.73S362.77,585.12,362.77,596Z" transform="translate(-5.83 158.77)"/><path class="cls-2" d="M111,47.07c2.46-5.27,5.49-11.57,1.64-15.94-2.56-2.37-5.33-.55-7.55.61,4.92-3.68,7.57-10.91,4.49-16.23s-12.56-5.65-14.78.07c.32-2.48-2.23-4.6-4.73-4.73s-4.85,1.13-7,2.46C58.58,28.63,44.18,56.36,37.28,84.46c-10.43,42.47-4.78,91,24.16,123.8,9.41,10.65,40.19,34.58,54.4,34.59,16.31,0,24-18.93,30-34.09,6.16-15.52,41-36.47,26.31-44.18-12.52-6.56-51.5-4.31-63.35-30.23C96.25,106.91,98.21,74.45,111,47.07Z" transform="translate(-5.83 158.77)"/><path class="cls-2" d="M399.64,521.15c-.95,3.14-2.13,6.48-4.82,8.36s-7.29,1.23-8.19-1.93c.64,5.88-5.67,11.38-11.41,9.94s-8.71-9.26-5.38-14.15c-2.6,3.11-8.17,1.15-9.92-2.51s-1-8-.26-12c2.66-15.11,3.43-30.71.43-45.76-5.58-28-23.71-52.17-29.7-80.07C328.23,373,327.83,362,332.76,353c7.7-14.08,25.87-27.86,39.43-19.6,10.6,6.46,20.24,19,24.79,30,12,29.15,12.75,72.82,11.54,104.33A212.39,212.39,0,0,1,399.64,521.15Z" transform="translate(-5.83 158.77)"/><path class="cls-3" d="M368.9,329.56,270.78,247.1l-116-54.51S80.34,252.57,54,296.32s-29.79,82.47-3.34,120.6,68.81,66.75,68.81,66.75,43.74,26.47,89.45,34.49,79.4-11.34,108.08-53.61S368.9,329.56,368.9,329.56Z" transform="translate(-5.83 158.77)"/><path class="cls-4" d="M368.9,329.56,337,302.76c-8.8,30.24-25.92,83.06-45.62,112.08-28.67,42.27-62.37,61.63-108.08,53.61S93.86,434,93.86,434s-33.74-22.79-59.8-54.8c2.5,12.75,7.94,25.29,16.58,37.76,26.45,38.13,68.82,66.75,68.82,66.75s43.74,26.47,89.45,34.49,79.4-11.34,108.08-53.61S368.9,329.56,368.9,329.56Z" transform="translate(-5.83 158.77)"/><path class="cls-2" d="M344.08,408.45c22.16-34.65,24.86-79,24.86-79L270.82,247,181.61,130.07S113,206.36,87.18,254.83a194.38,194.38,0,0,1,87,2.51c34.88,9.2,67.34,27.21,96.49,48.92C343.35,360.4,343.75,407.44,344.08,408.45Z" transform="translate(-5.83 158.77)"/><path class="cls-2" d="M217.89-25s-48.15-118.25,62.39-132.83C377.73-170.64,370.51-53,370.51-53Z" transform="translate(-5.83 158.77)"/><path class="cls-5" d="M250.69-45.34s-26.87-66,34.81-74.11C339.88-126.63,335.85-61,335.85-61Z" transform="translate(-5.83 158.77)"/><path class="cls-6" d="M262.59-153.94C356-166.26,353.24-58.73,352.85-49.73L370.51-53s7.22-117.67-90.23-104.82a125.91,125.91,0,0,0-19.67,4.12C261.27-153.76,261.92-153.86,262.59-153.94Z" transform="translate(-5.83 158.77)"/><path class="cls-7" d="M233.36-128.83c-6.09,5.79-10.87,13.19-12.52,21.32-.77,3.79-.62,8.25,2.31,10.61,2.64,2.13,6.79,1.68,9.68-.34s4.69-5.28,5.83-8.59,1.71-6.76,2.78-10.09a37.84,37.84,0,0,1,15.69-20.2c1.49-.93,3.28-2.2,3.07-3.9C259.13-149,235.51-130.88,233.36-128.83Z" transform="translate(-5.83 158.77)"/><path class="cls-2" d="M543.36,138.73s124.35-29,121.37,82.5C662.09,319.5,547,293.85,547,293.85Z" transform="translate(-5.83 158.77)"/><path class="cls-5" d="M558.33,174.33s69.38-16.16,67.72,46c-1.47,54.83-65.68,40.52-65.68,40.52Z" transform="translate(-5.83 158.77)"/><path class="cls-6" d="M663.71,203.16c-2.52,94.16-108.29,74.54-117.11,72.74l.42,18s115.07,25.65,117.71-72.62a126.44,126.44,0,0,0-1-20.07C663.74,201.83,663.73,202.49,663.71,203.16Z" transform="translate(-5.83 158.77)"/><path class="cls-7" d="M643.51,170.35c-4.76-6.93-11.32-12.82-19.09-15.73-3.62-1.35-8-1.9-10.84.62-2.51,2.27-2.73,6.44-1.19,9.61s4.48,5.46,7.57,7.11,6.41,2.76,9.53,4.33A37.73,37.73,0,0,1,647,195c.7,1.61,1.66,3.58,3.37,3.64C659.37,199,645.19,172.79,643.51,170.35Z" transform="translate(-5.83 158.77)"/><path class="cls-3" d="M537.55,312.83c34-40.33,57.72-112.64,37.55-184.66C556.41,61.44,453.71-46.16,376.78-71.15,313-91.86,236.39-66.58,195.89-32.82S100,75.64,139.73,144s150.85,180.08,219,220.13S503.59,353.17,537.55,312.83Z" transform="translate(-5.83 158.77)"/><path class="cls-4" d="M537.82,313.1c32.58-38.7,55.74-106.81,39.76-175.88-3.27,46.38-21.51,88.13-44.41,115.33-34,40.33-110.63,91.35-178.8,51.3S175,152.1,135.34,83.73a104.11,104.11,0,0,1-6.47-13.18c-5.12,23.94-3.1,49.24,11.12,73.73C179.7,212.66,290.84,324.36,359,364.4S503.85,353.43,537.82,313.1Z" transform="translate(-5.83 158.77)"/><path class="cls-2" d="M338.16-25.64c-17.85-3.5-36.25-3.11-54.36-1.46-22.94,2.1-46.63,6.6-65.12,20.34-3.25,2.41-17.46,14.11-15.08,38.19,1,10,6.13,19.3,13.23,26.44,35.67,35.84,70.5,28.56,78.73,26.74,25.5-5.64,49.5-17,75.15-22,7.92-1.53,15.78-3.61,22.3-8.36,11.83-8.62,21.84-40.94-17.48-64.9A114.79,114.79,0,0,0,338.16-25.64Z" transform="translate(-5.83 158.77)"/><path class="cls-2" d="M521.88,158.92c3.43,17.86,3,36.26,1.24,54.36-2.19,22.94-6.78,46.61-20.59,65-2.43,3.23-14.18,17.4-38.25,14.92-10-1-19.28-6.2-26.38-13.33-35.71-35.81-28.29-70.61-26.44-78.84,5.74-25.47,17.22-49.43,22.28-75.06,1.56-7.91,3.67-15.77,8.45-22.27,8.66-11.79,41-21.68,64.83,17.74A115,115,0,0,1,521.88,158.92Z" transform="translate(-5.83 158.77)"/><path class="cls-2" d="M399.79,147.05c-4.65-11.52-17.44-26.62-19.89-28-1.36-2.46-16.4-15.32-27.9-20-6.27-2.56-14.41-1.13-19.21,3.64-7.83,7.78-4.92,14.13-3.39,18.09,3.39,8.78,8.73,17.24,8.64,26.64,0,2.41-.41,4.83,0,7.21a7,7,0,0,0,6.13,6.16c2.37.4,4.79,0,7.2,0,9.4,0,17.83,5.34,26.59,8.77,4,1.55,10.3,4.5,18.12-3.3C400.85,161.47,402.32,153.33,399.79,147.05Z" transform="translate(-5.83 158.77)"/><path class="cls-7" d="M340.41,106a6.27,6.27,0,0,0,.11,7.49c1.7,2.13,4.62,2.87,7.34,3s5.49-.14,8.15.5c5.82,1.38,9.77,6.82,15.21,9.33a2.91,2.91,0,0,0,2.57.25,2.15,2.15,0,0,0,.86-2.38,6,6,0,0,0-1.37-2.32C368.55,116.21,348.23,95.65,340.41,106Z" transform="translate(-5.83 158.77)"/><path class="cls-5" d="M290.21,182.23a30.11,30.11,0,0,0,5.2,11.65,40.15,40.15,0,0,0,15.46,13.47,28.78,28.78,0,0,0,19.77,2.09c-1.88-3-2-6.69-2-10.15,0-3.1,0-6.2.19-9.28a62.18,62.18,0,0,1,8.12-26.62l-14,6.08a27.58,27.58,0,0,1-11.48,2.93,59.79,59.79,0,0,1-9,.3,31.74,31.74,0,0,1-5.86-1c-1.6-.43-3.52-1.72-4.87-.53C289.34,173.23,289.71,179.44,290.21,182.23Z" transform="translate(-5.83 158.77)"/><path class="cls-8" d="M308.72,183.62a25.59,25.59,0,0,0,8.92,7.16c2.84,1.45,6.12,2.52,9.09,1.68a1.35,1.35,0,0,0,1.16-1.2,65.12,65.12,0,0,0,1.52-6.78c.29-1.92.41-3.89.79-5.8,1-5.27,3.93-9.86,5.91-14.81-1.69-.36-3.17.86-4.57,1.78-4.09,2.73-9.21,3.29-14,4-3,.46-11.89,1.11-12.18,5.09C305.11,177.73,306.94,181.27,308.72,183.62Z" transform="translate(-5.83 158.77)"/><path class="cls-2" d="M346,226.63a2.21,2.21,0,0,0-.81-2.94,40.17,40.17,0,0,1-15.27-25.93c-1.73-11,2-21.66,7.8-30.94,1.45-2.32,3-4.56,4.63-6.76a166.34,166.34,0,0,0,12.38-12.39c1.87-2-1.16-5.1-3-3-.92,1-1.85,2-2.79,3a2.09,2.09,0,0,0-2.46.4c-2.48,3-5,6-7.32,9.2a60.6,60.6,0,0,1-15,9.94,39.78,39.78,0,0,1-30.16.65,38.65,38.65,0,0,1-14-9.19c-1.93-2-5,1-3.05,3a44.48,44.48,0,0,0,29.75,13.1,42.07,42.07,0,0,0,16.55-2.59,52.47,52.47,0,0,0,9.07-4.5,58.74,58.74,0,0,0-5.21,12,44.08,44.08,0,0,0,16,47.75A2.18,2.18,0,0,0,346,226.63Z" transform="translate(-5.83 158.77)"/><circle class="cls-6" cx="324.89" cy="18.94" r="34.05" transform="translate(299.29 502.55) rotate(-89.85)"/><path class="cls-3" d="M346.39,45.59a34.05,34.05,0,1,1,.12-48.16A34.06,34.06,0,0,1,346.39,45.59Z" transform="translate(-5.83 158.77)"/><path class="cls-9" d="M356.34,24.82a34,34,0,0,1-66.21-14,34,34,0,1,0,66.21,14Z" transform="translate(-5.83 158.77)"/><path class="cls-10" d="M336.24,37.58a22.21,22.21,0,1,1,.08-31.41A22.21,22.21,0,0,1,336.24,37.58Z" transform="translate(-5.83 158.77)"/><path class="cls-11" d="M341.2,13.57a22.21,22.21,0,0,1-42.81,7.26,22.21,22.21,0,1,0,42.81-7.26Z" transform="translate(-5.83 158.77)"/><path class="cls-6" d="M330.82,32.13A13.53,13.53,0,1,1,330.87,13,13.53,13.53,0,0,1,330.82,32.13Z" transform="translate(-5.83 158.77)"/><path class="cls-3" d="M309.1,7.09a9,9,0,0,0-2,2.56,4,4,0,0,0-.16,3.16,4,4,0,0,0,2.75,2.12,9.73,9.73,0,0,0,3.57,0,21.86,21.86,0,0,0,10.88-4.27,3.17,3.17,0,0,0,1.48-2.46,3,3,0,0,0-.72-1.55C321,1.75,313.18,3.22,309.1,7.09Z" transform="translate(-5.83 158.77)"/><path class="cls-12" d="M320.58,45A23.16,23.16,0,0,1,304.24,5.42a23.16,23.16,0,0,1,32.67,32.83A23,23,0,0,1,320.58,45Zm0-44.42A21.27,21.27,0,0,0,305.5,36.83a21.26,21.26,0,1,0,30.15-30A21.12,21.12,0,0,0,320.58.57Z" transform="translate(-5.83 158.77)"/><path class="cls-3" d="M331.78,7a3.15,3.15,0,0,0-1.53-.35,1.55,1.55,0,0,0-1.3.79,2.12,2.12,0,0,0,.46,2,7.32,7.32,0,0,0,2.76,2.3,3.26,3.26,0,0,0,1.83.38A1.54,1.54,0,0,0,335.32,11a1.82,1.82,0,0,0-.2-1A5.09,5.09,0,0,0,331.9,7.1Z" transform="translate(-5.83 158.77)"/><circle class="cls-6" cx="476.2" cy="168.41" r="34.05" transform="translate(-12.94 180.41) rotate(-2.58)"/><path class="cls-3" d="M497.69,195.06a34.05,34.05,0,1,1,.12-48.16A34,34,0,0,1,497.69,195.06Z" transform="translate(-5.83 158.77)"/><path class="cls-9" d="M507.64,174.29a34.05,34.05,0,0,1-66.21-14,34.05,34.05,0,1,0,66.21,14Z" transform="translate(-5.83 158.77)"/><path class="cls-10" d="M487.55,187.05a22.21,22.21,0,1,1,.08-31.41A22.21,22.21,0,0,1,487.55,187.05Z" transform="translate(-5.83 158.77)"/><path class="cls-11" d="M492.5,163a22.2,22.2,0,0,1-42.8,7.26A22.21,22.21,0,1,0,492.5,163Z" transform="translate(-5.83 158.77)"/><path class="cls-6" d="M482.12,181.6a13.53,13.53,0,1,1,.05-19.14A13.52,13.52,0,0,1,482.12,181.6Z" transform="translate(-5.83 158.77)"/><path class="cls-3" d="M460.41,156.56a8.63,8.63,0,0,0-2,2.56,3.88,3.88,0,0,0-.16,3.16A4,4,0,0,0,461,164.4a9.68,9.68,0,0,0,3.56,0,21.89,21.89,0,0,0,10.89-4.27,3.23,3.23,0,0,0,1.48-2.46,3,3,0,0,0-.72-1.55C472.31,151.22,464.49,152.69,460.41,156.56Z" transform="translate(-5.83 158.77)"/><path class="cls-12" d="M471.88,194.46a23.15,23.15,0,1,1,16.34-6.74A23,23,0,0,1,471.88,194.46Zm0-44.42A21.27,21.27,0,1,0,487,156.31,21.16,21.16,0,0,0,471.88,150Z" transform="translate(-5.83 158.77)"/><path class="cls-3" d="M483.09,156.46a3.22,3.22,0,0,0-1.54-.35,1.53,1.53,0,0,0-1.29.79,2.1,2.1,0,0,0,.46,2,7.29,7.29,0,0,0,2.75,2.3,3.29,3.29,0,0,0,1.84.38,1.55,1.55,0,0,0,1.32-1.19,2,2,0,0,0-.2-1,5.08,5.08,0,0,0-3.23-2.81Z" transform="translate(-5.83 158.77)"/><path class="cls-13" d="M450.08-7.8A21.27,21.27,0,0,0,473-11.22a21.3,21.3,0,0,0,5.53-22.45A34.57,34.57,0,0,1,490.84-10c6.39-4.74,14.52-6.69,22.47-6.77s15.81,1.57,23.54,3.44A47,47,0,0,0,509.06,9.21a17.76,17.76,0,0,1,9.57,3.2,16.06,16.06,0,0,0-11.39,9c-2,4.42-1.83,9.51-3.39,14.09a9.87,9.87,0,0,1-3.67,5.26c-3.07,2-7.1,1-10.5-.25-15.17-5.64-27.87-16.38-39.35-27.78-3.55-3.53-7.23-8.89-4.45-13,1.91-2.85,5.87-3.3,9.3-3.34Z" transform="translate(-5.83 158.77)"/><path class="cls-2" d="M65.49,530.73c3.76,9.86,7.64,19.73,12.8,28.38S90,575.19,97.78,578.86s16.25,3.37,24.44,2.31c3.84-.49,7.86-1.25,10.93-4.39,2.17-2.21,3.66-5.42,4.9-8.68,6.48-17.06,7.48-36.81,8.2-55.94.44-11.93-3.12-23.33-17.59-29.77-9-4-54.82-34.18-71.17-75.82-3.16-8-22.12-36.46-23.43-24.17C30.35,417.35,61.82,521.06,65.49,530.73Z" transform="translate(-5.83 158.77)"/><path class="cls-2" d="M298,551.12c-3.74,7.34-7.61,14.7-12.75,21.14s-11.7,12-19.47,14.74-16.24,2.54-24.44,1.77c-3.84-.37-7.86-.92-10.94-3.25a18.21,18.21,0,0,1-4.9-6.46C219,566.38,205,531.68,205,517.43c0-4.27,15.14-.95,29.59-5.78,9-3,40.54-16.86,54.67-38.16,4.5-6.79,9.87-12.93,14.5-19.63,3.94-5.71,31.3-26.72,31.43-17.52C335.43,453.69,301.66,543.92,298,551.12Z" transform="translate(-5.83 158.77)"/><path class="cls-2" d="M305.31,572.44c3.4,3.37,5.75,8.1,5.22,12.86s-4.53,9.21-9.32,9.26c.29,3.57-2.79,6.59-6.06,8.05-5.22,2.33-11.19,2.1-16.88,1.62-11.82-1-23.62-2.92-34.79-6.9-5.07-1.8-10.15-4.14-13.71-8.18-3.14-3.56-4.83-8.14-6.27-12.66-2.7-8.43-4.73-17.79-1.33-26C226,541.34,236,535.92,245.9,535s19.75,1.82,29.17,5c8.06,2.7,14.64,6.32,16.78,15C294,563.72,299.21,566.39,305.31,572.44Z" transform="translate(-5.83 158.77)"/><path class="cls-2" d="M54.26,569.54c-3.64,3.11-6.35,7.65-6.18,12.43s3.82,9.53,8.59,9.94c-.55,3.54,2.29,6.77,5.44,8.48,5,2.72,11,2.94,16.71,2.89,11.86-.11,23.78-1.12,35.21-4.25,5.19-1.41,10.44-3.36,14.29-7.12,3.4-3.31,5.43-7.75,7.21-12.15,3.33-8.21,6.06-17.38,3.29-25.8-3.11-9.44-12.7-15.6-22.49-17.3s-19.83.32-29.47,2.75c-8.24,2.08-15.07,5.19-17.86,13.65C66.16,561.7,60.79,564,54.26,569.54Z" transform="translate(-5.83 158.77)"/><path class="cls-5" d="M92.71,50a11.77,11.77,0,0,1-6,3.91,8.36,8.36,0,0,1-6.91-1.2,9.73,9.73,0,0,1-3.33-5,11.41,11.41,0,0,1-.57-3.28,14.17,14.17,0,0,1,2.88-7.92,16,16,0,0,1,4.82-4.87,8.24,8.24,0,0,1,12.08,4.32C97.34,40.37,95.7,46.44,92.71,50Z" transform="translate(-5.83 158.77)"/><path class="cls-5" d="M105.42,43.88a3.46,3.46,0,0,1-1.45.3,2.57,2.57,0,0,1-2.19-1.88,4.19,4.19,0,0,1,.36-3,6.25,6.25,0,0,1,4.65-3.4,4.06,4.06,0,0,1,2.91.58C112.83,38.73,107.48,43,105.42,43.88Z" transform="translate(-5.83 158.77)"/><path class="cls-5" d="M105.93,21a9.87,9.87,0,0,1-5.14,7.56,4.4,4.4,0,0,1-3,.42,4,4,0,0,1-2.6-3.88,8.19,8.19,0,0,1,1.8-4.6,8,8,0,0,1,4.24-3.31C103.81,16.5,106.32,18.25,105.93,21Z" transform="translate(-5.83 158.77)"/><path class="cls-5" d="M86.79,24.92a2.76,2.76,0,0,1-1.18.51,2.5,2.5,0,0,1-1.88-.79,5.08,5.08,0,0,1-1.51-4.46,8.16,8.16,0,0,1,1.69-3.47,6.9,6.9,0,0,1,2.33-2.17,3,3,0,0,1,3,.1C92.67,17.13,89.35,23.19,86.79,24.92Z" transform="translate(-5.83 158.77)"/></svg>