<svg id="Layer_6" data-name="Layer 6" xmlns="http://www.w3.org/2000/svg" viewBox="0 0 831.18 583.8"><defs><style>.cls-1{fill:#8dc4c6;}.cls-2{fill:#3a3734;}.cls-3{fill:#efac9e;}.cls-4,.cls-6{fill:#fff;}.cls-5{fill:#232120;}.cls-6{opacity:0.22;}.cls-7{fill:#fff3e3;}.cls-8{fill:#34d399;}.cls-9{fill:#39b4ea;}.cls-10{fill:#2d90b2;}</style></defs><title>7 panda</title><ellipse class="cls-1" cx="438.58" cy="553.62" rx="352.32" ry="30.18"/><path class="cls-2" d="M67.64,421.91c-10.3,3.16-10.48,11-5.41,17.32-6.58-3.15-15.56-1.69-19.55,4.42s-.39,16.11,6.85,17c-5.58,1.62-6.72,9.77-3.37,14.51s9.3,6.79,14.9,8.34c31.11,8.59,63.73,10.45,96,9.82a643.54,643.54,0,0,0,188.48-32.12c12.13-4,24.41-8.5,34.25-16.65s16.91-20.69,15.34-33.36c-2.06-16.65-17.53-28.06-32.37-35.87-20.67-10.87-43.31-18.94-66.66-19.43-47.78-1-63.93,29.16-102.28,47.1-20.24,9.47-42.75,22.15-65,24.09C122.84,427.59,67.35,422.35,67.64,421.91Z" transform="translate(78.65 64.92)"/><path class="cls-2" d="M379.31-4.23c-1.23-5.69-2.77-12.51,2-15.91,3-1.74,5.31.66,7.22,2.28-4-4.69-4.94-12.33-.75-16.82s13.5-2.7,14.39,3.37c.24-2.49,3.2-4,5.67-3.56s4.47,2.19,6.25,3.95c20.51,20.42,34.67,53.32,35.13,82.25.69,43.72.59,95-34.94,120.47-11.55,8.28-48.54,6.48-62.39,3.32-15.9-3.63-27.24-19.07-29.72-35.18-2.53-16.51,4.26-28.93,20.33-33.16,13.67-3.59,18-9.81,24.78-23C381.07,57,385.7,25.32,379.31-4.23Z" transform="translate(78.65 64.92)"/><path class="cls-3" d="M396.53,2.67a11.69,11.69,0,0,0,4.94,5.14,8.34,8.34,0,0,0,7,.38A9.73,9.73,0,0,0,412.84,4,11.16,11.16,0,0,0,414.12,1a14.14,14.14,0,0,0-1-8.36,16,16,0,0,0-3.62-5.83,8.24,8.24,0,0,0-12.73,1.51C394.16-7.71,394.41-1.43,396.53,2.67Z" transform="translate(78.65 64.92)"/><path class="cls-3" d="M385.5-6.09a3.42,3.42,0,0,0,1.34.62,2.59,2.59,0,0,0,2.56-1.35,4.2,4.2,0,0,0,.31-3,6.23,6.23,0,0,0-3.77-4.35,4,4,0,0,0-3-.09C379.43-12.77,383.68-7.37,385.5-6.09Z" transform="translate(78.65 64.92)"/><path class="cls-3" d="M390.12-28.53A9.82,9.82,0,0,0,393.44-20a4.39,4.39,0,0,0,2.82,1.08,4,4,0,0,0,3.4-3.2,8.24,8.24,0,0,0-.73-4.89,8.13,8.13,0,0,0-3.39-4.18C393.18-32.42,390.34-31.28,390.12-28.53Z" transform="translate(78.65 64.92)"/><path class="cls-3" d="M407.89-20.42a2.6,2.6,0,0,0,1,.76,2.47,2.47,0,0,0,2-.34,5.08,5.08,0,0,0,2.48-4,8.12,8.12,0,0,0-.88-3.76,7,7,0,0,0-1.78-2.64,3,3,0,0,0-3-.58C403.89-29.32,405.78-22.67,407.89-20.42Z" transform="translate(78.65 64.92)"/><path class="cls-2" d="M674.13,71.86c-.77-5.26.3-11,4-14.92s10.17-5.17,14.46-2c2.13-3.37,6.87-4,10.76-3.12,6.2,1.41,11.35,5.6,16.1,9.83C729.23,70.42,738.46,80,745.74,91c3.3,5,6.25,10.46,6.72,16.43.42,5.26-1.13,10.46-2.87,15.45-3.23,9.3-11.1,21.53-14.16,34.06-2.63,10.74-24-6.33-33.48-12.09S685.84,112,679.32,121c-3.11,4.26-11.13,1.53-5.28-6.46C683.73,101.26,675.51,81.32,674.13,71.86Z" transform="translate(78.65 64.92)"/><path class="cls-2" d="M574.43,207a82.31,82.31,0,0,1,25.49-47.9c9.08-8.33,19.9-14.48,30.61-20.56l71.69-40.66c10.64-6,25.24-11.65,33.87-3,5.65,5.68,5.45,14.78,4.69,22.75A504.71,504.71,0,0,1,702.6,267.3c-4.36,10.2-9.26,20.55-17.43,28.07C632.78,343.58,566.72,258,574.43,207Z" transform="translate(78.65 64.92)"/><path class="cls-4" d="M234,440.3c95.3,55.69,234.61,51.31,318.56,30.3,30.46-7.63,73.57-33.32,97.72-54.85,50.91-45.39,60.26-130.54,41-201.31-5.57-20.41-13.36-40.58-26-56.83-30.37-39-81.36-47.4-127.22-47.2-94.23.42-187.67,26-270.15,74.05C218.67,213.11,166,255.54,144.14,314.52S193.7,416.75,234,440.3Z" transform="translate(78.65 64.92)"/><path class="cls-2" d="M267.92,184.25c-49.2,28.64-101.85,71.08-123.73,130.05S191.72,419.6,232,443.15C277.88,470,336,479.77,391.13,483.59c1.53-.51,3.05-1.1,4.58-1.78,26.36-11.82,38.6-43.47,38.2-72.36s-10.56-56.62-16.71-84.86c-15.45-70.86-3.6-149.28,38.7-207.62A545.79,545.79,0,0,0,267.92,184.25Z" transform="translate(78.65 64.92)"/><path class="cls-2" d="M30.26,298.09s-110.3,27.16-108.89-72c1.24-87.45,103.9-65.93,103.9-65.93Z" transform="translate(78.65 64.92)"/><path class="cls-3" d="M16.54,266.59S-45,281.74-44.21,226.4c.69-48.79,58-36.78,58-36.78Z" transform="translate(78.65 64.92)"/><path class="cls-5" d="M-77.53,242.13c1.19-83.8,95.5-67.53,103.37-66l-.57-16s-102.66-21.52-103.9,65.93a111.94,111.94,0,0,0,1.09,17.84C-77.54,243.31-77.54,242.72-77.53,242.13Z" transform="translate(78.65 64.92)"/><path class="cls-6" d="M-59.19,271.09C-54.88,277.2-49,282.36-42,284.86c3.24,1.17,7.18,1.61,9.64-.67,2.21-2.05,2.35-5.75.95-8.56a15.16,15.16,0,0,0-6.81-6.24C-41,268-44,267-46.79,265.64a33.66,33.66,0,0,1-15.75-16.42c-.63-1.43-1.51-3.16-3-3.2C-73.62,245.8-60.72,268.93-59.19,271.09Z" transform="translate(78.65 64.92)"/><path class="cls-2" d="M161.27,28.5S145.06-73.14,234.51-64.39c78.85,7.72,51.68,98.78,51.68,98.78Z" transform="translate(78.65 64.92)"/><path class="cls-3" d="M190.74,18.49s-9-56.71,40.86-51.83c44,4.31,28.84,55.11,28.84,55.11Z" transform="translate(78.65 64.92)"/><path class="cls-5" d="M219.92-64.6c75.56,7.39,53.77,91.31,51.82,98.3l14.45.69s27.17-91.06-51.68-98.78a101.52,101.52,0,0,0-16.19-.35Z" transform="translate(78.65 64.92)"/><path class="cls-6" d="M192.39-50.23c-5.84,3.44-10.95,8.38-13.73,14.46-1.3,2.83-2,6.36-.13,8.75,1.69,2.15,5,2.56,7.66,1.5a13.67,13.67,0,0,0,6.15-5.68c1.5-2.39,2.58-5,4-7.42a30.44,30.44,0,0,1,16-13c1.33-.46,3-1.13,3.12-2.5C216.3-61.35,194.45-51.44,192.39-50.23Z" transform="translate(78.65 64.92)"/><path class="cls-4" d="M329.36,49.59C289.09,15.65,220.68-11.36,157,1.66,98,13.73,10.23,99.29-4.75,167.51-17.17,224.07,13.7,295.74,48.64,335.15s108.75,95.38,167.12,64.3,149-124,178.63-183.17S369.63,83.53,329.36,49.59Z" transform="translate(78.65 64.92)"/><path class="cls-7" d="M335.77,50.18C297.14,17.62,226.42-9.35,165,.07c42.67,6.44,82.63,26.15,109.79,49,40.27,33.94,111,119.92,86.32,181.25-38.87,96.44-124,153.73-211.3,173.52,22.37,6.44,49.45,4.85,71.33-4.21,97.42-40.32,156.23-97.25,179.53-187.84C417.15,147.78,376.05,84.12,335.77,50.18Z" transform="translate(78.65 64.92)"/><path class="cls-2" d="M54.79,189.58c-1,16.89,1.78,34.19,5.72,51.19,5,21.52,12.35,43.69,27.8,60.71,2.72,3,15.67,16,38.22,13.14a37.16,37.16,0,0,0,23.35-13.18c29.36-34.54,17.9-67.1,15.1-74.8-8.69-23.84-22.63-46.11-30.68-70.1-2.49-7.41-5.49-14.75-10.85-20.75-9.73-10.9-41.71-19.43-59.31,18.22A97.52,97.52,0,0,0,54.79,189.58Z" transform="translate(78.65 64.92)"/><path class="cls-2" d="M205.35,28.51c15.27-1,31.53,1.41,47.7,4.94C273.52,37.91,295,44.57,313,58.75c3.17,2.48,17.17,14.38,18.12,35.25a28.79,28.79,0,0,1-8.3,21.7c-26.88,27.4-58.48,17-66,14.48-23.17-7.87-45.76-20.6-69-27.88-7.17-2.25-14.36-5-20.71-9.9-11.51-8.91-24.43-38.44,7.17-55A78.12,78.12,0,0,1,205.35,28.51Z" transform="translate(78.65 64.92)"/><path class="cls-2" d="M238.25,145c-9,3.23-20.75,12.77-21.79,14.66-1.92,1-11.81,12.4-15.32,21.34a15.23,15.23,0,0,0,3.26,15.38c6.32,6.52,11.29,4.46,14.41,3.41,6.88-2.34,13.48-6.24,20.93-5.79a34.33,34.33,0,0,0,5.71.3,5,5,0,0,0,4.75-4.62,32.16,32.16,0,0,0-.13-5.71c-.22-7.46,3.88-13.94,6.42-20.75,1.15-3.08,3.36-8-3-14.5A15.21,15.21,0,0,0,238.25,145Z" transform="translate(78.65 64.92)"/><path class="cls-6" d="M206.87,190.48a5,5,0,0,0,5.94.21c1.65-1.27,2.17-3.55,2.24-5.7s-.21-4.37.24-6.45c1-4.56,5.21-7.48,7.09-11.69a2.33,2.33,0,0,0,.15-2,1.84,1.84,0,0,0-1.91-.77,4.28,4.28,0,0,0-1.8,1C214.43,168.56,198.55,183.87,206.87,190.48Z" transform="translate(78.65 64.92)"/><path class="cls-8" d="M43.14,89.33a21.28,21.28,0,0,0,3.09-22.92,21.28,21.28,0,0,0-20-11.57,34.59,34.59,0,0,1,26.16-5.28C49.6,42.11,50,33.76,52.13,26.1S58.06,11.35,62,4.45a47,47,0,0,0,13.91,33,17.75,17.75,0,0,1,5.74-8.3,16,16,0,0,0,5.5,13.45c3.7,3.14,8.63,4.41,12.59,7.2a9.76,9.76,0,0,1,4,5c1,3.49-1,7.09-3.17,10C91,77.77,77.11,87,63,94.82c-4.38,2.43-10.56,4.47-13.77.64-2.21-2.63-1.54-6.56-.61-9.86Z" transform="translate(78.65 64.92)"/><path class="cls-5" d="M85.41,244.48s-34.77-19-15-51.77c20.13-33.4,53.2-12.27,53.2-12.27s-11.35,9.27-22.2,27.07C87.36,230.56,85.41,244.48,85.41,244.48Z" transform="translate(78.65 64.92)"/><path class="cls-4" d="M90.77,246.91s-34.77-19-15-51.77c20.13-33.4,53.2-12.26,53.2-12.26s-11.35,9.26-22.2,27.06C92.71,233,90.77,246.91,90.77,246.91Z" transform="translate(78.65 64.92)"/><path class="cls-9" d="M121,190.76A21.41,21.41,0,0,0,112.9,187a24.83,24.83,0,0,0-20.39,5.48,27.66,27.66,0,0,0-9.83,21.46c.12,6.86,4.65,17.13,11.71,20.74,3-6.67,6.06-15.06,14.11-27.55A127.57,127.57,0,0,1,121,190.76Z" transform="translate(78.65 64.92)"/><path class="cls-10" d="M112.86,187a24.76,24.76,0,0,0-20.39,5.48,27.42,27.42,0,0,0-7.9,11,25.45,25.45,0,0,1,3.57-3.62,24.77,24.77,0,0,1,20.39-5.48,20.93,20.93,0,0,1,7,2.83c1.93-2.46,3.91-4.7,5.64-6.62A21.69,21.69,0,0,0,112.86,187Z" transform="translate(78.65 64.92)"/><path class="cls-5" d="M111.61,202.47c0-.13-.09-.27-.15-.4a9.06,9.06,0,0,0-5.61-4.71c-2.41-.72-5.57-1.05-7.91-.13-5.07,2-14.74,16-1.64,23.53,1.19.69,2.85.25,4.2,0,2.14-4.11,4.76-8.69,8-13.71Q110.06,204.67,111.61,202.47Z" transform="translate(78.65 64.92)"/><path class="cls-4" d="M89.77,221.78A5.78,5.78,0,0,0,92,223.52a2.75,2.75,0,0,0,2.68-.25c1.19-.94,1.06-2.76.71-4.24a18.73,18.73,0,0,0-4.15-8.57,2.44,2.44,0,0,0-1.08-.75,1.92,1.92,0,0,0-1.54.46C84.85,213.1,87.39,219,89.77,221.78Z" transform="translate(78.65 64.92)"/><path class="cls-4" d="M89.8,206.35a1.52,1.52,0,0,0,.87,0c1.62-.43,2.67-2,3.34-3.53a3.9,3.9,0,0,0,.32-3.1,1.43,1.43,0,0,0-.51-.63c-.71-.47-1.67,0-2.31.61C90.59,200.53,87.14,205.37,89.8,206.35Z" transform="translate(78.65 64.92)"/><path class="cls-5" d="M273,54.41s-24.24-31.32-53.49-6.6c-29.79,25.16-3.68,54.47-3.68,54.47s7.35-12.68,23.2-26.21C259.58,58.54,273,54.41,273,54.41Z" transform="translate(78.65 64.92)"/><path class="cls-4" d="M276.27,59.32S252,28,222.78,52.71c-29.79,25.17-3.68,54.47-3.68,54.47S226.45,94.51,242.3,81C262.83,63.44,276.27,59.32,276.27,59.32Z" transform="translate(78.65 64.92)"/><path class="cls-9" d="M225.62,98.08a21.43,21.43,0,0,1-5.05-7.41,24.88,24.88,0,0,1,2.18-21,27.69,27.69,0,0,1,19.63-13.1c6.8-1,17.66,1.87,22.34,8.28-6.1,4-13.91,8.36-25,18.3A128.13,128.13,0,0,0,225.62,98.08Z" transform="translate(78.65 64.92)"/><path class="cls-10" d="M220.61,90.62a24.83,24.83,0,0,1,2.18-21,27.49,27.49,0,0,1,9.6-9.54,27.53,27.53,0,0,0-3,4.1,24.86,24.86,0,0,0-2.18,21,21,21,0,0,0,3.91,6.46c-2.12,2.29-4,4.61-5.64,6.61A21.66,21.66,0,0,1,220.61,90.62Z" transform="translate(78.65 64.92)"/><path class="cls-5" d="M235.69,86.94c-.14,0-.28,0-.41-.09a9,9,0,0,1-5.55-4.79c-1.09-2.27-1.91-5.34-1.37-7.79,1.16-5.32,13.46-17.09,23-5.35.86,1.06.7,2.77.69,4.15-3.71,2.76-7.82,6.07-12.27,10.07C238.32,84.42,237,85.69,235.69,86.94Z" transform="translate(78.65 64.92)"/><path class="cls-4" d="M251.3,62.31a5.85,5.85,0,0,1,2.06,1.89,2.75,2.75,0,0,1,.18,2.69c-.74,1.32-2.56,1.48-4.07,1.37a18.68,18.68,0,0,1-9.12-2.75,2.23,2.23,0,0,1-.91-.94,1.91,1.91,0,0,1,.2-1.59C242,58.83,248.16,60.4,251.3,62.31Z" transform="translate(78.65 64.92)"/><path class="cls-4" d="M236.07,64.79a1.49,1.49,0,0,1,.12.86c-.17,1.67-1.54,2.95-2.95,3.86a3.94,3.94,0,0,1-3,.8,1.45,1.45,0,0,1-.7-.4c-.58-.63-.24-1.66.23-2.37C230.45,66.49,234.68,62.32,236.07,64.79Z" transform="translate(78.65 64.92)"/><path class="cls-2" d="M498.65,402.07c8.28-48.68,39.13-90.1,69.77-128.83Q583.65,254,599.1,235c6.88-8.47,14.56-17.42,25.17-20,11.33-2.73,23.43,2.85,31.31,11.44s12.29,19.75,16,30.82a344.44,344.44,0,0,1,15.4,70.31c1.72,15.54,2.37,31.41-1,46.68-7,32.21-31.48,58.64-60.36,74.52-25.09,13.8-65,28.88-94.41,26C498.5,471.53,494.35,427.37,498.65,402.07Z" transform="translate(78.65 64.92)"/><path class="cls-2" d="M556.76,213.07c-4-4.87-6.51-11.39-5.2-17.58s7.14-11.53,13.44-11c.09-4.73,4.51-8.3,9-9.8,7.17-2.4,15-1.32,22.42.05,15.4,2.84,30.68,6.88,44.85,13.55,6.43,3,12.81,6.76,17,12.52,3.66,5.09,5.3,11.33,6.62,17.46,2.45,11.44,2,28.71,6.63,43.33,4,12.52-28.32,8.41-41.45,8.38s-36.61-23.38-37.72-10.29c-.52,6.25-10.35,8.42-9.34-3.3C584.65,237,564,221.82,556.76,213.07Z" transform="translate(78.65 64.92)"/><path class="cls-2" d="M213.89,256.37s50.42-7.07,70.41-25.25C311.85,206.06,305,165.86,305,165.86s19.59,48.87-7,75.31C264.9,274,213.89,256.37,213.89,256.37Z" transform="translate(78.65 64.92)"/><path class="cls-3" d="M73.55,455.18a10,10,0,0,0,2.28,6.4c5.59,7.59,15.88,9.93,25.31,10.34,3.21.14,6.72,0,9.21-2A8.58,8.58,0,0,0,112.6,467c2.18-4.46.94-10.08-2.24-13.88s-8-6-12.85-6.88C90,444.83,74.23,443.9,73.55,455.18Z" transform="translate(78.65 64.92)"/><path class="cls-3" d="M54.54,470a18,18,0,0,0,5.46,2.9c2.33.83,5,1.24,7.24.17s3.66-4,2.39-6.16c-.9-1.51-2.83-1.85-4.48-2.45C56.87,461.5,48.53,465.08,54.54,470Z" transform="translate(78.65 64.92)"/><path class="cls-3" d="M53.29,450.8a18.73,18.73,0,0,0,6.62,1.94,7,7,0,0,0,3.47-.36,3.12,3.12,0,0,0,2-2.69c0-1.56-1.44-2.69-2.79-3.48-2.55-1.5-8-4.28-11-2.49C48.15,445.76,50.61,449.44,53.29,450.8Z" transform="translate(78.65 64.92)"/><path class="cls-3" d="M72.11,438a10,10,0,0,0,5.54,1.26,4.6,4.6,0,0,0,4.06-3.51c.75-4.85-8.21-9.13-12.26-7.92C63.18,429.73,68.57,436.3,72.11,438Z" transform="translate(78.65 64.92)"/></svg>