<svg id="Layer_8" data-name="Layer 8" xmlns="http://www.w3.org/2000/svg" viewBox="0 0 584.47 744"><defs><style>.cls-1{fill:#efac9e;}.cls-2{fill:#8dc4c6;}.cls-3,.cls-7{fill:#fff;}.cls-4{fill:#fff3e3;}.cls-5{fill:#3a3734;}.cls-6{fill:#232120;}.cls-7{opacity:0.22;}.cls-8{fill:#34d399;}.cls-9{fill:#39b4ea;}.cls-10{fill:#2d90b2;}.cls-11{fill:#f76692;}.cls-12{fill:#db5d87;}</style></defs><title>8 panda</title><path class="cls-1" d="M319.19,6.5A3.12,3.12,0,0,1,319.52,8a2.87,2.87,0,0,1-1.28,2,5.87,5.87,0,0,1-5.39.8,9.38,9.38,0,0,1-3.6-2.65,8,8,0,0,1-2-3.1A3.44,3.44,0,0,1,308,1.54C311.55-1.8,317.76,3.24,319.19,6.5Z" transform="translate(-45.49 146.15)"/><path class="cls-2" d="M511.42,578.11c0,10.9-79.91,19.73-178.47,19.73S154.48,589,154.48,578.11s79.9-19.73,178.47-19.73S511.42,567.22,511.42,578.11Z" transform="translate(-45.49 146.15)"/><path class="cls-3" d="M457.5,248.64,330.41,232.05,203.32,248.64s-30.39,90.64-29,141.69,19.34,85.53,62.16,103.4,93.94,19.15,93.94,19.15,51.11-1.28,93.93-19.15,60.79-52.34,62.17-103.4S457.5,248.64,457.5,248.64Z" transform="translate(-45.49 146.15)"/><path class="cls-4" d="M457.5,248.64l-41.31-5.39c8.88,30.22,22.92,83.94,22,119-1.38,51.06-19.34,85.53-62.16,103.4s-93.94,19.15-93.94,19.15-40.71-1-79.9-13.94c9,9.39,20.31,17,34.31,22.87,42.83,17.87,93.94,19.15,93.94,19.15s51.11-1.28,93.93-19.15,60.79-52.34,62.17-103.4S457.5,248.64,457.5,248.64Z" transform="translate(-45.49 146.15)"/><path class="cls-5" d="M479.1,328.48c0-41.13-21.63-79.94-21.63-79.94l-127.09-16.6-127.09,16.6s-20,44.07-23.38,89a194.44,194.44,0,0,1,74.63-44.77c34.35-11,71.4-13.36,107.65-10.78C452.59,288.39,478.27,327.8,479.1,328.48Z" transform="translate(-45.49 146.15)"/><path class="cls-5" d="M116.6,71.76S-1.2,22.49,66.44-66.15c59.62-78.15,137.94,10,137.94,10Z" transform="translate(-45.49 146.15)"/><path class="cls-1" d="M125.28,34.13s-65.72-27.49-28-76.95c33.27-43.6,77,5.57,77,5.57Z" transform="translate(-45.49 146.15)"/><path class="cls-6" d="M56.68-50.9c57.14-74.89,131.44,2.9,137.54,9.52l10.16-14.8s-78.32-88.12-137.94-10A125.43,125.43,0,0,0,55.49-49.31Z" transform="translate(-45.49 146.15)"/><path class="cls-7" d="M53.87-12.47c-.19,8.4,1.69,17,6.29,23.92,2.14,3.21,5.41,6.25,9.14,5.84,3.37-.37,6-3.62,6.59-7.1s-.43-7-2-10.19-3.58-6-5.19-9.1a37.76,37.76,0,0,1-3.25-25.36c.39-1.71.75-3.87-.6-4.93C57.75-45,53.94-15.44,53.87-12.47Z" transform="translate(-45.49 146.15)"/><path class="cls-5" d="M462.2-43.5s67.18-108.58,144.08-27.84C674.08-.16,574.74,63.32,574.74,63.32Z" transform="translate(-45.49 146.15)"/><path class="cls-1" d="M498-29s37.48-60.59,80.39-15.54c37.83,39.72-17.6,75.14-17.6,75.14Z" transform="translate(-45.49 146.15)"/><path class="cls-6" d="M592.75-83.37c65,68.2-23.54,129.34-31,134.33l13,12.36S674.08-.16,606.28-71.34A125,125,0,0,0,591.36-84.8C591.83-84.33,592.29-83.86,592.75-83.37Z" transform="translate(-45.49 146.15)"/><path class="cls-7" d="M555.24-92.2c-8.27-1.5-17.07-1-24.61,2.45-3.51,1.61-7,4.36-7.21,8.12-.16,3.38,2.64,6.47,6,7.62s7,.68,10.38-.35,6.48-2.6,9.8-3.7a37.8,37.8,0,0,1,25.56.78c1.63.65,3.71,1.35,5,.19C586.72-83.25,558.17-91.66,555.24-92.2Z" transform="translate(-45.49 146.15)"/><path class="cls-3" d="M581.51,83.41C576.88,30.89,542.38-36.95,477.09-73.45c-60.48-33.82-209.19-36.91-281.17,0C136.25-42.85,100.13,29.29,95.5,81.81s9.27,144.45,85.74,164.54,234.06,20.08,310.53,0S586.15,135.94,581.51,83.41Z" transform="translate(-45.49 146.15)"/><path class="cls-4" d="M581.89,83.41C577.44,33,545.49-31.44,485.26-68.83c30.57,35,47.3,77.41,50.42,112.83,4.64,52.53-13.26,142.85-89.74,162.94s-234,20.08-310.53,0a105,105,0,0,1-13.9-4.71c13.36,20.52,32.72,36.93,60.11,44.12,76.47,20.08,234.05,20.08,310.53,0S586.52,135.94,581.89,83.41Z" transform="translate(-45.49 146.15)"/><path class="cls-5" d="M197.56-22.3c-15.08,10.18-27.78,23.49-39.38,37.5C143.49,33,130,52.91,126.67,75.71c-.58,4-2.32,22.32,16.43,37.62,7.8,6.37,18,9.27,28.08,9.27,50.56,0,70-29.82,74.49-36.94,14-22.06,22.84-47.11,37.42-68.78,4.5-6.69,8.57-13.74,9.8-21.71,2.24-14.46-13.62-44.36-58.33-33.38A114.58,114.58,0,0,0,197.56-22.3Z" transform="translate(-45.49 146.15)"/><path class="cls-5" d="M477.22-22.37C492.31-12.2,505,1.1,516.64,15.1c14.71,17.73,28.25,37.68,31.58,60.47.58,4,2.34,22.32-16.4,37.64-7.79,6.38-18,9.29-28.06,9.3-50.57,0-70-29.75-74.53-36.86-14-22.05-22.9-47.08-37.5-68.74-4.5-6.69-8.58-13.73-9.82-21.7-2.25-14.46,13.57-44.37,58.3-33.45A114.86,114.86,0,0,1,477.22-22.37Z" transform="translate(-45.49 146.15)"/><path class="cls-5" d="M368.54,42.13c-11.46-4.07-31.18-5.41-33.88-4.77-2.71-.64-22.43.7-33.88,4.77-6.24,2.21-11,7.93-11,13.63,0,9.3,6.54,11.33,10.43,12.78,8.61,3.19,18.38,5,25,10.67,1.69,1.45,3.13,3.12,5.09,4.29a8,8,0,0,0,8.69,0,37.51,37.51,0,0,0,5.09-4.29c6.61-5.64,16.37-7.48,25-10.67,3.89-1.45,10.45-3.48,10.44-12.78C379.5,50.06,374.77,44.34,368.54,42.13Z" transform="translate(-45.49 146.15)"/><path class="cls-7" d="M297.52,53.17c.38,2.24,2.72,4.15,5.39,4.39s5.29-1.06,7.32-2.59,3.78-3.36,6.1-4.57c5.09-2.65,11.73-1.79,17.35-3.54.84-.26,1.74-.66,2-1.39a1.72,1.72,0,0,0-1.08-1.92A6.85,6.85,0,0,0,332,43C324.63,42.45,295.73,42.38,297.52,53.17Z" transform="translate(-45.49 146.15)"/><path class="cls-8" d="M292.53-80.73a21.28,21.28,0,0,0,13.71-18.62,21.3,21.3,0,0,0-12-19.76,34.57,34.57,0,0,1,25.5,7.92c1.14-7.87,5.49-15,11-20.7S343-142,349.8-146.15a47,47,0,0,0-3.61,35.61,17.7,17.7,0,0,1,9-4.53,16,16,0,0,0-1.63,14.44c1.74,4.53,5.45,8,7.59,12.36A9.73,9.73,0,0,1,362.31-82c-.77,3.55-4.28,5.74-7.58,7.26-14.7,6.77-31.27,8.21-47.45,8.3-5,0-11.4-1.14-12.39-6-.67-3.37,1.8-6.49,4.2-9Z" transform="translate(-45.49 146.15)"/><path class="cls-5" d="M213.85,533.24c3.76,7.34,7.64,14.69,12.79,21.12s11.72,12,19.5,14.7,16.24,2.51,24.44,1.72c3.83-.37,7.86-.93,10.93-3.26a18.31,18.31,0,0,0,4.89-6.47c6.49-12.69,7.49-27.39,8.2-41.63.45-8.88-3.12-17.36-17.58-22.16-9-3-40.41-20.39-54.58-41.67-4.51-6.78-9.89-12.9-14.54-19.6-4-5.7-31.35-26.66-31.46-17.46C176.24,435.89,210.17,526.05,213.85,533.24Z" transform="translate(-45.49 146.15)"/><path class="cls-5" d="M206.58,554.58c-3.39,3.38-5.73,8.11-5.2,12.87s4.55,9.2,9.34,9.24c-.28,3.57,2.8,6.58,6.07,8,5.23,2.33,11.19,2.09,16.89,1.59,11.81-1,23.62-3,34.78-7,5.06-1.81,10.14-4.16,13.69-8.2,3.13-3.57,4.81-8.15,6.25-12.68,2.68-8.44,4.69-17.8,1.28-26-3.83-9.17-13.87-14.58-23.76-15.51s-19.75,1.85-29.17,5c-8.05,2.71-14.62,6.34-16.75,15C217.84,545.84,212.67,548.51,206.58,554.58Z" transform="translate(-45.49 146.15)"/><path class="cls-5" d="M446.64,533.21c-3.74,7.35-7.6,14.71-12.75,21.15s-11.69,12-19.47,14.74-16.24,2.54-24.43,1.76c-3.84-.36-7.87-.92-10.94-3.24a18.33,18.33,0,0,1-4.91-6.46c-6.51-12.68-7.53-27.38-8.27-41.61-.47-8.88,3.08-17.37,17.54-22.2,9-3,40.37-20.47,54.49-41.77,4.51-6.79,9.88-12.92,14.51-19.62,3.94-5.72,31.3-26.73,31.43-17.52C484.07,435.79,450.31,526,446.64,533.21Z" transform="translate(-45.49 146.15)"/><path class="cls-5" d="M454,554.54c3.4,3.37,5.75,8.1,5.22,12.86s-4.53,9.21-9.31,9.26c.28,3.57-2.79,6.58-6.06,8.05-5.22,2.33-11.19,2.1-16.89,1.61-11.81-1-23.62-2.91-34.79-6.89-5.07-1.8-10.15-4.14-13.7-8.18-3.14-3.56-4.84-8.14-6.28-12.66-2.7-8.44-4.73-17.79-1.33-26,3.82-9.18,13.84-14.61,23.74-15.56s19.74,1.82,29.17,5c8.06,2.69,14.63,6.31,16.77,15C442.68,545.82,447.86,548.48,454,554.54Z" transform="translate(-45.49 146.15)"/><path class="cls-6" d="M169.64,41s-8.84-48.8,38.67-55.31c48.38-6.63,53.78,42.21,53.78,42.21s-18-3.78-43.83-.37C184.74,31.91,169.64,41,169.64,41Z" transform="translate(-45.49 146.15)"/><path class="cls-3" d="M171.49,48.1S162.65-.7,210.16-7.22C258.53-13.85,263.93,35,263.93,35s-18-3.78-43.83-.37C186.58,39.05,171.49,48.1,171.49,48.1Z" transform="translate(-45.49 146.15)"/><path class="cls-9" d="M250,33.44a26.65,26.65,0,0,0-2.67-10.91C243.12,14.44,234.89,8.76,226,7a34.65,34.65,0,0,0-28.64,7.28c-6.59,5.52-13,18-11,27.73,8.89-2.29,19.44-5.94,37.95-7.91A160.77,160.77,0,0,1,250,33.44Z" transform="translate(-45.49 146.15)"/><path class="cls-10" d="M247.25,22.53C243.05,14.44,234.81,8.76,225.88,7a34.43,34.43,0,0,0-16.92,1,32.9,32.9,0,0,1,6.33.63c8.93,1.8,17.17,7.48,21.37,15.56a26.37,26.37,0,0,1,2.74,9.06c3.91-.06,7.66.11,10.88.28A27.07,27.07,0,0,0,247.25,22.53Z" transform="translate(-45.49 146.15)"/><path class="cls-6" d="M231.19,33.48c.08-.16.18-.3.26-.46a11.31,11.31,0,0,0,.19-9.17c-1.2-2.92-3.36-6.26-6.1-7.82-5.93-3.37-27.18-1.78-24.22,16.91.27,1.69,2,3,3.28,4.11,5.68-1.15,12.21-2.19,19.65-3C226.63,33.82,229,33.62,231.19,33.48Z" transform="translate(-45.49 146.15)"/><path class="cls-3" d="M195.19,27.37a7.4,7.4,0,0,0,0,3.5,3.43,3.43,0,0,0,2.36,2.41c1.84.43,3.51-1.14,4.68-2.63a23.52,23.52,0,0,0,5.09-10.79,3,3,0,0,0-.12-1.64,2.39,2.39,0,0,0-1.65-1.14C199.79,15.75,196,22.85,195.19,27.37Z" transform="translate(-45.49 146.15)"/><path class="cls-3" d="M210.26,15.27a1.88,1.88,0,0,0,.69.84c1.7,1.24,4,1,6.07.48a4.92,4.92,0,0,0,3.27-2.13,1.76,1.76,0,0,0,.21-1c-.1-1.07-1.34-1.62-2.4-1.78C216.55,11.47,209.13,11.91,210.26,15.27Z" transform="translate(-45.49 146.15)"/><path class="cls-6" d="M506.33,35.43s3.23-49.49-44.71-50.56C412.81-16.22,413,32.92,413,32.92s17.41-5.79,43.5-5.35C490.3,28.15,506.33,35.43,506.33,35.43Z" transform="translate(-45.49 146.15)"/><path class="cls-3" d="M505.31,42.73S508.55-6.76,460.6-7.83C411.79-8.92,412,40.22,412,40.22s17.41-5.79,43.5-5.35C489.28,35.45,505.31,42.73,505.31,42.73Z" transform="translate(-45.49 146.15)"/><path class="cls-9" d="M425.65,37.1A26.8,26.8,0,0,1,427.06,26c3.25-8.51,10.79-15.09,19.46-17.89a34.61,34.61,0,0,1,29.28,4c7.18,4.73,15,16.4,14.1,26.29-9.09-1.26-20-3.69-38.6-3.54A159.32,159.32,0,0,0,425.65,37.1Z" transform="translate(-45.49 146.15)"/><path class="cls-10" d="M427.14,25.94c3.25-8.51,10.79-15.09,19.46-17.9a34.38,34.38,0,0,1,16.91-1,32.58,32.58,0,0,0-6.22,1.35c-8.67,2.8-16.2,9.38-19.46,17.89a26.35,26.35,0,0,0-1.69,9.3c-3.89.4-7.6,1-10.78,1.53A27.05,27.05,0,0,1,427.14,25.94Z" transform="translate(-45.49 146.15)"/><path class="cls-6" d="M444.34,35c-.11-.14-.22-.28-.32-.43a11.31,11.31,0,0,1-1.23-9.09c.86-3,2.63-6.59,5.17-8.45,5.51-4,26.8-4.87,26,14-.07,1.71-1.65,3.17-2.79,4.45-5.77-.49-12.38-.78-19.86-.72Q447.7,34.82,444.34,35Z" transform="translate(-45.49 146.15)"/><path class="cls-3" d="M479.4,24.82a7.31,7.31,0,0,1,.37,3.49A3.44,3.44,0,0,1,477.71,31c-1.79.63-3.63-.73-4.95-2.09a23.35,23.35,0,0,1-6.29-10.14,2.87,2.87,0,0,1-.07-1.64,2.37,2.37,0,0,1,1.51-1.32C473.51,13.81,478,20.44,479.4,24.82Z" transform="translate(-45.49 146.15)"/><path class="cls-3" d="M463.06,14.52a1.85,1.85,0,0,1-.6.91c-1.54,1.43-3.89,1.49-6,1.17A4.92,4.92,0,0,1,453,14.86a1.8,1.8,0,0,1-.32-.95c0-1.08,1.14-1.76,2.18-2C456.37,11.46,463.8,11.05,463.06,14.52Z" transform="translate(-45.49 146.15)"/><path class="cls-11" d="M434.81,280.5c-41-19.07-104.31,26-107.32,28.16-3.47-2.5-66.4-47.17-107.27-28.2-43.58,20.24-48,57.09-36.33,96.42,14.8,49.79,143.48,103.46,143.48,103.46s128.89-53.62,143.71-103.4C482.79,337.61,478.38,300.76,434.81,280.5Z" transform="translate(-45.49 146.15)"/><path class="cls-12" d="M464.68,303.65c3.2,15.26,1.18,32.26-4,49.74C445.83,403.18,316.94,456.8,316.94,456.8S214.41,414,181.87,369.43q.91,3.7,2,7.45c14.8,49.79,143.48,103.46,143.48,103.46s128.89-53.62,143.72-103.4C479.17,349.78,479.57,323.8,464.68,303.65Z" transform="translate(-45.49 146.15)"/><path class="cls-6" d="M150.4,339.85c-2.8,13.1-4.15,27.14.83,39.57,5.56,13.85,18.41,23.79,32.37,29.07s29.09,6.5,44,7.32c10.35.56,21.12.89,30.61-3.29,2-.89,4.12-2.15,4.93-4.21s-.47-5-2.69-5c4.89-2.64,9.84-6.39,11-11.84s-4.21-11.95-9.37-9.89c2.47-.62,2.48-4.53.53-6.18s-4.71-1.75-7.25-2c-16.87-1.62-38.7-9.36-50.16-21.84-28.71-31.28-17.75-56.77-3.3-100.36C176.46,277,158.06,303.94,150.4,339.85Z" transform="translate(-45.49 146.15)"/><path class="cls-6" d="M508,343.43c2.09,13.23,2.69,27.33-2.95,39.47-6.28,13.54-19.65,22.77-33.87,27.31s-29.39,4.94-44.32,5c-10.36,0-21.14-.24-30.38-4.91-2-1-4-2.37-4.71-4.48s.74-4.95,3-4.81c-4.75-2.9-9.49-6.91-10.32-12.41s4.84-11.71,9.89-9.38c-2.44-.75-2.24-4.65-.21-6.2s4.8-1.49,7.35-1.6c16.93-.71,39.17-7.26,51.25-19.13,36.71-36.05,19.17-62.9,7.06-99.28C483.75,280,502.27,307.17,508,343.43Z" transform="translate(-45.49 146.15)"/><path class="cls-5" d="M289.81,128.33s19.95,15,44.85,15.91c26.26.9,47-18.93,47-18.93s-2,66.35-43.25,67.64S289.81,128.33,289.81,128.33Z" transform="translate(-45.49 146.15)"/><path class="cls-1" d="M342.21,166.11c-5.43-3.21-12.56-2.86-18.11.16s-9.57,8.39-11.78,14.31c-.17.44-.3.88-.44,1.32,6.73,6.84,15.39,11.4,26.53,11,16.91-.53,27.23-12,33.51-25.35a23.81,23.81,0,0,0-7.85-5.22C356.82,159.48,347.87,160.73,342.21,166.11Z" transform="translate(-45.49 146.15)"/><path class="cls-7" d="M197.6,318.52a9.37,9.37,0,0,0,4.14,5.39c3.16,1.72,7.21.67,10.11-1.46s5-5.17,7.26-7.93a54.07,54.07,0,0,1,24.56-16.66c2-.64,4.36-1.54,4.72-3.6a3.74,3.74,0,0,0-2.25-3.76,10.12,10.12,0,0,0-4.61-.71,91.23,91.23,0,0,0-28.5,4.88,32.28,32.28,0,0,0-8.31,3.92C198.48,303,195.12,311.09,197.6,318.52Z" transform="translate(-45.49 146.15)"/><path class="cls-7" d="M260.35,296.18a14.39,14.39,0,0,0,2.84,3.05,33.9,33.9,0,0,0,4.05,3.2,25.78,25.78,0,0,0,11.12,3.38c2.55.27,5.4.27,7.29-1.46s2.13-5,1-7.41a13.23,13.23,0,0,0-5.79-5.38A29.64,29.64,0,0,0,268.07,288C263.89,287.79,257.29,291.19,260.35,296.18Z" transform="translate(-45.49 146.15)"/></svg>