<svg id="Layer_1" data-name="Layer 1" xmlns="http://www.w3.org/2000/svg" viewBox="0 0 697 697"><defs><style>.cls-1{fill:#09152e;}.cls-2{fill:#3a3734;}.cls-3{fill:#efac9e;}.cls-4{fill:#232120;}.cls-5,.cls-6{fill:#fff;}.cls-5{opacity:0.22;}.cls-7{fill:#fff3e3;}.cls-8{fill:#e3fffe;}.cls-9{fill:#39b4ea;}.cls-10{fill:#2d90b2;}.cls-11{fill:#288199;}.cls-12,.cls-13{fill:#34d399;}.cls-13{font-size:81.22px;font-family:Nunito-Bold, Nunito;font-weight:700;}.cls-14{letter-spacing:-0.04em;}.cls-15{letter-spacing:0.01em;}.cls-16{letter-spacing:0em;}</style></defs><title>logo-joyyers</title><circle class="cls-1" cx="348.5" cy="348.5" r="348.5"/><path class="cls-2" d="M176.8,337.76S59.16,288.12,127.07,199.69C187,121.72,265,210.09,265,210.09Z" transform="translate(-49.7 -38.91)"/><path class="cls-3" d="M185.6,300.16s-65.63-27.7-27.74-77c33.41-43.5,76.95,5.81,76.95,5.81Z" transform="translate(-49.7 -38.91)"/><path class="cls-4" d="M117.27,214.91c57.38-74.71,131.43,3.31,137.51,10L265,210.09s-78-88.37-137.92-10.4a126.18,126.18,0,0,0-11,16.81C116.47,216,116.86,215.44,117.27,214.91Z" transform="translate(-49.7 -38.91)"/><path class="cls-5" d="M114.34,253.33c-.22,8.4,1.63,17,6.21,23.94,2.13,3.22,5.39,6.27,9.13,5.87,3.37-.36,6-3.61,6.61-7.08s-.41-7.05-1.95-10.2-3.56-6-5.16-9.11A37.77,37.77,0,0,1,126,231.38c.39-1.72.76-3.87-.58-4.93C118.33,220.85,114.41,250.36,114.34,253.33Z" transform="translate(-49.7 -38.91)"/><path class="cls-2" d="M522.76,223.59s67.52-108.37,144.17-27.39c67.57,71.39-32,134.56-32,134.56Z" transform="translate(-49.7 -38.91)"/><path class="cls-3" d="M558.5,238.2s37.68-60.47,80.45-15.29c37.7,39.84-17.84,75.08-17.84,75.08Z" transform="translate(-49.7 -38.91)"/><path class="cls-4" d="M653.44,184.12C718.2,252.54,629.5,313.4,622,318.36l13,12.4s99.54-63.17,32-134.56a124.65,124.65,0,0,0-14.87-13.51Z" transform="translate(-49.7 -38.91)"/><path class="cls-5" d="M616,175.18c-8.26-1.53-17.07-1.06-24.62,2.37-3.52,1.6-7,4.34-7.23,8.1-.18,3.38,2.61,6.48,5.95,7.63s7,.71,10.37-.31,6.49-2.58,9.81-3.67a37.81,37.81,0,0,1,25.56.86c1.63.66,3.7,1.37,5,.2C647.4,184.23,618.88,175.72,616,175.18Z" transform="translate(-49.7 -38.91)"/><path class="cls-6" d="M641.68,350.88c-4.47-52.55-38.76-120.49-103.93-157.2-60.38-34-209.08-37.56-281.17-.88-59.77,30.41-96.11,102.43-100.91,155s8.81,144.47,85.22,164.8,234,20.82,310.53,1S646.14,403.42,641.68,350.88Z" transform="translate(-49.7 -38.91)"/><path class="cls-7" d="M642.05,350.88c-4.29-50.41-36-115-96.15-152.55,30.46,35.14,47.06,77.56,50.07,113,4.47,52.54-13.72,142.81-90.25,162.65s-234.12,19.35-310.53-1a104,104,0,0,1-13.89-4.76c13.29,20.56,32.6,37,60,44.31,76.41,20.32,234,20.82,310.53,1S646.52,403.42,642.05,350.88Z" transform="translate(-49.7 -38.91)"/><path class="cls-2" d="M261.41,252.29c-15.11,10.13-27.85,23.41-39.49,37.38-14.75,17.7-28.33,37.62-31.71,60.41-.59,4-2.38,22.32,16.32,37.67,7.78,6.39,18,9.33,28,9.36,50.57.16,70.07-29.6,74.61-36.71,14.05-22,23-47,37.64-68.65,4.52-6.68,8.61-13.71,9.87-21.68,2.28-14.46-13.48-44.4-58.23-33.57A114.77,114.77,0,0,0,261.41,252.29Z" transform="translate(-49.7 -38.91)"/><path class="cls-2" d="M521.82,253.05c15,10.21,27.73,23.56,39.3,37.59,14.65,17.77,28.13,37.77,31.39,60.57.57,4,2.27,22.33-16.52,37.59-7.81,6.35-18,9.23-28.09,9.21-50.57-.11-69.91-30-74.41-37.1-13.94-22.08-22.75-47.15-37.28-68.85-4.49-6.7-8.54-13.76-9.76-21.73-2.2-14.47,13.71-44.33,58.41-33.27A115,115,0,0,1,521.82,253.05Z" transform="translate(-49.7 -38.91)"/><path class="cls-2" d="M427.05,330.93c-11.44-4.87-31.15-6.52-33.86-5.76-2.7-.78-22.43.75-33.9,5.55-6.24,2.61-11,9.37-11,16.14,0,11,6.5,13.47,10.39,15.2,8.6,3.82,18.36,6,24.94,12.75,1.68,1.72,3.12,3.7,5.07,5.11a7,7,0,0,0,8.69,0c2-1.4,3.42-3.37,5.11-5.08,6.63-6.68,16.39-8.83,25-12.59,3.89-1.7,10.46-4.1,10.48-15.14C438,340.38,433.28,333.58,427.05,330.93Z" transform="translate(-49.7 -38.91)"/><path class="cls-5" d="M356,343.81a6.28,6.28,0,0,0,5.37,5.23c2.71.3,5.29-1.24,7.33-3.05s3.79-4,6.12-5.4c5.1-3.14,11.74-2.09,17.36-4.15a3,3,0,0,0,2-1.64,2.16,2.16,0,0,0-1.08-2.29,5.84,5.84,0,0,0-2.61-.67C383.15,331.18,354.24,331,356,343.81Z" transform="translate(-49.7 -38.91)"/><path class="cls-4" d="M317.58,293.31a34.06,34.06,0,1,1-33.95-34.16A34.07,34.07,0,0,1,317.58,293.31Z" transform="translate(-49.7 -38.91)"/><path class="cls-6" d="M317.56,296.87a34.05,34.05,0,1,1-33.94-34.16A34.05,34.05,0,0,1,317.56,296.87Z" transform="translate(-49.7 -38.91)"/><path class="cls-8" d="M309.93,275.15A34.05,34.05,0,0,1,253.18,312a34,34,0,1,0,56.75-36.87Z" transform="translate(-49.7 -38.91)"/><path class="cls-9" d="M304.73,298.37a22.21,22.21,0,1,1-22.14-22.28A22.21,22.21,0,0,1,304.73,298.37Z" transform="translate(-49.7 -38.91)"/><path class="cls-10" d="M291.27,277.89a22.21,22.21,0,0,1-25.16,35.38,22.21,22.21,0,1,0,25.16-35.38Z" transform="translate(-49.7 -38.91)"/><path class="cls-4" d="M297,298.35a13.53,13.53,0,1,1-13.49-13.57A13.53,13.53,0,0,1,297,298.35Z" transform="translate(-49.7 -38.91)"/><path class="cls-6" d="M264,296a8.94,8.94,0,0,0,.4,3.22,3.57,3.57,0,0,0,5.56,1.9,9.62,9.62,0,0,0,2.55-2.5,21.86,21.86,0,0,0,4.68-10.71,3.15,3.15,0,0,0-.69-2.78,2.92,2.92,0,0,0-1.6-.59C268.63,283.79,264.13,290.36,264,296Z" transform="translate(-49.7 -38.91)"/><path class="cls-11" d="M287.69,320.88a23.16,23.16,0,1,1,18-22.5A23,23,0,0,1,287.69,320.88Zm-9.92-43.31a21.27,21.27,0,0,0,4.68,42,22.18,22.18,0,0,0,4.82-.53,21.27,21.27,0,0,0-4.68-42A21.58,21.58,0,0,0,277.77,277.57Z" transform="translate(-49.7 -38.91)"/><path class="cls-6" d="M280,279.88a3.28,3.28,0,0,0-1.34.84,1.53,1.53,0,0,0-.35,1.48,2.11,2.11,0,0,0,1.76,1.11,7.35,7.35,0,0,0,3.57-.33,3.16,3.16,0,0,0,1.56-1,1.52,1.52,0,0,0,.1-1.77,1.88,1.88,0,0,0-.87-.59,5.09,5.09,0,0,0-4.28.29Z" transform="translate(-49.7 -38.91)"/><path class="cls-4" d="M530.26,292.15A34.06,34.06,0,1,1,496.31,258,34.07,34.07,0,0,1,530.26,292.15Z" transform="translate(-49.7 -38.91)"/><path class="cls-6" d="M530.25,295.71a34.06,34.06,0,1,1-33.95-34.16A34.07,34.07,0,0,1,530.25,295.71Z" transform="translate(-49.7 -38.91)"/><path class="cls-8" d="M522.61,274a34.05,34.05,0,0,1-56.75,36.87A34,34,0,1,0,522.61,274Z" transform="translate(-49.7 -38.91)"/><path class="cls-9" d="M517.41,297.21a22.21,22.21,0,1,1-22.14-22.28A22.21,22.21,0,0,1,517.41,297.21Z" transform="translate(-49.7 -38.91)"/><path class="cls-10" d="M504,276.73a22.21,22.21,0,0,1-25.15,35.38A22.21,22.21,0,1,0,504,276.73Z" transform="translate(-49.7 -38.91)"/><path class="cls-4" d="M509.72,297.19a13.53,13.53,0,1,1-13.49-13.57A13.53,13.53,0,0,1,509.72,297.19Z" transform="translate(-49.7 -38.91)"/><path class="cls-6" d="M476.66,294.82a8.94,8.94,0,0,0,.4,3.22,3.57,3.57,0,0,0,5.56,1.9,9.62,9.62,0,0,0,2.55-2.5,21.86,21.86,0,0,0,4.68-10.71,3.15,3.15,0,0,0-.69-2.78,2.89,2.89,0,0,0-1.6-.59C481.31,282.63,476.81,289.2,476.66,294.82Z" transform="translate(-49.7 -38.91)"/><path class="cls-11" d="M500.37,319.72a23.15,23.15,0,1,1,18-22.5A23,23,0,0,1,500.37,319.72Zm-9.92-43.31a21.27,21.27,0,0,0,4.68,42,22.18,22.18,0,0,0,4.82-.53,21.27,21.27,0,0,0-4.68-42A21.58,21.58,0,0,0,490.45,276.41Z" transform="translate(-49.7 -38.91)"/><path class="cls-6" d="M492.64,278.72a3.28,3.28,0,0,0-1.34.84A1.53,1.53,0,0,0,491,281a2.11,2.11,0,0,0,1.76,1.11,7.35,7.35,0,0,0,3.57-.33,3.16,3.16,0,0,0,1.56-1,1.52,1.52,0,0,0,.1-1.77,2,2,0,0,0-.87-.59,5.09,5.09,0,0,0-4.28.29Z" transform="translate(-49.7 -38.91)"/><path class="cls-12" d="M353.21,185.83A20.77,20.77,0,0,0,355,147.45a34.55,34.55,0,0,1,25.46,8c1.17-7.87,5.55-15,11.12-20.67s12.3-10.06,19.09-14.2a47.05,47.05,0,0,0-3.73,35.6,17.72,17.72,0,0,1,9-4.5,16,16,0,0,0-1.68,14.44c1.73,4.53,5.43,8,7.56,12.38a9.78,9.78,0,0,1,1.12,6.31c-.79,3.55-4.3,5.73-7.61,7.24-14.72,6.73-31.29,8.11-47.47,8.15-5,0-11.4-1.18-12.37-6.09-.66-3.37,1.82-6.48,4.22-8.93Z" transform="translate(-49.7 -38.91)"/><path class="cls-2" d="M343.16,405.56s22.08,15.23,49.77,16.33c29.21,1.15,52.49-18.48,52.49-18.48s-2.8,66.32-48.69,67.22S343.16,405.56,343.16,405.56Z" transform="translate(-49.7 -38.91)"/><path class="cls-3" d="M401.15,443.83c-6-3.26-13.95-3-20.15,0A27.57,27.57,0,0,0,367.77,458c-.19.44-.34.88-.49,1.32a40.62,40.62,0,0,0,29.42,11.29c18.82-.37,30.39-11.75,37.49-25a27.13,27.13,0,0,0-8.7-5.29C417.45,437.33,407.49,438.5,401.15,443.83Z" transform="translate(-49.7 -38.91)"/><text class="cls-13" transform="translate(175.79 592.99)">J<tspan class="cls-14" x="29.08" y="0">O</tspan><tspan class="cls-15" x="88.93" y="0">Y</tspan><tspan x="140.1" y="0">YE</tspan><tspan class="cls-16" x="238.53" y="0">R</tspan><tspan x="294.74" y="0">S</tspan></text></svg>